<svg width="26" height="51" viewBox="0 0 26 51" fill="none" xmlns="http://www.w3.org/2000/svg">
<path d="M12.3909 24.6612V2.55905C12.3909 1.27416 14.1878 0.465967 15.1889 1.31836L25.4279 11.3892C26.1498 12.2321 26.198 13.4128 25.5177 14.2968L1.0192 38.4477C0.489758 38.9465 -0.286751 38.3436 0.11113 37.7343L12.054 25.9524L0.123965 14.2084C-0.31242 13.5927 0.502593 12.9677 1.03203 13.4949L12.3909 24.6612ZM13.5621 24.4496L13.6551 24.4054L24.4941 13.7411C24.9402 13.2644 24.9787 12.6393 24.5551 12.1342L14.4862 2.22441C14.2648 2.04131 13.8861 2.0855 13.7 2.30018C13.6744 2.32859 13.5621 2.51486 13.5621 2.52748V24.4496Z" fill="#4C4C4C"/>
<path d="M13.5621 29.3272V49.3993C13.5621 49.412 13.6744 49.5982 13.7 49.6266C13.8829 49.8476 14.2616 49.8824 14.4862 49.7024L24.5519 39.7958C24.9754 39.2907 24.9369 38.6624 24.4909 38.1889L14.515 28.3738L15.3301 27.5719L25.2739 37.3586C26.1723 38.2425 26.2525 39.5779 25.4279 40.5408L15.221 50.5864C14.0434 51.4703 12.4871 50.7221 12.3877 49.2857V30.5268L12.4198 30.4353L13.5588 29.3303L13.5621 29.3272Z" fill="#4C4C4C"/>
</svg>
