<svg width="110" height="152" viewBox="0 0 110 152" fill="none" xmlns="http://www.w3.org/2000/svg">
<path d="M58.5622 21.7165C61.7065 22.1522 64.8069 22.87 67.7858 23.9594C69.4381 23.1352 70.2499 21.3669 70.368 19.5783C70.4423 18.4518 69.9393 16.6683 70.8963 15.8137C71.9731 14.8527 74.4507 14.9878 75.7536 15.4033C82.9215 17.6901 86.2058 25.552 84.1704 32.583C84.086 32.8735 83.6422 33.7653 83.7637 33.9612C83.8497 34.098 85.3231 34.9205 85.5848 35.0573C86.4928 35.5302 88.1147 36.2919 89.1088 36.3915C89.8632 36.4675 91.0024 36.2564 91.6809 36.4101C91.8412 36.4473 91.9526 36.5638 92.0657 36.6736C92.9011 37.4927 92.7999 40.5615 92.5923 41.6627C92.2885 43.2739 91.367 44.5845 90.3628 45.8292C91.7332 46.851 93.3585 47.8897 95.1087 48.0502C95.9965 48.1312 97.6504 47.7141 97.8715 48.9301C98.6142 53.0105 94.788 57.4321 91.6826 59.5518C91.4682 59.6987 90.5923 60.1479 90.518 60.2493C90.3763 60.4435 90.6058 61.7254 90.7256 61.9179C90.7813 62.0091 90.8438 62.0176 90.9349 61.9652C91.475 61.4906 92.6311 61.1089 93.1104 60.658C93.2691 60.5094 93.3956 60.104 93.5492 59.8828C97.0749 54.8194 101.826 56.3039 105.461 60.2966C108.557 63.6981 108.827 68.0065 105.985 71.6799C105.782 71.9417 105.463 72.1461 105.272 72.4247C104.731 73.2168 104.214 74.4025 103.674 75.2807C101.45 78.9018 98.707 82.2948 95.7906 85.3771C92.0319 89.3495 87.9223 93.1394 83.573 96.4463C84.5097 98.8547 85.3299 101.322 85.8058 103.874C86.7966 109.193 86.4742 116.509 84.2818 121.5C82.7814 124.918 80.1418 127.712 77.0869 129.792C76.638 133.79 75.8397 137.815 74.1047 141.458C74.6245 142.132 75.1899 142.488 75.5072 143.349C76.7005 146.594 74.7072 148.975 71.5326 149.414C67.9495 149.909 63.3436 150.007 59.7251 149.828C57.8787 149.737 56.4222 149.338 55.234 147.842L54.5049 146.508C54.1015 148.29 52.3193 149.497 50.5674 149.739C48.4324 150.033 45.0231 149.911 42.8021 149.833C41.1582 149.776 37.1127 149.592 35.7473 148.953C33.5802 147.942 32.8882 145.665 33.5937 143.447C33.8705 142.581 34.4528 142.125 34.9912 141.446C33.2275 137.643 32.4157 133.464 31.9819 129.304C29.7237 127.523 27.614 125.494 26.1541 122.983C24.6942 120.471 23.8757 117.566 23.6191 114.663C23.5094 114.516 23.5027 114.65 23.4166 114.705C22.6993 115.173 21.5314 116.058 20.8681 116.61C19.9129 117.406 19.501 118.122 18.2639 118.703C14.1559 120.637 9.13997 118.586 6.37544 115.313C4.1763 112.711 4.51385 108.694 6.07671 105.857C7.74589 102.827 9.32055 99.7262 11.3695 96.8939C14.188 92.9958 17.7289 89.7092 21.6107 86.887C22.4462 86.2807 23.3694 85.7588 24.1457 85.09C22.917 85.3518 21.7187 85.698 20.4614 85.8179C17.7154 86.0814 15.0167 85.8973 12.5678 84.5647C11.6766 84.08 9.73912 82.8251 10.3686 81.6294C10.6539 81.0872 11.4589 80.6515 11.8758 79.9776C13.2682 77.7229 12.9239 75.1 12.5323 72.6088C8.85643 71.9468 5.68684 70.2156 3.3915 67.2549C2.61345 66.2517 0.952709 63.6491 2.69615 62.8485C4.12567 62.1915 5.18558 62.1831 6.45983 60.9434C6.66742 60.7408 8.04293 59.0164 8.04293 58.8762C8.04293 58.7495 6.9459 58.0047 6.74168 57.8257C5.54844 56.7735 4.43453 55.522 3.95352 53.9732C3.65985 53.0257 3.27336 50.9332 4.03116 50.1681C4.36533 49.8303 4.60499 49.9823 4.97967 49.9029C7.41678 49.3844 9.36613 47.2783 10.8395 45.3918C10.8564 45.3209 10.075 44.4984 9.94671 44.3278C7.59737 41.1644 6.75349 36.0166 7.81677 32.2452C8.82098 28.6867 12.8901 23.5456 17.0268 24.1958C18.6909 24.4576 18.6352 26.2968 19.1247 27.6057C19.5534 28.7508 20.1306 29.8351 21.2293 30.4414C21.7069 30.7049 22.9052 31.3636 23.2512 30.764C21.4014 29.4112 23.3457 27.9182 24.0613 26.5502C23.3508 25.9894 21.339 25.1636 21.3863 24.1215C21.4116 23.5625 21.9652 23.1791 22.2369 22.7788C22.3719 22.5795 23.2715 21.225 23.2478 21.1321C22.5727 20.5325 20.6842 19.8097 20.6588 18.771C20.6386 17.9299 22.1339 16.5821 22.5255 15.8187C21.7879 15.2631 19.7204 14.3696 19.8707 13.287C19.9669 12.5878 21.7204 10.7942 21.7187 10.4328C21.0521 9.92439 19.307 9.1458 18.9289 8.43983C18.4175 7.48558 18.7719 6.53303 19.7171 6.0804C20.6622 5.62777 21.2766 6.25098 22.1019 6.3996C23.2968 6.61579 25.0487 6.28138 26.2672 6.07195C32.5034 5.00455 38.5928 2.44583 44.9067 2.12156C49.2661 1.89862 54.1387 1.78208 56.1454 6.43507L58.5606 21.7215L58.5622 21.7165ZM45.0147 4.41343C41.8164 4.58063 34.6621 5.89968 32.2401 7.99395C32.0967 8.11893 31.6528 8.53441 31.6866 8.71174C31.7676 9.13397 33.2106 9.47176 33.6005 9.55114C38.1101 10.4513 46.9067 9.10695 50.9134 6.75259C51.3792 6.47898 52.8526 5.63959 52.0205 5.12953C50.5893 4.25298 46.7126 4.32392 45.013 4.41174L45.0147 4.41343ZM53.5311 6.33374C53.3674 6.22058 53.0146 6.89446 52.888 7.02451C51.4973 8.46685 47.6408 9.56465 45.6814 10.0207C42.3498 10.7959 34.7144 11.9173 31.7018 10.399C31.0064 10.0477 30.7634 9.28429 30.5507 10.5966C31.268 15.6211 31.9077 20.7217 32.8224 25.726C33.0739 27.0974 33.2072 27.93 34.5591 28.6056C38.073 30.3621 45.8147 29.2254 49.5649 28.1698C51.6762 27.5753 56.3159 26.0469 56.5167 23.4611C55.7606 17.9822 54.888 12.4797 53.9277 7.03126C53.8247 6.94175 53.5631 6.35738 53.5311 6.33374ZM30.8663 7.38763C28.2149 7.86897 25.5702 8.65432 22.8529 8.60365C23.0774 9.03602 24.5812 9.55789 24.5542 10.0139C24.5272 10.4699 22.3635 12.9594 22.382 13.1823C23.1466 13.8562 24.1761 14.3257 24.9508 14.9709C25.2613 15.2293 25.398 15.3492 25.1887 15.763C24.7888 16.5551 23.7255 17.4874 23.2698 18.2998C23.2326 18.3673 23.1719 18.4332 23.1888 18.5176L25.906 20.2927C25.9786 20.3805 26.0174 20.5224 26.0141 20.6356C25.9989 21.2554 23.7913 23.8344 23.9061 23.9965L26.5221 25.6331C26.9541 25.8999 26.8377 26.084 26.6419 26.4539C26.2436 27.2055 25.3153 28.1698 25.0217 28.8826C24.9795 28.9822 24.9373 29.07 24.9575 29.1832C27.4841 29.6797 29.9988 28.9028 32.4866 28.5347C32.5389 28.489 32.1237 27.9047 32.068 27.7797C31.9448 27.5112 31.8452 27.2207 31.7828 26.9302L29.2663 10.9918C29.371 9.61869 29.9769 8.40774 30.868 7.38763H30.8663ZM66.6499 27.0805C67.4465 30.5715 70.8575 33.4612 73.9849 34.9239C75.1579 35.4728 77.8971 36.4 79.0751 35.8291C81.0835 34.8563 82.297 31.5646 82.432 29.4652C82.7561 24.439 80.7966 20.4025 76.2549 18.1478C75.1444 17.5972 73.8347 17.0702 72.5925 17.5094C72.6127 18.8976 72.6718 20.1779 72.341 21.5526C71.6322 24.4931 69.3385 26.0722 66.6516 27.0805H66.6499ZM17.226 71.8015C16.4918 71.9096 15.5196 71.7205 14.7568 71.8015C15.1855 75.3196 15.6918 79.2716 13.1534 82.1327C15.4842 83.8503 18.7331 83.8908 21.4791 83.3504C21.6715 83.3132 22.8816 83.0362 22.9322 82.9822C23.0554 82.8538 22.8664 82.8319 22.8293 82.7981C22.382 82.4029 21.3154 81.6496 21.8774 81.018C22.4394 80.3863 23.0335 81.3186 23.4183 81.648C27.4048 85.0663 32.3617 86.9664 37.5025 87.8868C51.9108 90.4692 74.6583 85.752 82.7713 72.342C83.0818 71.8285 83.281 70.8304 84.1147 71.2138C84.8472 71.5516 83.9071 72.9111 83.6489 73.3401C86.9974 73.3401 90.6615 72.293 92.7948 69.5738C89.5054 67.6924 88.6564 63.7707 88.1012 60.2966C88.005 60.1969 85.8767 61.0177 85.47 61.0127C84.854 61.0059 84.4978 60.1598 85.0767 59.8203C85.4278 59.6142 86.5822 59.42 87.0919 59.2444C91.0666 57.8746 94.7644 54.7113 95.6184 50.4383C95.6488 50.288 95.6336 50.342 95.5121 50.3302C95.1171 50.2897 94.7036 50.3015 94.307 50.239C91.8513 49.8539 89.8294 48.4116 87.9712 46.8527C87.1898 47.3273 86.0573 48.4369 85.1915 48.6734C84.4877 48.8642 84.005 48.1971 84.4978 47.655C87.6421 45.8782 91.0682 42.7402 90.4522 38.7459C87.1476 38.8861 84.2582 37.0283 81.5848 35.3393C81.5004 35.3393 80.9046 36.0487 80.7392 36.1939C79.308 37.4589 78.2802 37.442 76.4456 37.0874C72.2246 36.2682 66.898 32.3128 65.5782 28.1141C65.298 27.2257 64.893 26.1398 66.1672 25.9422C66.2567 25.829 65.0094 25.4591 64.8727 25.4169C62.5436 24.689 60.1285 24.2448 57.7116 23.9154C57.2661 25.9709 55.4939 27.322 53.6745 28.1445C49.4163 30.0716 40.0915 31.6304 35.6308 30.3756C35.1245 30.2337 33.7844 29.5108 33.506 29.5058C32.8899 29.4923 31.1532 29.9939 30.4022 30.1307C29.4857 30.2962 28.5626 30.4127 27.6394 30.5242L24.9643 32.3837C26.0563 32.3499 26.1862 32.7891 26.2588 33.7619C26.6166 38.599 21.9398 45.1098 17.4774 46.7666C16.2251 47.231 15.8167 47.2598 14.5593 46.7666C14.3028 46.6669 13.2749 46.0606 13.1568 46.1282C13.0859 46.1687 12.3416 47.253 12.1695 47.4506C10.5222 49.3642 8.44968 51.3841 5.94675 52.0394C6.0919 55.2737 9.70367 57.4862 12.4952 58.3104C12.9661 58.4489 13.9214 58.5553 14.2707 58.7208C14.6842 58.9167 14.7399 59.6463 14.3365 59.8304C13.6311 60.153 11.4572 59.3052 10.7146 58.9995C9.2868 61.4113 7.35939 63.8518 4.56111 64.6726C4.45478 64.8246 5.29359 65.9646 5.45393 66.1673C7.97373 69.3712 12.3788 70.6615 16.3382 70.5838C16.7753 70.5754 17.604 70.2663 17.8555 70.8473C18.0715 71.3455 17.707 71.7289 17.2293 71.7998L17.226 71.8015ZM16.3635 26.4404C15.599 26.3441 14.8631 26.6735 14.2454 27.0923C8.82436 30.7657 8.102 39.1546 12.529 43.8498C13.2108 44.5727 15.0015 45.8748 16.0108 45.8748C17.177 45.8748 19.4842 44.2079 20.3432 43.4056C22.8715 41.0395 25.155 37.3052 24.9474 33.7298C23.1635 33.5237 21.2816 33.262 19.7508 32.2469C17.7779 30.9397 16.9104 28.6529 16.3652 26.4404H16.3635ZM96.3846 60.001C96.1737 60.2071 95.2235 61.3572 95.3399 61.5903L104.007 70.4234C107.039 66.8293 105.632 63.0681 102.258 60.4266C100.45 59.0113 98.2699 58.1668 96.3846 60.001ZM81.3266 95.3282C82.1738 94.4449 83.7434 93.4535 84.7358 92.6243C91.8665 86.6708 98.658 79.7868 103.12 71.56L103.078 71.2729L94.4657 62.5783L90.6007 64.8888C90.9248 66.196 92.0184 67.6079 93.1729 68.3021C94.0876 68.851 94.9467 68.7682 94.0404 70.094C91.6843 73.5411 86.7071 74.7487 82.7561 74.6795C77.9815 81.0906 70.476 85.0832 62.9217 87.3177C52.1994 90.4895 39.1768 91.1752 28.787 86.5627C28.4174 86.3989 27.5651 85.8247 27.2275 85.9429C20.9542 89.6855 15.6834 94.2304 11.7577 100.442C10.5644 102.331 9.4387 104.364 8.59651 106.428L19.8757 114.491C21.5145 113.354 23.0791 112.081 24.4512 110.635C24.8208 106.624 25.8149 102.675 27.2208 98.9037C27.4115 98.392 27.8284 97.0712 28.095 96.6997C28.4782 96.1676 29.3119 96.4193 29.295 97.0847C26.4377 104.21 24.09 112.576 27.2664 120.009C32.1473 131.432 46.8746 132.836 57.6981 132.405C69.4516 131.937 81.3468 128.837 83.6219 115.57C84.5485 110.165 84.113 104.969 82.3544 99.7938C82.0439 98.8801 81.1308 97.1489 80.9958 96.3737C80.9097 95.8721 80.9924 95.6779 81.3283 95.3266L81.3266 95.3282ZM7.91635 107.455C6.32987 110.268 6.93577 113.246 9.50114 115.185C12.3028 117.299 16.1644 118.22 18.8833 115.435L7.91635 107.455ZM52.5606 133.787C51.5902 133.657 50.5893 133.699 49.6071 133.625C44.3194 133.223 38.9422 132.115 34.306 129.494C34.4072 130.882 34.6519 132.336 34.9389 133.721C35.2865 135.405 35.7574 137.236 36.3903 138.832C36.6131 139.392 37.5937 141.551 38.0257 141.814C38.2941 141.978 40.4713 142.223 40.9557 142.284C42.7312 142.507 44.5067 142.622 46.2923 142.696C48.0341 142.768 50.5978 142.983 52.2838 142.784C52.3648 142.774 52.5623 142.746 52.5623 142.659V133.787H52.5606ZM56.5268 133.827V142.659C56.5268 142.748 56.7243 142.775 56.8053 142.784C58.5116 142.985 61.1158 142.77 62.8778 142.696C65.3369 142.591 68.0609 142.421 70.4777 141.956C70.6701 141.919 70.8912 141.909 71.0617 141.811C71.6423 141.475 72.5992 139.198 72.8591 138.506C73.887 135.758 74.3882 132.836 74.8237 129.938L71.6473 131.296C67.4162 132.775 62.9133 133.478 58.434 133.707C57.9293 133.733 57.1834 133.621 56.731 133.704C56.6568 133.718 56.5505 133.755 56.5285 133.826L56.5268 133.827ZM52.6416 143.995C51.1935 143.99 49.7556 144.099 48.3058 144.081C45.9193 144.047 43.4924 143.843 41.1143 143.581C40.0021 143.458 38.1574 142.988 37.138 143.105C35.5633 143.284 35.0941 145.616 36.2148 146.542C37.3321 147.465 41.8704 147.501 43.4518 147.562C45.4991 147.641 47.8096 147.758 49.8467 147.562C51.8838 147.366 52.6754 145.944 52.6399 143.996L52.6416 143.995ZM56.4458 143.995C56.5319 145.248 56.7294 146.616 57.985 147.195C59.3352 147.818 63.5917 147.697 65.2339 147.644C66.8136 147.594 70.8102 147.452 72.1503 146.952C74.2161 146.18 73.811 143.3 72.0305 143.105C70.8541 142.975 68.5554 143.53 67.2541 143.672C65.0972 143.905 62.8643 144.059 60.7023 144.082C59.2795 144.098 57.8686 143.978 56.4475 143.998L56.4458 143.995Z" fill="#4E4F4E"/>
<path d="M55.2188 97.0205C60.2129 96.8871 64.5419 99.1249 66.5537 103.778C68.9014 109.204 66.9774 114.945 62.1723 118.168C58.1538 120.861 53.7015 120.899 49.5412 118.458C39.4114 112.513 43.3101 97.3398 55.2188 97.0222V97.0205ZM54.4053 98.4021C43.3624 99.4104 41.5666 114.106 51.7893 118.151C58.9319 120.976 66.7714 115.315 66.2398 107.657C65.7993 101.317 60.4508 97.8515 54.4053 98.4038V98.4021Z" fill="#4E4F4E"/>
<path d="M54.0982 55.0288C53.2863 51.6493 52.1353 48.3288 51.3404 44.9426C51.3336 44.4426 51.9193 44.2873 52.3159 44.4561C52.4526 44.5136 53.3691 45.4729 53.6121 45.6705C56.223 47.8019 59.2559 49.224 62.6787 49.3557L60.2854 41.5816C60.2702 41.0783 60.5808 40.749 61.0989 40.8486C61.2593 40.879 61.3251 41.031 61.5107 41.0867C63.45 41.6762 65.4347 41.7556 67.5191 42.5274C81.0278 47.5334 85.6354 67.4238 73.8431 76.7737C64.8373 83.9145 47.305 86.6657 36.2891 84.156C25.0925 81.6057 19.4167 71.5904 21.5803 60.4384C23.2023 52.085 28.8377 47.2986 36.4055 44.2433C36.7042 44.1234 36.9321 44.1538 37.1346 44.4173C40.5523 50.5684 46.8965 55.0153 54.0998 55.0254L54.0982 55.0288ZM36.446 45.7144C31.0874 47.8509 26.5322 51.0328 24.1592 56.4593C19.766 66.5 23.6934 78.9541 34.5912 82.3759C45.3961 85.7689 64.9943 82.8606 73.6912 75.2469C83.8801 66.3277 79.3435 48.3153 67.1748 43.7654C65.5006 43.1388 63.7183 42.7385 61.9529 42.4717C62.5993 44.9442 63.4618 47.3797 64.1841 49.8421C64.2061 50.0228 64.1048 50.3285 63.9799 50.4569C63.5917 50.8605 61.6255 50.565 61.0348 50.4805C58.1099 50.0617 55.5327 48.7916 53.2104 47.0098L55.6104 55.5726C55.6104 56.2415 54.8087 56.3073 54.3058 56.331C53.5513 56.3664 52.483 56.2499 51.7235 56.1536C45.3033 55.3396 39.6662 51.2406 36.446 45.7144Z" fill="#4E4F4E"/>
<path d="M55.2154 101.886C57.45 101.716 60.4626 102.699 61.6407 104.725C64.1808 109.093 59.4686 113.623 56.3243 116.095C52.6585 114.379 47.0923 110.138 49.2273 105.453C50.1758 103.373 53.0332 102.054 55.2171 101.886H55.2154ZM55.1344 103.182C50.3581 103.619 48.3986 107.613 51.791 111.343C52.3463 111.952 55.4821 114.572 56.1606 114.504C56.2399 114.496 57.1918 113.702 57.3386 113.57C59.4652 111.672 62.336 108.183 60.4812 105.237C59.504 103.685 56.8644 103.023 55.1344 103.182Z" fill="#4E4F4E"/>
<path d="M48.3294 10.399C48.7007 10.3213 48.9826 10.5527 49.1058 10.8854C49.229 11.2181 49.5311 13.1688 49.4805 13.4998C49.3826 14.1247 48.5252 14.2345 48.2535 13.6839C48.1505 13.4745 47.7809 11.3346 47.791 11.0796C47.8029 10.7993 48.0476 10.4581 48.3294 10.399Z" fill="#4E4F4E"/>
<path d="M50.3531 22.7991C50.9539 22.7416 51.0687 23.2905 51.1598 23.7381C51.2577 24.2178 51.5463 25.7969 51.3505 26.1482C51.0957 26.6025 50.3632 26.5096 50.1708 26.0232C50.0324 25.6702 49.7522 23.6689 49.813 23.3125C49.8602 23.0321 50.0644 22.8261 50.3531 22.7991Z" fill="#4E4F4E"/>
<path d="M49.6206 14.7868C49.7792 14.9608 49.8163 15.3273 49.8636 15.557C49.9632 16.04 50.1843 17.1935 50.1336 17.6394C50.0493 18.4079 49.1261 18.4433 48.8577 17.6968C48.7176 17.3084 48.456 15.5097 48.5083 15.1212C48.5775 14.6078 49.2796 14.4119 49.6189 14.7868H49.6206Z" fill="#4E4F4E"/>
<path d="M49.5412 18.7473C50.2889 18.521 50.3919 19.1594 50.51 19.6881C50.618 20.1728 50.8442 21.404 50.7733 21.8448C50.6838 22.4022 49.9109 22.5136 49.6071 22.0492C49.4197 21.7638 49.1041 19.6188 49.1548 19.2523C49.1801 19.0632 49.3539 18.8031 49.5396 18.7473H49.5412Z" fill="#4E4F4E"/>
<path d="M46.0594 6.19525C46.6029 6.83366 44.6991 7.51767 44.2856 7.65279C42.8763 8.11724 39.624 8.65601 38.2688 8.11893C37.1903 7.69163 38.0646 7.13598 38.689 6.83028C40.2654 6.06013 43.673 5.47576 45.359 5.88279C45.5193 5.92164 45.9649 6.08209 46.0594 6.19356V6.19525Z" fill="#4E4F4E"/>
<path d="M63.877 55.8631C69.5714 55.169 71.1883 66.7263 65.2289 67.0202C59.9378 67.282 58.8559 56.4745 63.877 55.8631ZM63.7909 57.8037C61.774 58.1432 62.1065 61.2407 64.1554 61.1664C66.4744 61.0819 66.1757 57.4034 63.7909 57.8037Z" fill="#4E4F4E"/>
<path d="M36.1102 60.2375C41.7725 59.5805 43.4063 72.0734 36.6553 71.3962C32.1034 70.9402 30.9794 60.8336 36.1102 60.2375ZM35.7017 62.2608C34.041 62.5462 34.019 65.2434 35.7827 65.5441C38.4055 65.9916 38.5473 61.771 35.7017 62.2608Z" fill="#4E4F4E"/>
<path d="M52.2197 65.9916C53.1277 65.9241 54.9218 65.8531 54.9606 67.1553C54.9994 68.4575 52.6686 69.2749 51.6273 69.3695C50.4661 69.4742 47.9328 69.2394 48.3885 67.5049C48.6569 66.4814 51.3134 66.0592 52.2197 65.9916ZM53.3707 67.2651C53.0096 67.282 52.6399 67.2381 52.2788 67.2651C52.1286 67.2769 49.7708 67.6552 49.9716 67.9119C51.0416 68.2311 52.5876 68.1416 53.3707 67.2651Z" fill="#4E4F4E"/>
<path d="M81.326 95.3221C80.9901 95.6734 80.9057 95.8677 80.9935 96.3693C81.1285 97.1445 82.0416 98.8756 82.3521 99.7893C84.1108 104.964 84.5462 110.161 83.6196 115.566C81.3445 128.832 69.4493 131.933 57.6958 132.401C46.8706 132.831 32.145 131.43 27.2641 120.004C24.0877 112.569 26.4371 104.204 29.2928 97.0803C29.3096 96.4149 28.4776 96.1649 28.0928 96.6952C27.8244 97.0668 27.4092 98.3858 27.2185 98.8993C25.8126 102.671 24.8202 106.619 24.4489 110.631C23.0768 112.076 21.5139 113.35 19.8734 114.486L8.59423 106.423C9.43641 104.36 10.5638 102.326 11.7554 100.438C15.6794 94.2243 20.9519 89.6811 27.2253 85.9385C27.5611 85.8219 28.4134 86.3945 28.7847 86.5583C39.1745 91.1707 52.1972 90.485 62.9194 87.3132C70.4738 85.0788 77.9792 81.0845 82.7538 74.675C86.7048 74.7443 91.682 73.5367 94.0381 70.0896C94.9444 68.7638 94.0853 68.8482 93.1706 68.2976C92.0162 67.6035 90.9225 66.1932 90.5985 64.8843L94.4634 62.5739L103.076 71.2685L103.118 71.5556C98.6541 79.7823 91.8643 86.6664 84.7335 92.6198C83.7395 93.4491 82.1699 94.4405 81.3243 95.3238L81.326 95.3221ZM55.2182 97.0144C43.3095 97.3319 39.4108 112.507 49.5406 118.45C53.7009 120.891 58.1532 120.854 62.1717 118.16C66.9784 114.939 68.9008 109.198 66.5531 103.77C64.5396 99.1171 60.2106 96.8793 55.2182 97.0127V97.0144Z" fill="#C8E3F3"/>
<path d="M17.2254 71.7954C17.703 71.7245 18.0675 71.3411 17.8515 70.8429C17.6 70.2602 16.7697 70.5709 16.3342 70.5794C12.3731 70.6554 7.96976 69.365 5.44995 66.1628C5.28962 65.9602 4.45081 64.8185 4.55714 64.6681C7.35542 63.8473 9.28283 61.4068 10.7107 58.995C11.4533 59.3007 13.6271 60.1486 14.3326 59.826C14.7359 59.6419 14.6786 58.9106 14.2667 58.7164C13.9157 58.5509 12.9604 58.4461 12.4912 58.306C9.6997 57.4818 6.08792 55.2693 5.94278 52.035C8.4457 51.3814 10.5183 49.3597 12.1655 47.4462C12.336 47.2469 13.0803 46.1643 13.1528 46.1237C13.271 46.0562 14.2988 46.6608 14.5553 46.7622C15.811 47.2536 16.2212 47.2266 17.4735 46.7622C21.9359 45.1053 26.6109 38.5945 26.2548 33.7574C26.1822 32.7846 26.0523 32.3455 24.9603 32.3793L27.6354 30.5198C28.5603 30.4066 29.4818 30.2918 30.3982 30.1263C31.151 29.9894 32.8877 29.4895 33.502 29.5014C33.7805 29.5064 35.1205 30.2293 35.6269 30.3711C40.0876 31.626 49.4107 30.0671 53.6706 28.1401C55.4883 27.3176 57.2621 25.9664 57.7077 23.911C60.1245 24.2404 62.5397 24.6845 64.8688 25.4125C65.0055 25.4547 66.2527 25.8246 66.1633 25.9377C64.889 26.1336 65.2941 27.2213 65.5742 28.1097C66.8957 32.3083 72.2206 36.2655 76.4416 37.0829C78.2779 37.4393 79.3057 37.4545 80.7353 36.1895C80.9007 36.0426 81.4964 35.3349 81.5808 35.3349C84.2542 37.0221 87.1436 38.88 90.4483 38.7415C91.066 42.7358 87.6382 45.8738 84.4939 47.6505C84.0011 48.1944 84.4854 48.8615 85.1875 48.669C86.0534 48.4342 87.1858 47.3229 87.9673 46.8483C89.8255 48.4072 91.8474 49.8495 94.3031 50.2346C94.6997 50.2971 95.1132 50.2869 95.5081 50.3258C95.6296 50.3376 95.6448 50.2836 95.6144 50.4339C94.7604 54.7086 91.0626 57.8702 87.0879 59.2399C86.5766 59.4156 85.4221 59.6098 85.0728 59.8159C84.4956 60.1553 84.8517 61.0015 85.466 61.0082C85.8745 61.0116 88.001 60.1908 88.0972 60.2921C88.6525 63.7663 89.5014 67.6879 92.7908 69.5694C90.6575 72.2903 86.9934 73.3357 83.6449 73.3357C83.9049 72.9067 84.8449 71.5471 84.1108 71.2093C83.277 70.826 83.0779 71.8241 82.7673 72.3375C74.656 85.7476 51.9086 90.4648 37.4986 87.8824C32.3577 86.962 27.3991 85.0602 23.4143 81.6435C23.0312 81.3142 22.4422 80.3751 21.8734 81.0136C21.3046 81.652 22.378 82.3985 22.8253 82.7937C22.8641 82.8275 23.0515 82.8494 22.9283 82.9778C22.8759 83.0318 21.6658 83.3088 21.4751 83.346C18.7291 83.8864 15.4802 83.8459 13.1495 82.1282C15.6878 79.2655 15.1815 75.3134 14.7528 71.7971C15.5157 71.716 16.4878 71.9052 17.222 71.7971L17.2254 71.7954ZM54.0976 55.0227C46.8943 55.0126 40.5517 50.5639 37.1323 44.4146C36.9298 44.1511 36.702 44.1207 36.4032 44.2406C28.8354 47.2959 23.2 52.0823 21.5781 60.4357C19.4127 71.5877 25.0903 81.603 36.2868 84.1533C47.3027 86.663 64.8367 83.9117 73.8408 76.771C85.6331 67.4194 81.0256 47.5306 67.5168 42.5246C65.4325 41.7528 63.4477 41.6734 61.5085 41.084C61.3228 41.0283 61.257 40.8763 61.0966 40.8459C60.5802 40.7462 60.2697 41.0756 60.2832 41.5789L62.6764 49.353C59.2536 49.2212 56.2207 47.8009 53.6098 45.6677C53.3668 45.4701 52.4503 44.5108 52.3136 44.4534C51.917 44.2845 51.333 44.4399 51.3381 44.9398C52.133 48.3261 53.2824 51.6465 54.0959 55.0261L54.0976 55.0227Z" fill="#C8E3F2"/>
<path d="M52.56 133.781V142.653C52.56 142.742 52.3626 142.769 52.2815 142.778C50.5955 142.975 48.0318 142.762 46.29 142.69C44.5044 142.615 42.7306 142.501 40.9534 142.278C40.469 142.217 38.2918 141.972 38.0235 141.808C37.5914 141.545 36.6108 139.386 36.388 138.825C35.7551 137.229 35.2859 135.399 34.9366 133.715C34.6497 132.33 34.4049 130.874 34.3037 129.487C38.9399 132.109 44.3171 133.215 49.6048 133.618C50.5871 133.693 51.5879 133.652 52.5583 133.781H52.56Z" fill="#C8E3F2"/>
<path d="M56.5262 133.821C56.5482 133.75 56.6545 133.713 56.7288 133.7C57.1811 133.617 57.9271 133.728 58.4317 133.703C62.9127 133.473 67.4156 132.771 71.6451 131.291L74.8214 129.933C74.3877 132.83 73.8847 135.752 72.8569 138.501C72.597 139.194 71.6417 141.47 71.0594 141.806C70.889 141.904 70.6679 141.914 70.4755 141.952C68.0586 142.416 65.3363 142.587 62.8755 142.691C61.1135 142.766 58.5093 142.98 56.803 142.779C56.722 142.769 56.5245 142.742 56.5245 142.654V133.823L56.5262 133.821Z" fill="#C8E3F2"/>
<path d="M55.1338 103.176C56.8621 103.017 59.5034 103.679 60.4806 105.231C62.3338 108.178 59.4646 111.668 57.338 113.564C57.1912 113.694 56.2393 114.49 56.16 114.498C55.4815 114.566 52.3457 111.946 51.7904 111.337C48.398 107.607 50.3575 103.613 55.1338 103.176Z" fill="#C8E3F2"/>
<path d="M53.5315 6.33671C53.5652 6.35866 53.8252 6.94472 53.9281 7.03423C54.8884 12.4827 55.761 17.9852 56.5171 23.4641C56.3163 26.0498 51.6767 27.58 49.5653 28.1728C45.8134 29.2284 38.0734 30.365 34.5595 28.6086C33.2076 27.933 33.0726 27.1003 32.8228 25.7289C31.9081 20.7247 31.2684 15.6241 30.5511 10.5996C30.7638 9.28726 31.0068 10.0523 31.7022 10.402C34.7148 11.922 42.3502 10.8005 45.6818 10.0236C47.6413 9.56762 51.4978 8.46982 52.8885 7.02748C53.015 6.89574 53.3678 6.22355 53.5315 6.33671ZM48.3299 10.402C48.048 10.4611 47.8033 10.8022 47.7915 11.0826C47.7797 11.3376 48.151 13.4775 48.2539 13.6869C48.5256 14.2375 49.383 14.126 49.4809 13.5028C49.5332 13.1718 49.2362 11.2346 49.1062 10.8884C48.9763 10.5421 48.7028 10.3243 48.3299 10.402ZM49.621 14.7898C49.2817 14.4165 48.5796 14.6108 48.5104 15.1242C48.4581 15.5126 48.7197 17.3113 48.8598 17.6998C49.1282 18.4463 50.0497 18.4108 50.1357 17.6424C50.1847 17.1965 49.9653 16.043 49.8657 15.5599C49.8184 15.3302 49.7813 14.9637 49.6227 14.7898H49.621ZM49.5417 18.7503C49.356 18.806 49.1822 19.0661 49.1569 19.2553C49.1062 19.6218 49.4218 21.7667 49.6092 22.0522C49.913 22.5166 50.6843 22.4051 50.7754 21.8478C50.8463 21.407 50.6201 20.1758 50.5121 19.691C50.394 19.1624 50.291 18.524 49.5433 18.7503H49.5417ZM50.3535 22.802C50.0649 22.8291 49.8606 23.0351 49.8134 23.3155C49.7543 23.6718 50.0328 25.6732 50.1712 26.0262C50.3619 26.5126 51.0961 26.6055 51.3509 26.1512C51.5484 25.7999 51.2598 24.2207 51.1602 23.7411C51.0691 23.2935 50.9543 22.7446 50.3535 22.802Z" fill="white"/>
<path d="M30.8667 7.3906C29.9756 8.41071 29.3697 9.62167 29.2651 10.9948L31.7815 26.9331C31.8439 27.2236 31.9418 27.5141 32.0667 27.7827C32.1241 27.906 32.5376 28.492 32.4853 28.5376C29.9992 28.9058 27.4828 29.681 24.9563 29.1862C24.936 29.073 24.9782 28.9852 25.0204 28.8855C25.3157 28.1728 26.2423 27.2084 26.6406 26.4569C26.8364 26.0887 26.9545 25.9029 26.5208 25.6361L23.9048 23.9995C23.79 23.8373 25.9959 21.26 26.0128 20.6385C26.0162 20.5254 25.9773 20.3835 25.9048 20.2957L23.1875 18.5206C23.1706 18.4362 23.2314 18.3686 23.2685 18.3027C23.7242 17.4904 24.7875 16.5581 25.1875 15.766C25.3968 15.3522 25.26 15.2323 24.9495 14.9739C24.1748 14.3287 23.147 13.8592 22.3808 13.1853C22.3622 12.9624 24.5259 10.4847 24.5529 10.0169C24.5799 9.54904 23.0761 9.03899 22.8516 8.60662C25.5706 8.65729 28.2136 7.87363 30.8651 7.3906H30.8667Z" fill="white"/>
<path d="M96.3851 60.004C98.2703 58.1698 100.449 59.0143 102.258 60.4296C105.632 63.0711 107.04 66.8306 104.007 70.4263L95.3403 61.5933C95.2239 61.3585 96.1724 60.2083 96.3851 60.004Z" fill="white"/>
<path d="M56.4462 143.998C57.8673 143.977 59.2783 144.099 60.701 144.082C62.863 144.058 65.0976 143.905 67.2529 143.672C68.5541 143.531 70.8545 142.976 72.0292 143.104C73.8098 143.3 74.2148 146.181 72.149 146.952C70.809 147.451 66.8124 147.593 65.2326 147.644C63.5921 147.696 59.334 147.818 57.9838 147.195C56.7281 146.615 56.5306 145.247 56.4445 143.994L56.4462 143.998Z" fill="white"/>
<path d="M52.642 143.998C52.6758 145.945 51.9248 147.362 49.8488 147.563C47.7729 147.764 45.5012 147.644 43.454 147.563C41.8725 147.502 37.3342 147.465 36.2169 146.543C35.0979 145.617 35.5654 143.287 37.1401 143.106C38.1612 142.989 40.0059 143.459 41.1164 143.582C43.4945 143.846 45.9214 144.05 48.3079 144.082C49.7577 144.102 51.1957 143.991 52.6437 143.996L52.642 143.998Z" fill="white"/>
<path d="M45.0151 4.4164C46.713 4.32689 50.5897 4.25764 52.0226 5.13419C52.8547 5.64256 51.3813 6.48364 50.9155 6.75725C46.9088 9.10992 38.1122 10.456 33.6026 9.5558C33.2127 9.47811 31.7697 9.13864 31.6887 8.7164C31.6549 8.53907 32.0988 8.1219 32.2423 7.99861C34.6642 5.90434 41.8185 4.58529 45.0168 4.41809L45.0151 4.4164ZM46.0598 6.19822C45.9653 6.08675 45.5198 5.9263 45.3594 5.88745C43.6717 5.48042 40.2658 6.0631 38.6894 6.83494C38.065 7.14064 37.1907 7.69629 38.2692 8.12359C39.6245 8.66067 42.8767 8.1219 44.286 7.65745C44.6995 7.52064 46.6033 6.83832 46.0598 6.19991V6.19822Z" fill="white"/>
<path d="M7.91677 107.458L18.8837 115.438C16.1648 118.223 12.3032 117.302 9.50156 115.188C6.9345 113.251 6.33029 110.271 7.91677 107.458Z" fill="white"/>
<path d="M54.4057 98.4051C60.4513 97.8528 65.7997 101.32 66.2402 107.659C66.7719 115.318 58.9306 120.979 51.7897 118.152C41.5671 114.107 43.3628 99.4117 54.4057 98.4034V98.4051ZM55.2159 101.889C53.0319 102.057 50.1746 103.376 49.226 105.456C47.0911 110.14 52.6572 114.382 56.323 116.098C59.4673 113.627 64.1795 109.098 61.6394 104.728C60.4614 102.702 57.4487 101.72 55.2142 101.889H55.2159Z" fill="white"/>
<path d="M36.4464 45.7174C39.665 51.2435 45.302 55.3425 51.7239 56.1566C52.4851 56.2529 53.5534 56.3694 54.3062 56.3339C54.8091 56.3103 55.6125 56.2444 55.6108 55.5756L53.2108 47.0128C55.5332 48.7946 58.1103 50.063 61.0352 50.4835C61.6276 50.568 63.5938 50.8635 63.9803 50.4599C64.1035 50.3315 64.2065 50.0258 64.1846 49.8451C63.4622 47.3843 62.5998 44.9489 61.9533 42.4746C63.7187 42.7415 65.501 43.1434 67.1752 43.7683C79.3439 48.3183 83.8806 66.3307 73.6916 75.2499C64.9947 82.8636 45.3966 85.7719 34.5916 82.3789C23.6938 78.9571 19.7681 66.503 24.1596 56.4623C26.5343 51.0358 31.0878 47.8539 36.4464 45.7174ZM63.8774 55.8661C58.8563 56.4792 59.9382 67.2849 65.2293 67.0231C71.1887 66.7293 69.5718 55.1703 63.8774 55.8661ZM36.1106 60.2404C30.9798 60.8366 32.1039 70.9415 36.6557 71.3991C43.4067 72.0764 41.773 59.5834 36.1106 60.2404ZM52.2201 65.9946C51.3138 66.0622 48.6573 66.4844 48.3889 67.5079C47.9332 69.2424 50.4665 69.4772 51.6277 69.3724C52.6691 69.2779 54.9998 68.4587 54.961 67.1583C54.9222 65.8578 53.1281 65.927 52.2201 65.9946Z" fill="white"/>
<path d="M63.7913 57.8067C66.1761 57.4064 66.4748 61.0849 64.1559 61.1693C62.1052 61.2437 61.7744 58.1462 63.7913 57.8067Z" fill="white"/>
<path d="M35.7021 62.2638C38.5477 61.774 38.4059 65.9946 35.7831 65.547C34.0211 65.2464 34.0431 62.5509 35.7021 62.2638Z" fill="white"/>
<path d="M16.3638 26.4459C16.9107 28.6584 17.7782 30.9452 19.7495 32.2524C21.2819 33.2675 23.1621 33.5292 24.946 33.7353C25.1536 37.3107 22.8701 41.0433 20.3418 43.4111C19.4828 44.2151 17.1756 45.8803 16.0094 45.8803C15.0001 45.8803 13.2094 44.5799 12.5276 43.8553C8.10062 39.1601 8.82129 30.7712 14.244 27.0978C14.8617 26.679 15.5993 26.3496 16.3621 26.4459H16.3638Z" fill="#AECDC5"/>
<path d="M66.6502 27.086C69.3371 26.076 71.6308 24.4986 72.3396 21.5581C72.6704 20.1834 72.6114 18.9032 72.5911 17.5149C73.8333 17.0774 75.143 17.6027 76.2535 18.1533C80.7952 20.4063 82.7547 24.4428 82.4307 29.4708C82.2956 31.5684 81.0822 34.8618 79.0737 35.8346C77.8957 36.4055 75.1565 35.4783 73.9835 34.9294C70.8561 33.4667 67.4452 30.577 66.6485 27.086H66.6502Z" fill="#AECDC5"/>
<path d="M53.3711 67.2706C52.5862 68.1454 51.042 68.2349 49.9719 67.9174C49.7711 67.6607 52.1289 67.2824 52.2791 67.2706C52.6403 67.2436 53.0099 67.2875 53.3711 67.2706Z" fill="#C8E3F2"/>
</svg>
