<svg width="53" height="46" viewBox="0 0 53 46" fill="none" xmlns="http://www.w3.org/2000/svg">
<path d="M3.63603 0.511366L49.2903 0.5C51.3349 0.687547 52.932 2.41526 53 4.46691V41.5331C52.8811 43.7609 51.1537 45.4375 48.9335 45.5H4.0608C1.94828 45.4773 0.169908 43.8348 0 41.7206V4.27936C0.14159 2.33001 1.69908 0.71028 3.63603 0.511366ZM3.77196 2.55734C2.85446 2.69374 2.12385 3.46097 2.0389 4.38735V41.5899C2.12385 42.522 2.85446 43.2835 3.77196 43.4256C18.9108 43.4768 34.0666 43.4768 49.2054 43.4256C50.1965 43.2722 50.8931 42.4822 50.9611 41.4819V4.52374C50.8988 3.49507 50.1795 2.68237 49.1544 2.54597L3.77196 2.55734Z" fill="#EFECE9"/>
<path d="M27.4798 21.7724C29.1392 22.3805 30.8157 23.0511 32.2202 24.148C34.6726 26.0519 35.3465 29.2402 34.6726 32.1955C33.8853 35.6509 30.8043 37.3218 27.4798 37.5889C27.4855 38.4187 27.4685 39.2541 27.4798 40.0839C27.4798 40.3623 27.5534 40.459 27.4402 40.7488C27.1117 41.607 25.8657 41.5956 25.5485 40.7374C25.4522 40.4817 25.4975 40.4021 25.4975 40.1634C25.4975 39.3109 25.4975 38.4641 25.4975 37.6116C22.1673 37.5662 19.2166 35.8783 17.0984 33.3947C16.8775 33.1389 16.4528 32.6615 16.3678 32.3546C16.1016 31.4112 17.0984 30.6383 17.9423 31.1327C18.2481 31.3089 18.4294 31.6726 18.6502 31.9454C19.4488 32.923 20.3833 33.8152 21.482 34.4461C22.6884 35.1394 24.1043 35.5316 25.4975 35.5884V23.5229C24.7726 23.1932 24.0023 22.9489 23.2774 22.6135C20.2304 21.1984 18.4577 19.1411 18.4294 15.6402C18.401 11.6619 20.9893 9.05898 24.8066 8.48497C25.0331 8.45087 25.2653 8.4395 25.4862 8.39972C25.5032 7.54155 25.5032 6.6777 25.4975 5.81952C25.4975 5.63198 25.4522 5.52968 25.5089 5.31371C25.7694 4.35325 27.1683 4.31915 27.4628 5.26825C27.5478 5.54105 27.4855 5.67744 27.4798 5.92751C27.4685 6.75158 27.4798 7.57565 27.4911 8.39972C27.9725 8.46792 28.4596 8.52475 28.941 8.63273C31.0309 9.10444 32.8942 10.2979 34.2875 11.912C34.48 12.1393 34.7802 12.4746 34.8651 12.7531C35.1313 13.6113 34.3271 14.3899 33.4776 14.0887C33.0585 13.9409 32.7583 13.401 32.4524 13.0714C31.1611 11.6676 29.4054 10.6162 27.4798 10.44V21.7724ZM25.4919 10.4286C23.0282 10.6446 20.8987 12.0882 20.6268 14.6968C20.355 17.3054 21.499 19.0104 23.7758 20.2323C24.3252 20.5278 24.9085 20.7949 25.4862 21.0109V10.4286H25.4919ZM27.4798 35.5714C29.8812 35.3099 32.1919 33.9687 32.611 31.4055C33.0924 28.4673 31.8521 26.4725 29.3488 25.1255C28.7541 24.8073 28.1141 24.5061 27.4798 24.2844V35.577V35.5714Z" fill="#EFECE9"/>
</svg>
