<svg width="393" height="303" viewBox="0 0 393 303" fill="none" xmlns="http://www.w3.org/2000/svg">
<path d="M-302.588 8.4375C-480.576 8.43839 -784 8.4375 -784 8.4375V47.1806H-337.879C-286.674 47.1806 -242.144 44.8805 -219.427 101.269C-197.946 154.59 -189.811 186.812 -165.261 242.048C-143.584 290.821 -101.638 302.273 -48.2645 302.273H688.238V256.24H-37.1403C-81.5634 256.24 -121.06 244.743 -138.026 203.687C-157.206 157.274 -171.782 122.368 -190.962 75.5682C-211.012 26.645 -249.716 8.43724 -302.588 8.4375Z" fill="#BAB5A2"/>
<path d="M-296.451 0C-474.44 0.000886755 -777.863 0 -777.863 0V38.7431H-331.742C-280.537 38.7431 -236.008 36.443 -213.291 92.8315C-191.809 146.153 -180.222 178.373 -155.672 233.609C-133.995 282.382 -84.3766 289.614 -31.0035 289.614H694.375V247.802H-31.0035C-75.4267 247.802 -114.923 236.306 -131.889 195.25C-151.069 148.836 -165.645 113.931 -184.825 67.1306C-204.875 18.2075 -243.579 -0.000263413 -296.451 0Z" fill="white"/>
<line x1="49.1517" y1="249.578" x2="-40.7336" y2="288.1" stroke="#DAD6CC" stroke-width="1.53438" stroke-linecap="round" stroke-dasharray="4.6 4.6"/>
<line x1="180.339" y1="249.578" x2="90.4539" y2="288.1" stroke="#DAD6CC" stroke-width="1.53438" stroke-linecap="round" stroke-dasharray="4.6 4.6"/>
<line x1="311.531" y1="249.578" x2="221.645" y2="288.1" stroke="#DAD6CC" stroke-width="1.53438" stroke-linecap="round" stroke-dasharray="4.6 4.6"/>
<line x1="442.718" y1="249.578" x2="352.833" y2="288.1" stroke="#DAD6CC" stroke-width="1.53438" stroke-linecap="round" stroke-dasharray="4.6 4.6"/>
<g opacity="0.2" filter="url(#filter0_f_12_3277)">
<ellipse cx="286.351" cy="266.224" rx="54.2061" ry="4.83367" fill="#4C4C4C"/>
</g>
<path d="M287.189 170.194C287.43 169.924 288.04 169.412 288.211 169.142C288.268 169.056 288.296 168.985 288.282 168.871C288.282 168.815 287.572 168.288 287.458 168.175C287.032 167.762 286.308 167.208 286.45 166.554C286.578 165.971 288.111 164.975 288.41 164.35C288.41 164.193 286.692 162.928 286.536 162.401C286.436 162.089 286.493 161.889 286.677 161.648C286.99 161.235 287.7 160.61 288.111 160.211C288.225 160.098 288.495 159.998 288.495 159.842C288.466 159.657 288.268 159.614 288.154 159.5C287.842 159.202 286.72 158.135 286.621 157.837C286.536 157.581 286.578 157.41 286.72 157.183C286.947 156.87 288.622 155.405 288.622 155.277C288.012 154.566 286.592 153.812 286.507 152.831C286.436 152.035 286.791 151.452 287.614 151.381C289.304 151.978 291.008 152.334 292.811 152.319C299.497 152.277 306.198 150.428 312.857 152.149C314.901 152.675 317.414 154.182 317.627 156.514C317.911 159.657 317.414 163.226 317.627 166.411C317.485 167.677 317.584 168.971 317.57 170.251C318.564 170.578 319.586 170.891 320.537 171.346C321.432 171.758 322.241 172.341 323.107 172.796C323.334 172.782 323.604 172.043 323.646 171.829C323.874 170.962 323.433 170.237 324.186 169.511C325.946 167.805 329.197 170.549 330.39 171.9C332.662 174.503 333.528 177.787 333.357 181.214C333.329 181.684 333.059 183.092 333.187 183.433C333.3 183.717 334.493 185.082 334.777 185.381C335.856 186.533 338 188.239 339.59 188.41C340.214 188.481 341.151 188.196 341.307 189.078C341.577 190.628 340.569 193.046 339.675 194.311C339.192 194.994 338.567 195.534 338.056 196.16C338.525 197.112 339.164 197.852 340.2 198.179C341.052 198.449 341.89 198.264 342.017 199.43C342.287 202.033 339.76 204.791 337.858 206.256C337.616 206.441 336.821 206.853 336.779 207.081C336.708 207.408 336.736 208.417 336.779 208.787C336.835 209.356 337.119 210.422 337.531 210.835C338.255 211.546 339.632 211.304 339.575 212.612C339.476 214.432 336.693 217.262 335.203 218.201C333.528 219.267 331.682 219.395 329.737 219.21L328.189 220.533L333.641 222.339C334.067 220.888 334.209 219.409 335.941 219.011C339.178 219.025 342.784 218.684 346.007 218.926C347.171 219.011 348.363 219.68 348.491 220.945C348.69 222.879 347.441 224.984 347.071 226.875C347.753 227.401 348.392 227.956 348.704 228.78C349.797 231.639 347.966 238.194 346.007 240.498C344.914 241.792 343.806 242.304 342.074 242.133C341.549 242.744 341.009 243.413 340.186 243.598L330.418 243.626C329.467 243.512 328.019 242.46 328.133 241.379C327.579 241.351 327.011 241.422 326.457 241.379C325.847 241.337 325.251 241.095 324.683 241.038C323.433 240.91 321.929 240.882 320.665 240.825C320.31 240.825 319.955 240.825 319.615 240.825C318.947 242.631 318.053 244.351 317.002 245.958C316.874 246.143 316.236 246.911 316.278 247.053L318.99 249.655C319.927 250.708 320.921 251.675 321.787 252.798C321.985 252.898 322.411 252.642 322.653 252.585C325.662 251.874 328.701 254.632 327.707 257.718C327.267 259.083 324.853 260.804 323.788 261.984C322.411 263.506 319.799 267.558 317.712 267.772C315.483 268.013 313.794 266.776 313.325 264.615C309.875 261.742 306.213 259.254 302.223 257.178C301.57 256.837 299.71 255.784 299.114 255.656C297.992 255.429 296.062 255.912 294.841 255.713C289.446 255.386 283.838 254.704 279.011 252.13C278.273 251.746 277.591 251.276 276.867 250.864C273.233 253.04 268.931 255.073 264.559 254.391C261.591 253.936 259.05 251.376 257.361 249.044C257.219 248.859 256.594 247.807 256.537 247.764C256.48 247.736 255.487 247.949 255.203 247.935C253.57 247.864 252.051 246.683 251.37 245.233C249.538 241.379 254.748 240.071 257.077 238.407C258.624 237.298 261.194 234.383 262.713 233.829C264.488 233.189 265.95 234.54 266.844 235.933C267.398 236.801 267.27 237.028 267.441 237.924C267.611 238.791 268.349 238.578 268.605 237.881C268.079 230.672 271.061 223.917 275.121 218.187C273.205 217.547 271.245 216.565 269.712 215.257C269.3 214.916 268.094 213.75 267.895 213.323C267.739 212.982 267.682 212.541 267.81 212.186C268.037 211.546 268.818 211.332 269.343 210.991C270.805 210.024 271.7 207.721 271.018 206.043C269.116 205.076 267.455 203.497 266.22 201.777C265.339 200.539 264.09 198.264 264.402 196.7C264.644 195.491 266.205 195.989 267.114 195.875C268.42 195.719 269.655 194.923 270.55 193.998C269.755 193.117 268.945 192.263 268.363 191.225C267.781 190.187 267.015 188.083 267.441 186.931C267.767 186.021 268.775 186.263 269.485 186.177C271.231 185.964 273.332 184.414 274.681 183.319C274.567 182.537 274.34 181.769 274.298 180.973C274.028 176.337 275.036 173.024 278.528 169.91C280.062 168.544 283.654 166.269 285.74 166.98C286.138 167.108 287.174 168.061 287.174 168.473V170.208L287.189 170.194ZM304.481 153.286C302.862 153.372 298.461 153.784 297.283 154.879C297.027 155.121 297.027 155.249 297.283 155.49C298.291 156.5 302.465 157.055 303.927 157.154C306.525 157.339 312.104 157.154 314.291 155.732C315.071 155.22 314.39 154.865 313.836 154.595C311.522 153.457 307.064 153.158 304.495 153.286H304.481ZM296.587 153.955C294.301 154.026 291.987 154.268 289.701 153.884C289.886 154.196 291.008 154.95 290.979 155.277C290.951 155.604 288.722 157.467 288.75 157.666L290.795 159.657C290.851 159.714 290.866 159.785 290.866 159.856C290.837 160.311 288.935 161.633 288.679 162.188C288.679 162.302 290.142 163.525 290.355 163.724C290.482 163.852 290.795 164.122 290.78 164.293C290.738 164.705 288.509 166.667 288.551 166.824C289.119 167.336 289.744 167.819 290.284 168.36C290.766 168.829 290.78 168.857 290.355 169.383C289.957 169.881 289.048 170.592 288.75 171.047C288.693 171.132 288.665 171.189 288.679 171.289C290.709 172 292.896 171.801 295.011 171.772C294.898 171.317 294.713 170.933 294.67 170.45C294.33 166.113 295.04 161.335 294.741 156.941C294.954 155.732 295.664 154.751 296.587 153.969V153.955ZM315.512 156.201C315.341 156.088 314.972 156.6 314.83 156.699C312.275 158.519 304.608 158.377 301.528 157.951C299.739 157.709 297.439 157.325 296.204 155.917C296.076 155.917 295.778 156.799 295.764 156.969C295.565 158.789 295.778 161.264 295.764 163.183C295.749 165.416 295.48 168.217 295.693 170.407C295.806 171.488 296.715 172.199 297.638 172.611C301.471 174.36 310.741 174.545 314.39 172.355C316.094 171.346 315.654 170.137 315.696 168.416C315.781 165.032 315.796 161.633 315.767 158.249C315.767 157.68 315.824 157.311 315.682 156.699C315.668 156.614 315.512 156.187 315.497 156.173L315.512 156.201ZM285.272 168.914C284.945 168.516 283.753 168.985 283.341 169.156C281.283 169.966 278.954 171.801 277.776 173.678C275.476 177.318 275.547 182.964 278.557 186.191C279.835 187.571 282.049 187.77 283.795 187.343C287.842 186.376 291.192 180.944 290.795 176.877C287.813 175.981 284.917 174.161 285.158 170.621C285.187 170.222 285.513 169.184 285.272 168.9V168.914ZM331.313 182.267C331.838 179.323 331.199 176.294 329.467 173.848C328.871 173.01 327.991 172.028 327.096 171.516C326.812 171.36 326.017 170.933 325.733 171.104C325.506 171.232 325.662 171.516 325.648 171.644C325.577 172.384 325.251 173.308 324.768 173.891L324.087 174.574C325.961 175.939 327.65 177.56 329.126 179.352L331.313 182.253V182.267ZM330.575 217.205H331.767C333.244 217.205 335.118 215.741 336.055 214.674C336.239 214.461 337.219 213.252 337.105 213.039C337.077 212.996 336.438 212.641 336.296 212.513C335.487 211.83 334.734 210.309 334.734 209.242V207.024C334.337 207.152 333.67 207.251 333.641 206.654C333.613 206.085 334.237 206.057 334.621 205.858C336.381 205.005 338.071 203.867 339.15 202.203C339.419 201.791 339.987 200.739 340.03 200.284C340.03 200.198 340.058 200.156 339.973 200.099C339.859 200.013 339.107 199.828 338.866 199.715C338.241 199.416 337.559 198.79 337.119 198.25C336.935 198.023 336.182 196.785 336.097 196.743C335.955 196.672 335.444 197.24 335.103 197.255C334.536 197.283 334.365 196.7 334.763 196.302C335.231 195.833 336.083 195.349 336.637 194.837C337.985 193.586 338.951 192.05 339.363 190.23C338.028 190.159 336.764 189.448 335.7 188.68C332.321 186.248 330.546 182.594 327.891 179.508C325.279 176.465 320.594 172.796 316.619 171.971C316.15 171.872 316.321 172.028 316.065 172.313C313.623 175.114 307.774 175.1 304.324 174.943C301.4 174.815 298.191 174.574 295.806 172.697C293.918 172.796 292.016 172.754 290.127 172.725C289.446 173.052 288.665 173.308 288.012 173.678C287.927 173.735 287.586 173.891 287.6 174.019C288.339 174.73 289.332 175.185 290.284 175.555C291.121 175.882 291.788 175.683 291.888 176.749C292.328 181.726 288.026 188.211 282.802 188.58C280.005 188.78 278.244 187.855 276.754 185.58C276.64 185.409 276.285 184.627 276.143 184.641C276.058 184.641 274.965 185.566 274.752 185.708C273.176 186.831 271.331 187.884 269.343 188.04C269.4 188.936 269.868 189.874 270.337 190.628C271.643 192.69 273.701 194.027 275.945 194.908C276.285 195.093 276.342 195.69 275.945 195.861C275.547 196.032 274.738 195.591 274.355 195.406C273.801 195.136 273.276 194.766 272.722 194.539C271.047 196.33 269.016 197.895 266.404 197.738C266.745 199.089 267.568 200.383 268.449 201.45C269.968 203.298 271.657 204.322 273.929 205.033C274.312 205.161 275.49 205.317 275.646 205.63C275.774 205.858 275.746 206.199 275.49 206.341C275.036 206.611 273.531 206.014 273.006 205.858C273.559 208.488 272.424 211.489 270.01 212.754C269.953 212.84 270.394 213.252 270.493 213.337C272.14 214.873 274.624 216.025 276.754 216.679C279.48 217.518 282.376 217.888 285.201 217.39C284.378 216.807 283.441 216.366 282.575 215.826C281.836 215.357 280.601 214.575 280.019 213.949C279.579 213.48 279.835 212.811 280.516 212.968C280.644 212.996 281.794 213.992 282.035 214.176C286.323 217.291 292.981 219.736 298.063 221.258C308.229 224.273 322.042 225.055 329.765 216.452C330.134 216.039 330.66 215.186 330.986 214.887C331.313 214.589 331.852 214.66 331.909 215.129C331.98 215.726 330.859 216.693 330.546 217.205H330.575ZM328.601 228.269L313.425 224.458C304.097 224.77 295.096 221.926 286.734 218.115C284.491 218.841 282.063 218.841 279.749 218.499C279.423 218.457 277.847 218.073 277.705 218.115C277.535 218.158 276.484 219.665 276.299 219.921C273.119 224.472 270.465 230.274 270.422 235.947C270.422 236.63 270.621 237.583 270.564 238.208C270.479 239.261 268.988 240.498 267.937 240.498C266.958 240.498 266.504 239.915 265.851 239.36C263.565 241.337 261.236 243.228 258.752 244.949C258.525 245.105 257.886 245.418 257.744 245.588C257.659 245.688 257.659 245.731 257.687 245.844C259.504 249.243 262.457 252.855 266.702 252.656C270.266 252.485 273.858 250.381 276.825 248.575C277.137 248.575 278.159 249.399 278.514 249.613C285.4 253.793 296.97 255.002 304.651 252.67C308.91 251.376 312.701 248.802 315.228 245.105C313.922 245.219 312.544 245.062 311.522 244.181C310.032 242.915 309.89 240.782 310.33 238.99C309.662 238.862 308.924 238.848 308.271 238.692C307.93 238.621 307.618 238.55 307.604 238.123C307.59 237.611 308.072 237.597 308.456 237.625C310.131 237.711 312.133 238.166 313.851 238.365C317.471 238.777 321.119 239.047 324.768 239.118C324.754 237.952 325.038 236.758 325.35 235.634C326.06 233.032 327.224 230.572 328.587 228.269H328.601ZM344.715 227.771C345.283 225.638 346.177 223.576 346.56 221.414C346.518 220.974 346.177 220.86 345.78 220.831C342.869 221.002 339.732 220.618 336.85 220.831C336.197 220.874 336.069 221.073 335.827 221.656L333.811 228.183C333.811 228.453 334.266 228.681 334.45 228.894C337.119 231.809 333.939 237.967 330.986 239.687C330.83 239.773 330.078 240.085 330.049 240.128C329.922 240.299 329.879 240.967 329.95 241.18C330.063 241.536 330.759 241.763 331.114 241.792C333.741 241.621 336.637 242.019 339.221 241.792C339.888 241.735 340.2 241.45 340.484 240.882C340.527 240.782 340.74 240.313 340.74 240.256C340.74 240.156 340.484 239.673 340.441 239.474C339.689 236.687 341.095 232.136 342.685 229.776C343.21 228.994 343.849 228.254 344.686 227.785L344.715 227.771ZM333.84 224.443L324.938 221.599C323.831 222.111 322.709 222.566 321.574 222.993C321.63 223.348 321.474 225.325 321.645 225.439L329.055 227.302C330.078 227.302 331.015 227.302 332.008 227.543C332.179 227.586 332.733 227.828 332.818 227.771L333.84 224.458V224.443ZM320.495 223.277L316.477 224.13L320.495 225.126V223.277ZM325.875 239.303C330.049 240.341 332.974 237.412 334.067 233.644C335.061 230.245 333.556 228.34 330.049 228.311C329.936 228.311 329.879 228.311 329.78 228.382C329.595 228.539 328.885 229.875 328.715 230.174C327.835 231.824 327.04 233.672 326.514 235.478C326.159 236.701 325.804 238.009 325.875 239.289V239.303ZM345.68 228.553C345.027 228.624 344.189 229.577 343.806 230.089C342.315 232.108 341.038 236.175 341.421 238.663C341.492 239.161 341.719 240.071 342.273 240.185C344.346 240.611 345.396 237.952 345.964 236.417C346.603 234.668 347.824 230.629 346.646 229.051C346.418 228.738 346.078 228.51 345.68 228.553ZM256.48 245.731C256.509 245.702 256.296 245.361 256.622 245.02C259.845 243.086 262.727 240.654 265.538 238.194C265.808 237.711 265.041 236.644 264.715 236.274C264.161 235.649 263.877 235.35 263.082 235.805C261.591 236.644 259.788 238.791 258.269 239.915C256.963 240.882 255.543 241.422 254.209 242.261C253.428 242.744 252.718 243.171 253.073 244.195C253.386 245.105 254.323 245.901 255.288 245.93C255.444 245.93 256.424 245.788 256.48 245.716V245.731ZM314.901 239.531C314.475 239.545 311.508 239.019 311.409 239.175C311.352 239.246 311.252 239.886 311.238 240.028C311.04 242.645 312.147 244.209 314.887 244.024C315.157 244.01 315.98 243.896 316.136 243.711C316.221 243.612 316.96 242.247 316.889 242.19C315.171 242.759 315.199 240.654 314.901 239.531ZM317.627 239.801L315.994 239.659C316.051 239.872 316.236 241.095 316.335 241.152C316.378 241.18 316.491 241.152 316.534 241.123C316.676 241.052 317.74 239.886 317.627 239.787V239.801ZM314.433 262.994C315.611 260.207 317.556 257.519 319.742 255.457C319.898 255.301 320.622 254.789 320.637 254.632C320.651 254.462 320.154 253.865 320.012 253.68C318.394 251.561 316.307 249.755 314.39 247.921C314.106 248.162 313.836 248.504 313.538 248.774C310.202 251.888 305.872 253.865 301.343 254.476C301.343 254.561 301.442 254.59 301.499 254.618C302.479 255.23 303.813 255.784 304.864 256.367C308.271 258.273 311.423 260.52 314.418 262.994H314.433ZM323.334 254.49C321.744 254.675 319.586 257.036 318.578 258.259C317.627 259.425 315.228 262.766 315.242 264.188C315.242 265.056 316.335 265.994 317.173 265.923C318.01 265.852 319.245 264.487 319.799 263.847C321.233 262.197 322.34 260.619 323.959 259.069C324.612 258.443 325.691 257.818 325.89 256.908C326.216 255.343 324.782 254.305 323.334 254.49Z" fill="#4E4F4E"/>
<path d="M328.601 228.27C327.238 230.574 326.088 233.034 325.364 235.636C325.052 236.759 324.768 237.94 324.782 239.12C321.134 239.049 317.485 238.778 313.865 238.366C312.147 238.167 310.145 237.712 308.47 237.627C308.087 237.612 307.604 237.627 307.618 238.124C307.632 238.551 307.945 238.608 308.285 238.693C308.938 238.85 309.677 238.864 310.344 238.992C309.904 240.784 310.046 242.917 311.537 244.182C312.559 245.05 313.95 245.22 315.242 245.106C312.715 248.789 308.924 251.377 304.665 252.671C296.999 255.004 285.428 253.795 278.529 249.614C278.174 249.401 277.151 248.576 276.839 248.576C273.872 250.382 270.28 252.487 266.717 252.657C262.472 252.856 259.519 249.244 257.702 245.846C257.673 245.732 257.673 245.689 257.758 245.59C257.9 245.433 258.539 245.106 258.766 244.95C261.251 243.229 263.579 241.338 265.865 239.361C266.518 239.916 266.972 240.499 267.938 240.499C268.988 240.499 270.479 239.262 270.564 238.21C270.621 237.598 270.422 236.631 270.422 235.949C270.465 230.275 273.105 224.487 276.3 219.923C276.484 219.653 277.535 218.159 277.705 218.117C277.833 218.088 279.423 218.458 279.749 218.501C282.078 218.856 284.491 218.842 286.734 218.117C295.096 221.928 304.097 224.772 313.425 224.459L328.587 228.27H328.601Z" fill="#C8E3F2"/>
<path d="M330.575 217.205C330.887 216.693 332.009 215.726 331.938 215.129C331.881 214.66 331.341 214.589 331.015 214.887C330.688 215.186 330.163 216.039 329.794 216.452C322.071 225.055 308.257 224.273 298.092 221.258C293.009 219.751 286.351 217.291 282.064 214.176C281.808 213.992 280.672 213.01 280.544 212.968C279.849 212.811 279.607 213.48 280.048 213.949C280.63 214.575 281.865 215.357 282.603 215.826C283.469 216.381 284.406 216.807 285.229 217.39C282.404 217.888 279.508 217.518 276.782 216.679C274.653 216.025 272.154 214.873 270.521 213.337C270.436 213.252 269.982 212.84 270.039 212.754C272.466 211.503 273.588 208.488 273.034 205.858C273.56 206.014 275.064 206.611 275.519 206.341C275.76 206.199 275.788 205.872 275.675 205.63C275.519 205.317 274.34 205.161 273.957 205.033C271.686 204.322 269.996 203.298 268.477 201.45C267.597 200.383 266.773 199.089 266.433 197.738C269.045 197.895 271.061 196.33 272.75 194.539C273.304 194.766 273.815 195.15 274.383 195.406C274.766 195.591 275.575 196.018 275.973 195.861C276.371 195.705 276.314 195.107 275.973 194.908C273.73 194.027 271.671 192.704 270.365 190.628C269.897 189.874 269.428 188.936 269.371 188.04C271.345 187.884 273.19 186.831 274.78 185.708C274.979 185.566 276.072 184.641 276.172 184.641C276.3 184.641 276.669 185.409 276.782 185.58C278.287 187.869 280.033 188.78 282.844 188.58C288.069 188.211 292.385 181.726 291.93 176.749C291.831 175.683 291.164 175.882 290.326 175.555C289.375 175.185 288.381 174.73 287.643 174.019C287.615 173.905 287.955 173.735 288.055 173.678C288.693 173.308 289.489 173.052 290.17 172.725C292.072 172.754 293.961 172.796 295.849 172.697C298.234 174.574 301.442 174.815 304.367 174.943C307.817 175.1 313.666 175.128 316.108 172.313C316.349 172.028 316.193 171.872 316.662 171.971C320.637 172.81 325.322 176.479 327.934 179.508C330.589 182.594 332.349 186.248 335.742 188.68C336.807 189.448 338.085 190.159 339.405 190.23C339.008 192.05 338.028 193.586 336.679 194.837C336.126 195.349 335.274 195.833 334.805 196.302C334.408 196.7 334.578 197.283 335.146 197.255C335.487 197.24 335.998 196.672 336.14 196.743C336.225 196.785 336.977 198.023 337.162 198.25C337.602 198.79 338.284 199.402 338.908 199.715C339.164 199.843 339.902 200.013 340.016 200.099C340.101 200.156 340.087 200.198 340.072 200.284C340.016 200.739 339.448 201.791 339.192 202.203C338.113 203.867 336.424 205.005 334.663 205.858C334.266 206.043 333.655 206.085 333.684 206.654C333.712 207.266 334.379 207.166 334.777 207.024V209.242C334.777 210.309 335.529 211.83 336.339 212.513C336.481 212.641 337.119 212.996 337.148 213.039C337.276 213.252 336.296 214.461 336.097 214.674C335.16 215.741 333.286 217.205 331.81 217.205H330.617H330.575ZM323.831 191.751H322.837C320.878 191.751 319.345 189.576 318.635 187.983C318.465 187.613 318.252 186.661 317.953 186.476C317.528 186.22 317.102 186.547 317.13 187.016L318.223 194.14C316.747 194.012 315.171 193.685 313.822 193.06C310.77 191.638 309.109 187.941 308.044 184.926C307.916 184.741 307.646 184.67 307.434 184.713C307.292 184.741 307.249 184.869 307.135 184.897C305.815 185.281 304.566 185.452 303.217 185.95C291.575 190.287 287.7 207.123 297.481 215.414C304.623 221.457 316.236 221.983 324.3 217.518C328.346 215.271 330.546 212.299 331.583 207.763C333.215 200.696 331.583 191.794 325.08 187.756C324.569 187.443 322.937 186.291 322.908 187.542C323.107 188.95 323.576 190.33 323.803 191.737L323.831 191.751Z" fill="#C8E3F2"/>
<path d="M315.512 156.201C315.54 156.215 315.682 156.656 315.696 156.727C315.838 157.325 315.781 157.709 315.781 158.277C315.81 161.662 315.81 165.06 315.71 168.445C315.668 170.165 316.094 171.374 314.404 172.384C310.756 174.559 301.485 174.374 297.652 172.64C296.729 172.213 295.806 171.516 295.707 170.436C295.494 168.246 295.749 165.444 295.778 163.212C295.792 161.306 295.579 158.832 295.778 156.998C295.792 156.827 296.104 155.945 296.218 155.945C297.453 157.353 299.753 157.737 301.542 157.979C304.623 158.391 312.289 158.548 314.844 156.727C314.986 156.628 315.355 156.116 315.526 156.23L315.512 156.201ZM311.068 159.031C310.741 158.732 310.245 158.917 310.145 159.33C310.074 159.614 310.088 161.178 310.145 161.491C310.245 162.103 311.096 162.103 311.21 161.548C311.281 161.235 311.267 159.728 311.224 159.372C311.21 159.259 311.153 159.102 311.068 159.017V159.031ZM310.458 162.501C310.344 162.529 310.159 162.742 310.145 162.87C310.202 163.539 309.989 164.25 310.074 164.918C310.174 165.729 311.082 165.757 311.21 165.032C311.281 164.648 311.267 163.468 311.224 163.07C311.182 162.643 310.912 162.373 310.458 162.501ZM310.23 168.871C310.528 169.184 311.096 169.028 311.153 168.587C311.068 167.961 311.295 167.208 311.224 166.625C311.111 165.743 310.188 165.786 310.088 166.553C310.032 166.952 310.032 168.047 310.088 168.459C310.103 168.587 310.159 168.786 310.245 168.886L310.23 168.871ZM311.011 169.597C310.713 169.298 310.174 169.497 310.088 169.895C310.017 170.18 310.032 171.744 310.088 172.057C310.188 172.682 311.04 172.64 311.153 172.113C311.224 171.801 311.21 170.379 311.167 170.009C311.167 169.895 311.082 169.668 311.011 169.582V169.597Z" fill="white"/>
<path d="M285.272 168.915C285.499 169.214 285.187 170.238 285.158 170.636C284.917 174.177 287.813 175.997 290.795 176.893C291.178 180.96 287.828 186.392 283.796 187.359C282.049 187.771 279.82 187.572 278.557 186.207C275.547 182.965 275.49 177.334 277.776 173.693C278.954 171.816 281.283 169.982 283.341 169.171C283.753 169.001 284.946 168.531 285.272 168.929V168.915Z" fill="#AECDC5"/>
<path d="M344.715 227.772C343.892 228.241 343.239 228.981 342.713 229.763C341.123 232.123 339.732 236.674 340.47 239.461C340.527 239.66 340.768 240.143 340.768 240.243C340.768 240.342 340.555 240.783 340.513 240.869C340.229 241.437 339.902 241.722 339.249 241.779C336.665 242.006 333.755 241.608 331.143 241.779C330.802 241.75 330.092 241.523 329.979 241.167C329.908 240.954 329.95 240.286 330.078 240.115C330.106 240.072 330.859 239.759 331.015 239.674C333.968 237.953 337.148 231.796 334.479 228.881C334.28 228.668 333.826 228.44 333.84 228.17L335.856 221.643C336.097 221.06 336.225 220.861 336.878 220.818C339.76 220.605 342.898 220.989 345.808 220.818C346.191 220.847 346.546 220.961 346.589 221.401C346.206 223.563 345.297 225.625 344.743 227.758L344.715 227.772Z" fill="#9DAFB2"/>
<path d="M314.433 262.995C311.437 260.521 308.286 258.26 304.878 256.369C303.828 255.786 302.493 255.231 301.514 254.62C301.457 254.577 301.357 254.548 301.357 254.477C305.886 253.88 310.216 251.903 313.553 248.775C313.837 248.505 314.106 248.164 314.404 247.922C316.321 249.756 318.408 251.562 320.026 253.681C320.168 253.866 320.665 254.463 320.651 254.634C320.651 254.79 319.927 255.302 319.757 255.458C317.556 257.535 315.625 260.208 314.447 262.995H314.433Z" fill="#C8E3F2"/>
<path d="M296.587 153.954C295.679 154.737 294.954 155.718 294.742 156.926C295.04 161.32 294.33 166.098 294.671 170.435C294.713 170.919 294.898 171.303 295.011 171.758C292.896 171.786 290.71 172 288.679 171.274C288.651 171.175 288.679 171.118 288.75 171.033C289.049 170.578 289.957 169.852 290.355 169.369C290.781 168.829 290.781 168.814 290.284 168.345C289.73 167.805 289.12 167.335 288.552 166.809C288.509 166.639 290.738 164.691 290.781 164.278C290.795 164.108 290.482 163.823 290.355 163.709C290.142 163.51 288.679 162.287 288.679 162.174C288.921 161.633 290.837 160.297 290.866 159.842C290.866 159.756 290.866 159.699 290.795 159.642L288.75 157.652C288.722 157.453 290.951 155.59 290.979 155.263C291.008 154.936 289.886 154.182 289.702 153.869C291.973 154.253 294.287 154.011 296.587 153.94V153.954Z" fill="white"/>
<path d="M325.876 239.303C325.805 238.023 326.16 236.715 326.514 235.492C327.04 233.686 327.821 231.837 328.715 230.188C328.885 229.875 329.595 228.553 329.78 228.396C329.879 228.311 329.936 228.325 330.05 228.325C333.556 228.339 335.061 230.259 334.067 233.658C332.974 237.412 330.05 240.355 325.876 239.317V239.303Z" fill="white"/>
<path d="M323.334 254.491C324.782 254.32 326.216 255.358 325.89 256.908C325.691 257.818 324.612 258.444 323.959 259.07C322.34 260.62 321.247 262.198 319.799 263.848C319.231 264.488 318.039 265.853 317.173 265.924C316.307 265.995 315.242 265.056 315.242 264.189C315.242 262.753 317.641 259.411 318.578 258.259C319.586 257.036 321.744 254.676 323.334 254.491Z" fill="white"/>
<path d="M256.481 245.731C256.438 245.802 255.459 245.944 255.288 245.944C254.309 245.916 253.372 245.119 253.073 244.209C252.733 243.186 253.428 242.759 254.209 242.275C255.544 241.436 256.963 240.896 258.27 239.929C259.803 238.806 261.592 236.659 263.082 235.82C263.877 235.379 264.161 235.677 264.715 236.289C265.041 236.659 265.822 237.725 265.538 238.209C262.713 240.669 259.831 243.1 256.623 245.034C256.296 245.361 256.509 245.717 256.481 245.745V245.731Z" fill="white"/>
<path d="M333.84 224.444L332.818 227.757C332.733 227.814 332.179 227.573 332.008 227.53C331 227.302 330.078 227.288 329.056 227.288L321.645 225.425C321.489 225.312 321.645 223.321 321.574 222.98C322.709 222.567 323.831 222.098 324.938 221.586L333.84 224.444Z" fill="#C8E3F2"/>
<path d="M345.68 228.554C346.078 228.511 346.418 228.739 346.645 229.052C347.824 230.644 346.617 234.683 345.964 236.418C345.396 237.953 344.346 240.613 342.273 240.186C341.705 240.072 341.492 239.148 341.421 238.664C341.052 236.176 342.315 232.109 343.806 230.09C344.189 229.578 345.027 228.625 345.68 228.554Z" fill="white"/>
<path d="M304.48 153.287C307.05 153.159 311.508 153.458 313.822 154.596C314.376 154.866 315.057 155.235 314.276 155.733C312.09 157.155 306.511 157.34 303.913 157.155C302.45 157.056 298.276 156.501 297.268 155.491C297.027 155.235 297.013 155.122 297.268 154.88C298.447 153.785 302.848 153.373 304.466 153.287H304.48ZM304.821 154.311C304.31 154.354 302.649 154.567 302.379 155.008C302.138 155.406 302.55 155.563 302.862 155.69C304.211 156.259 307.519 156.302 308.867 155.705C310.117 155.164 308.839 154.681 308.172 154.524C307.135 154.283 305.872 154.226 304.821 154.311Z" fill="white"/>
<path d="M331.313 182.267L329.127 179.366C327.65 177.575 325.975 175.953 324.087 174.588L324.768 173.906C325.237 173.323 325.563 172.398 325.648 171.659C325.648 171.531 325.506 171.247 325.734 171.119C326.017 170.948 326.812 171.36 327.096 171.531C327.991 172.043 328.871 173.038 329.467 173.863C331.199 176.309 331.838 179.338 331.313 182.281V182.267Z" fill="#AECDC5"/>
<path d="M314.901 239.531C315.185 240.64 315.171 242.745 316.889 242.19C316.946 242.247 316.222 243.612 316.136 243.712C315.98 243.911 315.157 244.01 314.887 244.025C312.147 244.209 311.04 242.645 311.238 240.029C311.238 239.887 311.352 239.261 311.409 239.176C311.522 239.019 314.475 239.545 314.901 239.531Z" fill="white"/>
<path d="M320.495 223.277V225.126L316.477 224.131L320.495 223.277Z" fill="#C8E3F2"/>
<path d="M317.627 239.802C317.741 239.901 316.69 241.053 316.534 241.138C316.477 241.167 316.364 241.195 316.335 241.167C316.236 241.096 316.051 239.873 315.994 239.674L317.627 239.816V239.802Z" fill="#C8E3F2"/>
<path d="M323.831 191.753C323.604 190.345 323.135 188.966 322.937 187.558C322.979 186.307 324.612 187.458 325.109 187.771C331.611 191.81 333.23 200.711 331.611 207.779C330.561 212.315 328.374 215.287 324.328 217.534C316.264 222.013 304.651 221.473 297.51 215.429C287.728 207.153 291.618 190.302 303.246 185.965C304.58 185.468 305.844 185.297 307.164 184.913C307.263 184.885 307.32 184.757 307.462 184.728C307.675 184.686 307.945 184.742 308.072 184.941C309.137 187.956 310.798 191.653 313.851 193.075C315.199 193.701 316.775 194.028 318.252 194.156L317.159 187.032C317.116 186.563 317.556 186.235 317.982 186.491C318.28 186.676 318.493 187.629 318.663 187.999C319.373 189.591 320.907 191.767 322.866 191.767H323.86L323.831 191.753ZM318.791 190.459C318.876 191.753 319.373 193.232 319.402 194.512C319.402 194.952 319.331 195.279 318.82 195.294C317.457 195.351 314.859 194.682 313.595 194.128C310.401 192.72 308.541 189.307 307.363 186.179C307.249 185.894 306.837 186.079 306.596 186.122C299.256 187.586 294.188 193.26 293.194 200.669C290.852 218.188 313.226 224.047 325.308 215.657C330.305 212.187 331.625 205.859 330.972 200.057C330.447 195.478 328.459 190.914 324.342 188.553C324.229 188.539 324.229 188.553 324.243 188.653C324.385 189.776 324.91 191.056 325.066 192.208C325.095 193.061 323.576 192.89 322.994 192.848C321.176 192.706 319.927 191.824 318.805 190.459H318.791Z" fill="#4E4F4E"/>
<path d="M310.457 162.501C310.912 162.373 311.181 162.643 311.224 163.069C311.267 163.468 311.281 164.648 311.21 165.032C311.082 165.743 310.159 165.714 310.074 164.918C309.989 164.25 310.216 163.539 310.145 162.87C310.173 162.757 310.358 162.543 310.457 162.501Z" fill="#4E4F4E"/>
<path d="M310.23 168.872C310.145 168.786 310.088 168.573 310.074 168.445C310.032 168.033 310.032 166.938 310.074 166.54C310.188 165.758 311.111 165.729 311.21 166.611C311.281 167.208 311.054 167.947 311.139 168.573C311.082 169.014 310.5 169.185 310.216 168.857L310.23 168.872Z" fill="#4E4F4E"/>
<path d="M311.068 159.031C311.153 159.102 311.21 159.273 311.224 159.387C311.267 159.728 311.281 161.25 311.21 161.562C311.082 162.117 310.231 162.103 310.145 161.505C310.103 161.193 310.089 159.628 310.145 159.344C310.231 158.932 310.742 158.747 311.068 159.045V159.031Z" fill="#4E4F4E"/>
<path d="M311.011 169.596C311.082 169.667 311.153 169.909 311.167 170.023C311.21 170.393 311.224 171.815 311.153 172.128C311.04 172.654 310.174 172.696 310.088 172.071C310.046 171.758 310.032 170.194 310.088 169.909C310.174 169.511 310.713 169.312 311.011 169.611V169.596Z" fill="#4E4F4E"/>
<path d="M304.821 154.31C305.872 154.239 307.135 154.282 308.172 154.524C308.839 154.68 310.117 155.164 308.868 155.704C307.519 156.287 304.211 156.259 302.862 155.69C302.564 155.562 302.138 155.405 302.38 155.007C302.649 154.566 304.31 154.353 304.821 154.31Z" fill="#4E4F4E"/>
<path d="M318.791 190.459C319.913 191.824 321.162 192.706 322.979 192.848C323.576 192.891 325.081 193.061 325.052 192.208C324.896 191.056 324.371 189.776 324.229 188.653C324.229 188.539 324.229 188.539 324.328 188.554C328.445 190.914 330.447 195.479 330.958 200.058C331.611 205.859 330.291 212.187 325.293 215.657C313.212 224.047 290.823 218.188 293.18 200.669C294.174 193.26 299.242 187.587 306.582 186.122C306.823 186.079 307.235 185.894 307.348 186.179C308.513 189.307 310.387 192.734 313.581 194.128C314.859 194.682 317.443 195.351 318.805 195.294C319.317 195.28 319.402 194.953 319.388 194.512C319.359 193.232 318.848 191.753 318.777 190.459H318.791ZM305.844 198.052C302.067 198.408 302.436 207.779 306.454 206.584C308.768 205.902 308.995 201.465 308.186 199.631C307.789 198.721 306.88 197.967 305.844 198.052ZM323.675 198.052C320.58 198.294 320.325 205.717 323.093 206.584C326.926 207.793 327.565 197.74 323.675 198.052ZM316.662 205.433C316.108 205.447 314.802 205.546 314.66 206.229C314.447 207.31 316.775 207.438 317.457 207.395C318.096 207.338 319.444 206.997 319.146 206.115C318.919 205.433 317.272 205.418 316.662 205.433Z" fill="white"/>
<path d="M305.844 198.052C306.88 197.952 307.789 198.72 308.186 199.63C308.995 201.464 308.782 205.901 306.454 206.584C302.422 207.778 302.067 198.407 305.844 198.052ZM305.56 199.346C304.055 199.587 304.381 201.877 305.872 201.706C307.448 201.536 307.135 199.09 305.56 199.346Z" fill="#4E4F4E"/>
<path d="M323.675 198.052C327.565 197.739 326.926 207.793 323.093 206.584C320.324 205.717 320.58 198.294 323.675 198.052ZM323.405 199.346C321.9 199.588 322.227 201.877 323.717 201.707C325.293 201.536 324.981 199.09 323.405 199.346Z" fill="#4E4F4E"/>
<path d="M316.662 205.432C317.272 205.418 318.905 205.432 319.146 206.115C319.444 206.997 318.096 207.338 317.457 207.395C316.775 207.452 314.447 207.324 314.66 206.229C314.802 205.546 316.108 205.447 316.662 205.432Z" fill="#4E4F4E"/>
<path d="M305.559 199.345C307.135 199.089 307.448 201.549 305.872 201.705C304.296 201.862 304.055 199.572 305.559 199.345Z" fill="white"/>
<path d="M323.405 199.345C324.981 199.089 325.293 201.549 323.717 201.705C322.142 201.862 321.9 199.572 323.405 199.345Z" fill="white"/>
<defs>
<filter id="filter0_f_12_3277" x="229.076" y="258.322" width="114.55" height="15.8055" filterUnits="userSpaceOnUse" color-interpolation-filters="sRGB">
<feFlood flood-opacity="0" result="BackgroundImageFix"/>
<feBlend mode="normal" in="SourceGraphic" in2="BackgroundImageFix" result="shape"/>
<feGaussianBlur stdDeviation="1.53438" result="effect1_foregroundBlur_12_3277"/>
</filter>
</defs>
</svg>
