<svg width="160" height="164" viewBox="0 0 160 164" fill="none" xmlns="http://www.w3.org/2000/svg">
<g opacity="0.2" filter="url(#filter0_f_234_6982)">
<ellipse cx="74.6554" cy="153.011" rx="70.6554" ry="6.30048" fill="#4C4C4C"/>
</g>
<path d="M75.7505 27.8404C76.065 27.4883 76.8608 26.821 77.0828 26.4688C77.1568 26.3576 77.1939 26.2649 77.1754 26.1166C77.1754 26.0425 76.2501 25.3567 76.102 25.2084C75.5469 24.6709 74.6031 23.948 74.7882 23.0954C74.9547 22.3355 76.9533 21.038 77.3419 20.2225C77.3419 20.0186 75.1028 18.3689 74.8992 17.6831C74.7697 17.2754 74.8437 17.0159 75.0843 16.7008C75.4914 16.1632 76.4166 15.3477 76.9533 14.8287C77.1013 14.6804 77.4529 14.5507 77.4529 14.3468C77.4159 14.1058 77.1568 14.0502 77.0088 13.902C76.6017 13.5127 75.1398 12.1226 75.0102 11.7333C74.8992 11.3997 74.9547 11.1773 75.1398 10.8807C75.4359 10.4729 77.6195 8.56382 77.6195 8.397C76.8238 7.47024 74.9732 6.48788 74.8622 5.20895C74.7697 4.17098 75.2323 3.41104 76.3056 3.31836C78.5077 4.09684 80.7283 4.56022 83.0785 4.54168C91.7944 4.48608 100.529 2.0765 109.208 4.31926C111.873 5.00506 115.148 6.96979 115.426 10.0096C115.796 14.1058 115.148 18.7582 115.426 22.9101C115.24 24.5597 115.37 26.2464 115.352 27.9146C116.647 28.3409 117.979 28.7486 119.219 29.3418C120.385 29.8793 121.44 30.6392 122.569 31.2324C122.865 31.2138 123.216 30.25 123.272 29.972C123.568 28.8413 122.994 27.896 123.975 26.9507C126.27 24.7265 130.507 28.3038 132.062 30.0646C135.023 33.4566 136.151 37.7382 135.929 42.2052C135.892 42.8169 135.541 44.6518 135.707 45.0967C135.855 45.4674 137.41 47.2468 137.78 47.636C139.186 49.1374 141.98 51.3616 144.053 51.584C144.867 51.6767 146.089 51.306 146.292 52.4552C146.644 54.4755 145.33 57.6265 144.164 59.2761C143.535 60.1658 142.721 60.8701 142.054 61.6857C142.665 62.9275 143.498 63.8914 144.849 64.3177C145.959 64.6699 147.051 64.4289 147.217 65.9488C147.569 69.3407 144.275 72.9365 141.795 74.8457C141.481 75.0866 140.445 75.6242 140.389 75.9207C140.296 76.347 140.333 77.663 140.389 78.1449C140.463 78.8863 140.833 80.2765 141.37 80.814C142.314 81.7408 144.109 81.4257 144.035 83.1309C143.905 85.5034 140.278 89.1919 138.335 90.4152C136.151 91.8054 133.746 91.9722 131.21 91.7312L129.193 93.455L136.299 95.809C136.855 93.9184 137.04 91.9907 139.297 91.4717C143.516 91.4903 148.217 91.0454 152.417 91.3605C153.935 91.4717 155.489 92.3429 155.656 93.9925C155.915 96.5133 154.286 99.2565 153.805 101.722C154.694 102.408 155.526 103.13 155.933 104.205C157.358 107.931 154.971 116.476 152.417 119.478C150.992 121.165 149.549 121.832 147.291 121.61C146.607 122.407 145.904 123.278 144.83 123.519L132.099 123.556C130.859 123.408 128.971 122.036 129.119 120.628C128.398 120.591 127.657 120.683 126.936 120.628C126.14 120.572 125.363 120.257 124.623 120.183C122.994 120.016 121.033 119.979 119.386 119.905C118.923 119.905 118.46 119.905 118.016 119.905C117.147 122.259 115.981 124.501 114.611 126.596C114.445 126.837 113.612 127.838 113.668 128.023L117.202 131.415C118.423 132.787 119.719 134.047 120.848 135.511C121.107 135.641 121.662 135.307 121.976 135.233C125.899 134.307 129.86 137.902 128.564 141.925C127.991 143.704 124.845 145.947 123.457 147.485C121.662 149.468 118.257 154.751 115.537 155.029C112.631 155.344 110.429 153.731 109.818 150.914C105.322 147.17 100.547 143.926 95.3474 141.22C94.4962 140.775 92.072 139.404 91.2948 139.237C89.8329 138.94 87.3162 139.571 85.7247 139.311C78.6928 138.885 71.3832 137.995 65.0915 134.64C64.1292 134.14 63.241 133.528 62.2972 132.991C57.5599 135.826 51.9528 138.477 46.2532 137.587C42.3856 136.994 39.0732 133.658 36.8711 130.618C36.686 130.377 35.8718 129.006 35.7978 128.95C35.7238 128.913 34.4284 129.191 34.0583 129.172C31.9302 129.08 29.9502 127.541 29.0619 125.651C26.6747 120.628 33.4661 118.922 36.501 116.754C38.518 115.308 41.8675 111.508 43.8475 110.785C46.1607 109.951 48.0667 111.712 49.2325 113.529C49.9542 114.659 49.7877 114.956 50.0098 116.124C50.2318 117.254 51.1941 116.976 51.5272 116.068C50.8425 106.671 54.7286 97.8664 60.0211 90.3967C57.5229 89.5626 54.9691 88.2837 52.9706 86.5785C52.4339 86.1336 50.861 84.6137 50.6019 84.0577C50.3984 83.6128 50.3243 83.0382 50.4909 82.5749C50.787 81.7408 51.8048 81.4627 52.4894 81.0179C54.3955 79.7575 55.5613 76.7548 54.6731 74.5676C52.1934 73.3073 50.0283 71.2498 48.4183 69.0071C47.271 67.3945 45.6425 64.4289 46.0496 62.39C46.3642 60.8145 48.3998 61.4633 49.5841 61.315C51.2866 61.1111 52.8966 60.0731 54.0624 58.8683C53.0261 57.7192 51.9713 56.607 51.2126 55.254C50.4539 53.9009 49.4546 51.1577 50.0098 49.6563C50.4354 48.4701 51.7492 48.7852 52.6745 48.674C54.9506 48.396 57.6894 46.3756 59.4474 44.9484C59.2994 43.929 59.0033 42.9281 58.9478 41.8901C58.5962 35.8476 59.91 31.5289 64.4623 27.4697C66.4609 25.6903 71.1427 22.7247 73.8629 23.6515C74.3811 23.8183 75.7319 25.0601 75.7319 25.5977V27.859L75.7505 27.8404ZM98.2897 5.80208C96.1802 5.91329 90.4436 6.45081 88.9076 7.87802C88.5745 8.19312 88.5745 8.35993 88.9076 8.67503C90.2215 9.99103 95.662 10.7139 97.568 10.8436C100.954 11.0846 108.227 10.8436 111.077 8.99013C112.095 8.32286 111.206 7.85948 110.485 7.50731C107.468 6.0245 101.658 5.63526 98.3083 5.80208H98.2897ZM88.0009 6.67323C85.0215 6.76591 82.0052 7.081 79.0259 6.58055C79.2664 6.98833 80.7283 7.97069 80.6913 8.397C80.6543 8.82331 77.749 11.2514 77.786 11.5109L80.4508 14.1058C80.5248 14.18 80.5433 14.2727 80.5433 14.3653C80.5063 14.9585 78.0266 16.6822 77.6935 17.4051C77.6935 17.5534 79.5995 19.1474 79.8771 19.4069C80.0436 19.5737 80.4508 19.9259 80.4323 20.1483C80.3767 20.6858 77.4714 23.2437 77.5269 23.4476C78.2672 24.1148 79.0814 24.745 79.7846 25.4494C80.4138 26.061 80.4323 26.0981 79.8771 26.7839C79.359 27.4326 78.1746 28.3594 77.786 28.9525C77.712 29.0637 77.675 29.1379 77.6935 29.2676C80.3397 30.1944 83.1895 29.9349 85.9468 29.8978C85.7988 29.3047 85.5582 28.8043 85.5027 28.1741C85.0586 22.5208 85.9838 16.293 85.5952 10.5656C85.8728 8.99013 86.798 7.7112 88.0009 6.69176V6.67323ZM112.668 9.60179C112.446 9.45351 111.965 10.1208 111.78 10.2505C108.449 12.623 98.4563 12.4377 94.4407 11.8816C92.109 11.5665 89.1112 11.0661 87.5012 9.23109C87.3347 9.23109 86.9461 10.3803 86.9276 10.6027C86.6685 12.9752 86.9461 16.2003 86.9276 18.7026C86.9091 21.6126 86.5575 25.264 86.835 28.1185C86.9831 29.5271 88.1674 30.4539 89.3703 30.9914C94.3667 33.2712 106.451 33.5122 111.206 30.6578C113.427 29.3418 112.853 27.7663 112.909 25.5235C113.02 21.1121 113.038 16.6822 113.001 12.2709C113.001 11.5294 113.075 11.0475 112.89 10.2505C112.872 10.1393 112.668 9.58325 112.65 9.56472L112.668 9.60179ZM73.2523 26.1723C72.8266 25.6533 71.2722 26.2649 70.7355 26.4874C68.0523 27.5439 65.0174 29.9349 63.4815 32.3815C60.4837 37.1266 60.5762 44.485 64.4993 48.6925C66.1648 50.4904 69.0516 50.7499 71.3277 50.1939C76.6017 48.9335 80.9689 41.853 80.4508 36.552C76.5647 35.3842 72.7896 33.0117 73.1042 28.3965C73.1412 27.8775 73.5668 26.5244 73.2523 26.1537V26.1723ZM133.265 43.5768C133.949 39.74 133.116 35.792 130.859 32.604C130.082 31.5104 128.934 30.2315 127.768 29.5642C127.398 29.3603 126.362 28.8043 125.992 29.0267C125.696 29.1935 125.899 29.5642 125.881 29.731C125.788 30.6948 125.363 31.8996 124.734 32.6596L123.845 33.5493C126.288 35.3286 128.49 37.4417 130.415 39.7771L133.265 43.5583V43.5768ZM132.302 89.1178H133.857C135.781 89.1178 138.224 87.2086 139.445 85.8185C139.686 85.5405 140.963 83.965 140.815 83.687C140.778 83.6314 139.945 83.168 139.76 83.0012C138.705 82.1115 137.724 80.1282 137.724 78.7381V75.8466C137.206 76.0134 136.336 76.1431 136.299 75.3647C136.262 74.6233 137.077 74.5862 137.576 74.3267C139.871 73.2146 142.073 71.7318 143.479 69.5631C143.831 69.0256 144.571 67.654 144.627 67.0609C144.627 66.9497 144.664 66.8941 144.553 66.8199C144.405 66.7087 143.424 66.4678 143.109 66.3195C142.295 65.9302 141.407 65.1147 140.833 64.4104C140.593 64.1138 139.612 62.5012 139.501 62.4456C139.316 62.353 138.65 63.0944 138.205 63.1129C137.465 63.15 137.243 62.39 137.761 61.871C138.372 61.2594 139.482 60.6292 140.204 59.9619C141.962 58.3308 143.22 56.329 143.757 53.9565C142.017 53.8638 140.371 52.9371 138.983 51.9362C134.578 48.7667 132.265 44.0031 128.805 39.981C125.4 36.0144 119.293 31.2324 114.112 30.1573C113.501 30.0276 113.723 30.2315 113.39 30.6022C110.207 34.2536 102.583 34.2351 98.0862 34.0312C94.2741 33.8644 90.092 33.5493 86.9831 31.1026C84.5219 31.2324 82.0422 31.1768 79.581 31.1397C78.6928 31.566 77.675 31.8996 76.8237 32.3815C76.7127 32.4557 76.2686 32.6596 76.2871 32.8264C77.2494 33.7531 78.5447 34.3463 79.7846 34.8282C80.8764 35.2545 81.7461 34.995 81.8757 36.3851C82.4493 42.8725 76.8423 51.3245 70.0324 51.8064C66.3868 52.0659 64.0922 50.8611 62.1491 47.8955C62.0011 47.6731 61.5385 46.6536 61.3534 46.6722C61.2424 46.6722 59.8175 47.877 59.5399 48.0623C57.4858 49.5266 55.0802 50.8982 52.4894 51.1021C52.5635 52.2698 53.1741 53.4931 53.7848 54.4755C55.4873 57.1631 58.1705 58.9054 61.0944 60.0546C61.5385 60.2955 61.6125 61.074 61.0944 61.2964C60.5762 61.5189 59.5214 60.9443 59.0218 60.7033C58.3001 60.3512 57.6154 59.8692 56.8937 59.5727C54.7101 61.9081 52.0638 63.947 48.6589 63.7431C49.103 65.5039 50.1763 67.1906 51.3236 68.5808C53.3037 70.9904 55.5058 72.3249 58.4666 73.2516C58.9663 73.4185 60.5022 73.6224 60.7057 74.0301C60.8723 74.3267 60.8353 74.7715 60.5022 74.9569C59.91 75.3091 57.9485 74.5306 57.2638 74.3267C57.9855 77.7557 56.5051 81.6666 53.3592 83.3163C53.2852 83.4275 53.8588 83.965 53.9884 84.0762C56.135 86.078 59.3734 87.5794 62.1491 88.432C65.7021 89.5256 69.4772 90.0075 73.1597 89.3587C72.0864 88.5988 70.8651 88.0242 69.7363 87.3199C68.774 86.7082 67.1641 85.6888 66.4053 84.8732C65.8317 84.2616 66.1648 83.3904 67.053 83.5943C67.2196 83.6314 68.7185 84.9288 69.0331 85.1698C74.6216 89.229 83.3006 92.417 89.9254 94.4003C103.175 98.3298 121.181 99.3492 131.247 88.1354C131.729 87.5979 132.413 86.4858 132.839 86.0965C133.265 85.7073 133.968 85.8 134.042 86.4116C134.134 87.1901 132.672 88.4505 132.265 89.1178H132.302ZM129.73 103.538L109.948 98.5707C97.7901 98.9785 86.0578 95.2715 75.1583 90.304C72.2345 91.2493 69.0701 91.2493 66.0537 90.8045C65.6281 90.7489 63.574 90.2484 63.389 90.304C63.1669 90.3596 61.7976 92.3244 61.557 92.658C57.4118 98.5893 53.9514 106.152 53.8958 113.547C53.8958 114.437 54.1549 115.679 54.0809 116.494C53.9699 117.866 52.0268 119.478 50.6574 119.478C49.3806 119.478 48.7884 118.718 47.9372 117.996C44.9578 120.572 41.923 123.037 38.6846 125.28C38.3885 125.484 37.5558 125.892 37.3707 126.114C37.2597 126.244 37.2597 126.299 37.2967 126.448C39.6654 130.878 43.5144 135.585 49.0475 135.326C53.6923 135.104 58.3741 132.36 62.2417 130.006C62.6488 130.006 63.9812 131.081 64.4438 131.359C73.4188 136.809 88.5005 138.384 98.5118 135.345C104.063 133.658 109.004 130.303 112.298 125.484C110.596 125.632 108.801 125.428 107.468 124.279C105.525 122.629 105.34 119.849 105.914 117.514C105.044 117.347 104.082 117.328 103.231 117.124C102.787 117.032 102.379 116.939 102.361 116.383C102.342 115.716 102.972 115.697 103.471 115.734C105.655 115.846 108.264 116.439 110.503 116.698C115.222 117.236 119.978 117.588 124.734 117.681C124.715 116.161 125.085 114.604 125.492 113.139C126.418 109.747 127.935 106.541 129.712 103.538H129.73ZM150.733 102.889C151.474 100.109 152.639 97.4215 153.139 94.6042C153.084 94.0296 152.639 93.8813 152.121 93.8442C148.328 94.0667 144.238 93.5662 140.482 93.8442C139.63 93.8998 139.464 94.1593 139.149 94.9193L136.521 103.427C136.521 103.779 137.114 104.076 137.354 104.354C140.833 108.153 136.688 116.179 132.839 118.422C132.635 118.533 131.655 118.941 131.618 118.996C131.451 119.219 131.396 120.09 131.488 120.368C131.636 120.831 132.543 121.128 133.005 121.165C136.429 120.943 140.204 121.462 143.572 121.165C144.442 121.091 144.849 120.72 145.219 119.979C145.274 119.849 145.552 119.237 145.552 119.163C145.552 119.034 145.219 118.403 145.163 118.144C144.183 114.511 146.015 108.58 148.087 105.503C148.772 104.483 149.605 103.52 150.696 102.908L150.733 102.889ZM136.558 98.5522L124.956 94.8451C123.512 95.5124 122.05 96.1055 120.57 96.6616C120.644 97.125 120.44 99.7014 120.663 99.8496L130.322 102.278C131.655 102.278 132.876 102.278 134.171 102.593C134.393 102.648 135.115 102.964 135.226 102.889L136.558 98.5707V98.5522ZM119.164 97.0323L113.927 98.1444L119.164 99.4419V97.0323ZM126.177 117.921C131.618 119.275 135.43 115.456 136.855 110.544C138.15 106.115 136.188 103.631 131.618 103.594C131.47 103.594 131.396 103.594 131.266 103.686C131.025 103.89 130.1 105.633 129.878 106.022C128.731 108.172 127.694 110.582 127.01 112.935C126.547 114.53 126.085 116.235 126.177 117.903V117.921ZM151.992 103.909C151.141 104.002 150.049 105.243 149.549 105.911C147.606 108.543 145.941 113.844 146.44 117.087C146.533 117.736 146.829 118.922 147.551 119.071C150.252 119.627 151.622 116.161 152.362 114.159C153.195 111.879 154.786 106.615 153.25 104.558C152.954 104.15 152.51 103.853 151.992 103.909ZM35.7238 126.299C35.7608 126.262 35.4832 125.817 35.9088 125.373C40.1095 122.852 43.866 119.682 47.5301 116.476C47.8817 115.846 46.8824 114.455 46.4568 113.973C45.7351 113.158 45.365 112.769 44.3287 113.362C42.3856 114.455 40.0355 117.254 38.0554 118.718C36.3529 119.979 34.5024 120.683 32.7629 121.777C31.7452 122.407 30.8199 122.963 31.2825 124.298C31.6896 125.484 32.911 126.522 34.1693 126.559C34.3729 126.559 35.6497 126.374 35.7238 126.281V126.299ZM111.873 118.218C111.317 118.237 107.45 117.551 107.32 117.755C107.246 117.847 107.117 118.681 107.098 118.867C106.839 122.277 108.283 124.316 111.854 124.075C112.206 124.057 113.279 123.908 113.482 123.667C113.594 123.538 114.556 121.758 114.463 121.684C112.224 122.426 112.261 119.682 111.873 118.218ZM115.426 118.57L113.297 118.385C113.371 118.663 113.612 120.257 113.742 120.331C113.797 120.368 113.945 120.331 114.001 120.294C114.186 120.201 115.574 118.681 115.426 118.552V118.57ZM111.262 148.801C112.798 145.168 115.333 141.665 118.183 138.977C118.386 138.774 119.33 138.106 119.349 137.902C119.367 137.68 118.719 136.901 118.534 136.661C116.425 133.899 113.705 131.545 111.206 129.154C110.836 129.469 110.485 129.914 110.096 130.266C105.747 134.325 100.103 136.902 94.2001 137.699C94.2001 137.81 94.3296 137.847 94.4037 137.884C95.6805 138.681 97.42 139.404 98.7894 140.164C103.231 142.647 107.339 145.576 111.243 148.801H111.262ZM122.865 137.717C120.792 137.958 117.979 141.035 116.665 142.629C115.426 144.149 112.298 148.505 112.317 150.358C112.317 151.489 113.742 152.712 114.833 152.619C115.925 152.527 117.535 150.747 118.257 149.913C120.126 147.763 121.569 145.706 123.679 143.685C124.53 142.87 125.936 142.054 126.196 140.868C126.621 138.829 124.752 137.476 122.865 137.717Z" fill="#4E4F4E"/>
<path d="M129.73 103.539C127.954 106.542 126.455 109.748 125.511 113.14C125.104 114.604 124.734 116.143 124.752 117.681C119.996 117.589 115.241 117.236 110.522 116.699C108.283 116.439 105.673 115.846 103.49 115.735C102.99 115.717 102.361 115.735 102.38 116.384C102.398 116.94 102.805 117.014 103.249 117.125C104.101 117.329 105.063 117.348 105.933 117.514C105.359 119.85 105.544 122.63 107.487 124.28C108.819 125.41 110.633 125.633 112.317 125.485C109.023 130.285 104.082 133.659 98.5305 135.345C88.5377 138.385 73.456 136.81 64.4624 131.36C63.9998 131.082 62.6674 130.007 62.2603 130.007C58.3927 132.361 53.7109 135.104 49.0661 135.327C43.5331 135.586 39.684 130.878 37.3153 126.448C37.2783 126.3 37.2783 126.245 37.3894 126.115C37.5744 125.911 38.4072 125.485 38.7032 125.281C41.9416 123.038 44.9765 120.573 47.9558 117.996C48.8071 118.719 49.3992 119.479 50.6576 119.479C52.027 119.479 53.97 117.867 54.081 116.495C54.1551 115.698 53.896 114.438 53.896 113.548C53.9515 106.152 57.3935 98.6085 61.5571 92.6587C61.7977 92.3066 63.1671 90.3604 63.3891 90.3048C63.5557 90.2677 65.6283 90.7496 66.0539 90.8052C69.0887 91.2686 72.2346 91.2501 75.1584 90.3048C86.058 95.2722 97.7903 98.9792 109.948 98.5715L129.712 103.539H129.73Z" fill="#C8E3F2"/>
<path d="M132.302 89.1168C132.71 88.4495 134.171 87.1891 134.079 86.4107C134.005 85.799 133.302 85.7063 132.876 86.0956C132.45 86.4848 131.766 87.5969 131.285 88.1344C121.218 99.3482 103.212 98.3288 89.9626 94.3993C83.3377 92.4346 74.6588 89.228 69.0702 85.1688C68.7371 84.9278 67.2567 83.6489 67.0902 83.5933C66.1834 83.3894 65.8688 84.2606 66.4425 84.8722C67.2012 85.6878 68.8112 86.7072 69.7734 87.3189C70.9023 88.0418 72.1236 88.5978 73.1969 89.3578C69.5144 90.0065 65.7393 89.5246 62.1863 88.431C59.4105 87.5784 56.1536 86.077 54.0255 84.0752C53.9145 83.964 53.3223 83.4265 53.3964 83.3153C56.5607 81.6842 58.0227 77.7547 57.301 74.3257C57.9856 74.5296 59.9472 75.3081 60.5394 74.9559C60.8539 74.7706 60.891 74.3442 60.7429 74.0292C60.5394 73.6214 59.0034 73.4175 58.5038 73.2507C55.543 72.3239 53.3408 70.9894 51.3608 68.5798C50.2135 67.1897 49.1402 65.503 48.696 63.7421C52.101 63.946 54.7287 61.9071 56.9308 59.5717C57.6525 59.8683 58.3187 60.3687 59.0589 60.7024C59.5586 60.9433 60.6134 61.4994 61.1315 61.2955C61.6497 61.0916 61.5756 60.3131 61.1315 60.0536C58.2077 58.9044 55.5245 57.1807 53.822 54.4745C53.2113 53.4922 52.6006 52.2688 52.5266 51.1011C55.0988 50.8972 57.5045 49.5256 59.5771 48.0613C59.8362 47.876 61.2611 46.6712 61.3906 46.6712C61.5571 46.6712 62.0383 47.6721 62.1863 47.8945C64.1479 50.8787 66.424 52.065 70.088 51.8055C76.8979 51.3235 82.5235 42.8715 81.9313 36.3842C81.8018 34.994 80.9321 35.2535 79.8403 34.8272C78.6004 34.3453 77.305 33.7522 76.3428 32.8254C76.3058 32.6771 76.7499 32.4547 76.8794 32.3806C77.7122 31.8987 78.7484 31.565 79.6367 31.1387C82.1164 31.1758 84.5776 31.2314 87.0388 31.1017C90.1476 33.5483 94.3298 33.8634 98.1419 34.0302C102.639 34.2341 110.263 34.2712 113.446 30.6012C113.76 30.2305 113.557 30.0266 114.167 30.1564C119.349 31.2499 125.456 36.032 128.86 39.98C132.321 44.0021 134.616 48.7657 139.038 51.9352C140.426 52.9361 142.092 53.8629 143.813 53.9555C143.294 56.328 142.018 58.3298 140.26 59.9609C139.538 60.6282 138.428 61.2584 137.817 61.8701C137.299 62.389 137.521 63.149 138.261 63.1119C138.705 63.0934 139.371 62.352 139.556 62.4447C139.667 62.5003 140.648 64.1128 140.889 64.4094C141.462 65.1137 142.351 65.9107 143.165 66.3185C143.498 66.4853 144.46 66.7078 144.608 66.819C144.719 66.8931 144.701 66.9487 144.682 67.0599C144.608 67.653 143.868 69.0247 143.535 69.5622C142.129 71.7308 139.927 73.2136 137.632 74.3257C137.114 74.5667 136.318 74.6223 136.355 75.3637C136.392 76.1607 137.262 76.031 137.78 75.8456V78.7371C137.78 80.1272 138.761 82.1105 139.816 83.0002C140.001 83.167 140.833 83.6304 140.87 83.686C141.037 83.964 139.76 85.5395 139.501 85.8175C138.28 87.2077 135.837 89.1168 133.912 89.1168H132.358H132.302ZM123.512 55.9388H122.217C119.663 55.9388 117.665 53.1029 116.74 51.027C116.518 50.5451 116.24 49.3032 115.851 49.0623C115.296 48.7286 114.741 49.1549 114.778 49.7666L116.203 59.0527C114.278 58.8859 112.224 58.4596 110.466 57.644C106.488 55.7905 104.323 50.9714 102.935 47.0419C102.768 46.801 102.417 46.7083 102.139 46.7639C101.954 46.801 101.898 46.9678 101.75 47.0048C100.029 47.5053 98.4009 47.7277 96.6429 48.3764C81.4687 54.0297 76.4168 75.9753 89.1669 86.7814C98.475 94.6588 113.612 95.3446 124.123 89.5246C129.397 86.596 132.265 82.7222 133.616 76.8094C135.744 67.5974 133.616 55.9944 125.141 50.7304C124.475 50.3226 122.347 48.8213 122.31 50.4524C122.569 52.2874 123.179 54.0853 123.475 55.9203L123.512 55.9388Z" fill="#C8E3F2"/>
<path d="M112.668 9.60121C112.705 9.61975 112.89 10.1943 112.909 10.287C113.094 11.0655 113.02 11.5659 113.02 12.3074C113.057 16.7187 113.057 21.1486 112.927 25.56C112.872 27.8028 113.427 29.3783 111.225 30.6943C106.469 33.5301 94.3853 33.2892 89.3889 31.0279C88.1861 30.4718 86.9832 29.5636 86.8537 28.1549C86.5761 25.3005 86.9092 21.6491 86.9462 18.7391C86.9647 16.2553 86.6871 13.0302 86.9462 10.6392C86.9647 10.4168 87.3718 9.26758 87.5199 9.26758C89.1298 11.1026 92.1277 11.603 94.4593 11.9181C98.4749 12.4556 108.468 12.6595 111.799 10.287C111.984 10.1573 112.465 9.49 112.687 9.63828L112.668 9.60121ZM106.876 13.2897C106.451 12.9005 105.803 13.1414 105.673 13.679C105.581 14.0497 105.599 16.0885 105.673 16.4963C105.803 17.2933 106.913 17.2933 107.061 16.5704C107.154 16.1627 107.135 14.1979 107.08 13.7346C107.061 13.5863 106.987 13.3824 106.876 13.2712V13.2897ZM106.081 17.8123C105.933 17.8494 105.692 18.1274 105.673 18.2942C105.747 19.1654 105.47 20.0921 105.581 20.9633C105.71 22.0198 106.895 22.0569 107.061 21.1116C107.154 20.6111 107.135 19.0727 107.08 18.5537C107.024 17.9977 106.673 17.6455 106.081 17.8123ZM105.784 26.1161C106.173 26.5238 106.913 26.32 106.987 25.7454C106.876 24.9298 107.172 23.9475 107.08 23.1875C106.932 22.0383 105.729 22.0939 105.599 23.0948C105.525 23.6138 105.525 25.041 105.599 25.5785C105.618 25.7454 105.692 26.0049 105.803 26.1346L105.784 26.1161ZM106.802 27.0614C106.414 26.6721 105.71 26.9316 105.599 27.4506C105.507 27.8213 105.525 29.8602 105.599 30.268C105.729 31.0835 106.839 31.0279 106.987 30.3421C107.08 29.9343 107.061 28.0808 107.006 27.5989C107.006 27.4506 106.895 27.154 106.802 27.0428V27.0614Z" fill="white"/>
<path d="M73.2522 26.1732C73.5483 26.5624 73.1412 27.8969 73.1042 28.4159C72.7896 33.0312 76.5647 35.4037 80.4507 36.5714C80.9504 41.8725 76.5832 48.9529 71.3277 50.2133C69.0516 50.7508 66.1462 50.4913 64.4993 48.7119C60.5762 44.4859 60.5022 37.146 63.4815 32.401C65.0174 29.9543 68.0523 27.5633 70.7355 26.5068C71.2722 26.2844 72.8266 25.6727 73.2522 26.1917V26.1732Z" fill="#AECDC5"/>
<path d="M150.734 102.889C149.66 103.5 148.809 104.464 148.124 105.483C146.052 108.56 144.238 114.492 145.201 118.124C145.275 118.384 145.589 119.014 145.589 119.144C145.589 119.274 145.312 119.848 145.256 119.959C144.886 120.701 144.46 121.072 143.609 121.146C140.241 121.442 136.448 120.923 133.043 121.146C132.599 121.109 131.673 120.812 131.525 120.349C131.433 120.071 131.488 119.2 131.655 118.977C131.692 118.921 132.673 118.514 132.876 118.403C136.725 116.16 140.87 108.134 137.391 104.334C137.132 104.056 136.54 103.76 136.559 103.408L139.186 94.8999C139.501 94.1399 139.668 93.8804 140.519 93.8248C144.275 93.5468 148.365 94.0473 152.159 93.8248C152.658 93.8619 153.121 94.0102 153.176 94.5848C152.677 97.4021 151.492 100.09 150.771 102.87L150.734 102.889Z" fill="#9DAFB2"/>
<path d="M111.262 148.802C107.357 145.576 103.249 142.629 98.808 140.164C97.4387 139.404 95.6992 138.681 94.4223 137.884C94.3483 137.829 94.2188 137.792 94.2188 137.699C100.122 136.921 105.766 134.344 110.115 130.266C110.485 129.914 110.836 129.469 111.225 129.154C113.723 131.545 116.443 133.899 118.553 136.661C118.738 136.902 119.386 137.68 119.367 137.903C119.367 138.107 118.424 138.774 118.201 138.978C115.333 141.684 112.816 145.169 111.281 148.802H111.262Z" fill="#C8E3F2"/>
<path d="M88.0011 6.67371C86.8167 7.69315 85.873 8.97207 85.5954 10.5476C85.984 16.2749 85.0588 22.5028 85.5029 28.156C85.5584 28.7862 85.799 29.2866 85.947 29.8798C83.1897 29.9168 80.3399 30.1949 77.6937 29.2496C77.6567 29.1198 77.6937 29.0457 77.7862 28.9345C78.1748 28.3414 79.3592 27.3961 79.8773 26.7659C80.4325 26.0615 80.4325 26.043 79.7848 25.4313C79.0631 24.727 78.2674 24.1153 77.5272 23.4295C77.4716 23.2071 80.3769 20.6678 80.4325 20.1303C80.451 19.9078 80.0439 19.5371 79.8773 19.3889C79.5997 19.1294 77.6937 17.5353 77.6937 17.3871C78.0083 16.6827 80.5065 14.9404 80.5435 14.3473C80.5435 14.2361 80.5435 14.1619 80.451 14.0878L77.7862 11.4929C77.7492 11.2334 80.6545 8.80526 80.6915 8.37895C80.7285 7.95264 79.2666 6.97027 79.0261 6.5625C81.9869 7.06295 85.0032 6.74785 88.0011 6.65518V6.67371Z" fill="white"/>
<path d="M126.177 117.92C126.085 116.252 126.547 114.546 127.01 112.952C127.695 110.598 128.712 108.189 129.878 106.039C130.1 105.631 131.026 103.907 131.266 103.703C131.396 103.592 131.47 103.611 131.618 103.611C136.188 103.629 138.15 106.131 136.855 110.561C135.43 115.455 131.618 119.291 126.177 117.938V117.92Z" fill="white"/>
<path d="M122.865 137.717C124.752 137.495 126.621 138.848 126.196 140.868C125.937 142.054 124.53 142.87 123.679 143.686C121.569 145.706 120.145 147.763 118.257 149.913C117.517 150.747 115.962 152.527 114.834 152.62C113.705 152.712 112.317 151.489 112.317 150.358C112.317 148.486 115.444 144.13 116.666 142.629C117.979 141.035 120.792 137.958 122.865 137.717Z" fill="white"/>
<path d="M35.724 126.298C35.6685 126.391 34.3916 126.576 34.1696 126.576C32.8927 126.539 31.6714 125.501 31.2827 124.315C30.8386 122.981 31.7454 122.425 32.7632 121.794C34.5026 120.701 36.3532 119.996 38.0556 118.736C40.0542 117.272 42.3859 114.473 44.3289 113.379C45.3652 112.805 45.7353 113.194 46.457 113.991C46.8826 114.473 47.9004 115.863 47.5303 116.493C43.8478 119.7 40.0912 122.869 35.909 125.39C35.4834 125.817 35.761 126.28 35.724 126.317V126.298Z" fill="white"/>
<path d="M136.559 98.5517L135.226 102.87C135.115 102.945 134.394 102.629 134.172 102.574C132.858 102.277 131.655 102.259 130.322 102.259L120.663 99.8307C120.459 99.6824 120.663 97.0875 120.57 96.6426C122.051 96.1051 123.513 95.4934 124.956 94.8262L136.559 98.5517Z" fill="#C8E3F2"/>
<path d="M151.992 103.909C152.51 103.853 152.954 104.15 153.25 104.558C154.786 106.634 153.213 111.898 152.362 114.159C151.622 116.161 150.252 119.627 147.551 119.071C146.811 118.923 146.533 117.718 146.44 117.088C145.959 113.844 147.606 108.543 149.549 105.911C150.049 105.244 151.141 104.002 151.992 103.909Z" fill="white"/>
<path d="M98.29 5.80152C101.639 5.6347 107.45 6.02394 110.466 7.50676C111.188 7.85892 112.076 8.34084 111.059 8.98957C108.209 10.8431 100.936 11.084 97.5498 10.8431C95.6438 10.7133 90.2033 9.99047 88.8894 8.67447C88.5748 8.34084 88.5563 8.19256 88.8894 7.87746C90.4253 6.45025 96.162 5.91273 98.2715 5.80152H98.29ZM98.7342 7.13605C98.068 7.19166 95.9029 7.46968 95.5513 8.04428C95.2367 8.56326 95.7733 8.76715 96.1805 8.93397C97.9384 9.67537 102.25 9.73098 104.008 8.9525C105.637 8.24816 103.971 7.61797 103.101 7.41408C101.751 7.09898 100.104 7.02484 98.7342 7.13605Z" fill="white"/>
<path d="M133.265 43.5766L130.415 39.7955C128.491 37.46 126.307 35.347 123.846 33.5676L124.734 32.6779C125.345 31.918 125.77 30.7132 125.881 29.7494C125.881 29.5826 125.696 29.2119 125.992 29.045C126.362 28.8226 127.399 29.3601 127.769 29.5826C128.935 30.2498 130.082 31.5473 130.859 32.6223C133.117 35.8104 133.95 39.7584 133.265 43.5952V43.5766Z" fill="#AECDC5"/>
<path d="M111.873 118.218C112.243 119.664 112.224 122.407 114.464 121.684C114.538 121.758 113.594 123.538 113.483 123.667C113.279 123.927 112.206 124.057 111.854 124.075C108.283 124.316 106.839 122.277 107.098 118.867C107.098 118.681 107.247 117.866 107.321 117.755C107.469 117.551 111.318 118.237 111.873 118.218Z" fill="white"/>
<path d="M119.164 97.0312V99.4408L113.927 98.1434L119.164 97.0312Z" fill="#C8E3F2"/>
<path d="M115.426 118.569C115.574 118.699 114.204 120.2 114.001 120.311C113.927 120.349 113.779 120.386 113.742 120.349C113.612 120.256 113.372 118.662 113.298 118.402L115.426 118.588V118.569Z" fill="#C8E3F2"/>
<path d="M123.513 55.9394C123.216 54.1044 122.606 52.3065 122.347 50.4715C122.402 48.8404 124.53 50.3417 125.178 50.7495C133.653 56.0135 135.763 67.6165 133.653 76.8285C132.284 82.7413 129.434 86.6151 124.16 89.5437C113.649 95.3823 98.5121 94.6779 89.204 86.8005C76.4539 76.013 81.5243 54.0488 96.68 48.3955C98.4195 47.7468 100.066 47.5244 101.787 47.0239C101.917 46.9869 101.991 46.8201 102.176 46.783C102.454 46.7274 102.805 46.8015 102.972 47.061C104.36 50.9905 106.525 55.8096 110.503 57.6631C112.261 58.4787 114.315 58.905 116.24 59.0718L114.815 49.7857C114.76 49.174 115.333 48.7477 115.888 49.0813C116.277 49.3223 116.555 50.5642 116.777 51.0461C117.702 53.122 119.7 55.9579 122.254 55.9579H123.55L123.513 55.9394ZM116.943 54.2527C117.054 55.9394 117.702 57.867 117.739 59.5352C117.739 60.1098 117.646 60.5361 116.98 60.5546C115.204 60.6288 111.817 59.7576 110.17 59.0347C106.007 57.1998 103.582 52.7513 102.047 48.6736C101.898 48.3029 101.362 48.5438 101.047 48.5994C91.4801 50.5086 84.8737 57.9041 83.5784 67.5609C80.525 90.3963 109.689 98.0328 125.437 87.097C131.951 82.5744 133.672 74.3263 132.821 66.7639C132.136 60.7956 129.545 54.8458 124.179 51.769C124.031 51.7504 124.031 51.769 124.049 51.8987C124.234 53.363 124.919 55.0311 125.122 56.5325C125.16 57.6446 123.179 57.4222 122.421 57.3666C120.052 57.1812 118.424 56.032 116.962 54.2527H116.943Z" fill="#4E4F4E"/>
<path d="M106.081 17.8131C106.673 17.6463 107.024 17.9985 107.08 18.5545C107.135 19.0735 107.154 20.6119 107.061 21.1124C106.895 22.0391 105.692 22.0021 105.581 20.9641C105.47 20.0929 105.766 19.1662 105.673 18.295C105.71 18.1467 105.951 17.8687 106.081 17.8131Z" fill="#4E4F4E"/>
<path d="M105.784 26.1154C105.673 26.0042 105.599 25.7262 105.581 25.5593C105.525 25.0218 105.525 23.5946 105.581 23.0756C105.729 22.0562 106.932 22.0191 107.061 23.1683C107.154 23.9468 106.858 24.9106 106.969 25.7262C106.895 26.3007 106.136 26.5232 105.766 26.0969L105.784 26.1154Z" fill="#4E4F4E"/>
<path d="M106.876 13.2902C106.987 13.3829 107.061 13.6053 107.08 13.7536C107.135 14.1985 107.154 16.1817 107.061 16.5895C106.895 17.3124 105.784 17.2938 105.673 16.5154C105.618 16.1076 105.599 14.0687 105.673 13.698C105.784 13.1605 106.451 12.9195 106.876 13.3088V13.2902Z" fill="#4E4F4E"/>
<path d="M106.802 27.0615C106.895 27.1541 106.987 27.4692 107.006 27.6175C107.061 28.0994 107.08 29.9529 106.987 30.3607C106.839 31.0465 105.71 31.1021 105.599 30.2866C105.544 29.8788 105.525 27.8399 105.599 27.4692C105.71 26.9502 106.414 26.6908 106.802 27.08V27.0615Z" fill="#4E4F4E"/>
<path d="M98.7341 7.13624C100.104 7.04356 101.75 7.09917 103.101 7.41427C103.971 7.61815 105.637 8.24835 104.008 8.95269C102.25 9.71263 97.9384 9.67556 96.1804 8.93415C95.7918 8.76733 95.2367 8.56345 95.5512 8.04446C95.9028 7.46987 98.068 7.19184 98.7341 7.13624Z" fill="#4E4F4E"/>
<path d="M116.943 54.2523C118.405 56.0316 120.034 57.1808 122.402 57.3662C123.179 57.4218 125.141 57.6442 125.104 56.5321C124.9 55.0307 124.216 53.3626 124.031 51.8983C124.031 51.75 124.031 51.75 124.16 51.7685C129.527 54.8454 132.136 60.7952 132.802 66.7635C133.653 74.3259 131.932 82.574 125.419 87.0966C109.671 98.0324 80.488 90.3959 83.5598 67.5605C84.8552 57.9037 91.4615 50.5081 101.029 48.599C101.343 48.5434 101.88 48.3025 102.028 48.6732C103.545 52.7509 105.988 57.2179 110.152 59.0343C111.817 59.7572 115.185 60.6284 116.962 60.5542C117.628 60.5357 117.739 60.1094 117.72 59.5348C117.683 57.8666 117.017 55.939 116.925 54.2523H116.943ZM100.066 64.15C95.1441 64.6134 95.6252 76.8281 100.862 75.2712C103.879 74.3815 104.175 68.5985 103.12 66.2075C102.602 65.0212 101.417 64.0388 100.066 64.15ZM123.309 64.15C119.275 64.4651 118.942 74.1405 122.55 75.2712C127.547 76.8467 128.379 63.7423 123.309 64.15ZM114.167 73.7698C113.446 73.7883 111.743 73.9181 111.558 74.8078C111.281 76.2165 114.315 76.3833 115.204 76.3277C116.036 76.2535 117.794 75.8087 117.406 74.6595C117.11 73.7698 114.963 73.7513 114.167 73.7698Z" fill="white"/>
<path d="M100.066 64.15C101.417 64.0203 102.602 65.0212 103.12 66.2074C104.175 68.5985 103.897 74.3815 100.862 75.2711C95.6067 76.8281 95.1441 64.6134 100.066 64.15ZM99.6964 65.8367C97.7348 66.1518 98.1604 69.136 100.103 68.9136C102.158 68.6911 101.75 65.5031 99.6964 65.8367Z" fill="#4E4F4E"/>
<path d="M123.309 64.15C128.379 63.7422 127.547 76.8466 122.55 75.2711C118.942 74.1404 119.275 64.4651 123.309 64.15ZM122.957 65.8367C120.996 66.1518 121.421 69.1359 123.365 68.9135C125.419 68.6911 125.011 65.503 122.957 65.8367Z" fill="#4E4F4E"/>
<path d="M114.167 73.7712C114.963 73.7527 117.091 73.7712 117.406 74.6609C117.794 75.8101 116.036 76.255 115.203 76.3291C114.315 76.4032 111.28 76.2364 111.558 74.8092C111.743 73.9195 113.445 73.7898 114.167 73.7712Z" fill="#4E4F4E"/>
<path d="M99.6962 65.8368C101.75 65.5032 102.157 68.7098 100.103 68.9137C98.0493 69.1175 97.7347 66.1334 99.6962 65.8368Z" fill="white"/>
<path d="M122.957 65.8368C125.011 65.5032 125.418 68.7098 123.364 68.9137C121.31 69.1175 120.996 66.1334 122.957 65.8368Z" fill="white"/>
<defs>
<filter id="filter0_f_234_6982" x="0" y="142.711" width="149.311" height="20.6016" filterUnits="userSpaceOnUse" color-interpolation-filters="sRGB">
<feFlood flood-opacity="0" result="BackgroundImageFix"/>
<feBlend mode="normal" in="SourceGraphic" in2="BackgroundImageFix" result="shape"/>
<feGaussianBlur stdDeviation="2" result="effect1_foregroundBlur_234_6982"/>
</filter>
</defs>
</svg>
