<svg width="241" height="252" viewBox="0 0 241 252" fill="none" xmlns="http://www.w3.org/2000/svg">
<g opacity="0.2" filter="url(#filter0_f_1_1762)">
<ellipse cx="111.466" cy="237.731" rx="107.466" ry="9.58296" fill="#4C4C4C"/>
</g>
<path d="M113.132 42.344C113.61 41.8084 114.82 40.7935 115.158 40.2579C115.271 40.0887 115.327 39.9477 115.299 39.7222C115.299 39.6094 113.892 38.5663 113.666 38.3408C112.822 37.5232 111.386 36.4238 111.668 35.1269C111.921 33.9711 114.961 31.9976 115.552 30.7572C115.552 30.4471 112.146 27.938 111.837 26.8949C111.64 26.2747 111.752 25.88 112.118 25.4008C112.738 24.5832 114.145 23.3428 114.961 22.5534C115.186 22.3279 115.721 22.1305 115.721 21.8204C115.665 21.4539 115.271 21.3693 115.046 21.1438C114.426 20.5518 112.203 18.4374 112.006 17.8454C111.837 17.3379 111.921 16.9996 112.203 16.5485C112.653 15.9283 115.974 13.0246 115.974 12.7708C114.764 11.3612 111.949 9.86707 111.781 7.92183C111.64 6.34309 112.343 5.18722 113.976 5.04626C117.325 6.23032 120.703 6.93512 124.277 6.90693C137.534 6.82235 150.819 3.15741 164.02 6.56862C168.073 7.61172 173.055 10.6001 173.477 15.2235C174.04 21.4539 173.055 28.5301 173.477 34.845C173.195 37.3541 173.392 39.9196 173.364 42.4568C175.335 43.1052 177.361 43.7254 179.247 44.6276C181.02 45.4451 182.624 46.601 184.341 47.5032C184.792 47.475 185.326 46.009 185.411 45.5861C185.861 43.8664 184.989 42.4286 186.48 40.9908C189.971 37.6078 196.416 43.0488 198.78 45.7271C203.284 50.8862 205.001 57.3985 204.663 64.1927C204.607 65.123 204.072 67.914 204.325 68.5906C204.55 69.1545 206.915 71.8609 207.477 72.4529C209.617 74.7365 213.867 78.1195 217.019 78.4578C218.257 78.5987 220.115 78.0349 220.425 79.7828C220.96 82.8557 218.961 87.6483 217.188 90.1574C216.231 91.5106 214.993 92.5819 213.979 93.8223C214.908 95.7112 216.175 97.1771 218.229 97.8256C219.918 98.3612 221.579 97.9947 221.832 100.306C222.367 105.466 217.357 110.935 213.585 113.839C213.107 114.205 211.531 115.023 211.446 115.474C211.305 116.122 211.362 118.124 211.446 118.857C211.559 119.984 212.122 122.099 212.938 122.916C214.373 124.326 217.103 123.847 216.991 126.44C216.794 130.049 211.277 135.659 208.322 137.52C205.001 139.634 201.342 139.888 197.486 139.521L194.418 142.143L205.226 145.723C206.07 142.848 206.352 139.916 209.785 139.127C216.203 139.155 223.352 138.478 229.741 138.957C232.049 139.127 234.413 140.452 234.667 142.961C235.061 146.795 232.584 150.967 231.852 154.717C233.203 155.76 234.47 156.859 235.089 158.494C237.256 164.161 233.625 177.157 229.741 181.724C227.574 184.29 225.378 185.305 221.945 184.966C220.903 186.179 219.834 187.504 218.201 187.87L198.837 187.927C196.951 187.701 194.08 185.615 194.305 183.472C193.207 183.416 192.082 183.557 190.984 183.472C189.774 183.388 188.591 182.908 187.466 182.796C184.989 182.542 182.005 182.486 179.5 182.373C178.797 182.373 178.093 182.373 177.417 182.373C176.095 185.953 174.321 189.364 172.238 192.55C171.985 192.917 170.719 194.439 170.803 194.721L176.179 199.88C178.037 201.966 180.007 203.883 181.724 206.11C182.118 206.308 182.962 205.8 183.441 205.687C189.408 204.278 195.431 209.747 193.461 215.865C192.588 218.571 187.803 221.982 185.692 224.322C182.962 227.339 177.783 235.373 173.646 235.796C169.227 236.276 165.877 233.823 164.949 229.538C158.109 223.843 150.847 218.909 142.938 214.793C141.644 214.117 137.956 212.031 136.774 211.777C134.551 211.326 130.723 212.284 128.302 211.89C117.607 211.241 106.489 209.888 96.9194 204.785C95.4558 204.024 94.1048 203.094 92.6693 202.276C85.4639 206.59 76.9356 210.621 68.2666 209.268C62.384 208.366 57.3459 203.291 53.9965 198.668C53.715 198.301 52.4766 196.215 52.364 196.13C52.2514 196.074 50.2812 196.497 49.7183 196.469C46.4815 196.328 43.4698 193.988 42.1188 191.112C38.4879 183.472 48.8176 180.879 53.4336 177.58C56.5015 175.381 61.5959 169.602 64.6076 168.502C68.1258 167.234 71.0249 169.912 72.7981 172.675C73.8958 174.395 73.6425 174.846 73.9802 176.622C74.318 178.341 75.7816 177.919 76.2882 176.537C75.2468 162.244 81.1575 148.853 89.2073 137.491C85.4076 136.223 81.5234 134.278 78.4836 131.684C77.6674 131.007 75.275 128.696 74.8809 127.85C74.5713 127.173 74.4587 126.299 74.7121 125.594C75.1624 124.326 76.7104 123.903 77.7518 123.226C80.6509 121.309 82.4241 116.742 81.0731 113.416C77.3015 111.499 74.0084 108.369 71.5597 104.958C69.8146 102.505 67.3378 97.9947 67.957 94.8936C68.4355 92.4973 71.5315 93.484 73.3329 93.2585C75.9223 92.9484 78.3711 91.3696 80.1443 89.5372C78.5681 87.7893 76.9637 86.0978 75.8097 84.0398C74.6558 81.9818 73.1359 77.8094 73.9802 75.5258C74.6276 73.7215 76.626 74.2008 78.0333 74.0317C81.4953 73.6088 85.6609 70.5359 88.3348 68.3651C88.1096 66.8145 87.6593 65.2922 87.5748 63.7135C87.0401 54.5229 89.0384 47.9542 95.9624 41.7802C99.0022 39.0738 106.123 34.5631 110.261 35.9727C111.049 36.2264 113.103 38.1153 113.103 38.9328V42.3722L113.132 42.344ZM147.414 8.82397C144.205 8.99312 135.48 9.81068 133.143 11.9815C132.637 12.4607 132.637 12.7144 133.143 13.1937C135.142 15.1953 143.417 16.2948 146.316 16.4921C151.467 16.8586 162.528 16.4921 166.863 13.673C168.411 12.6581 167.06 11.9533 165.962 11.4176C161.374 9.16227 152.536 8.57024 147.442 8.82397H147.414ZM131.764 10.149C127.233 10.2899 122.645 10.7692 118.113 10.008C118.479 10.6282 120.703 12.1224 120.647 12.7708C120.59 13.4192 116.171 17.1124 116.228 17.507L120.281 21.4539C120.393 21.5667 120.421 21.7076 120.421 21.8486C120.365 22.7507 116.594 25.3726 116.087 26.472C116.087 26.6976 118.986 29.1221 119.408 29.5168C119.661 29.7705 120.281 30.3061 120.253 30.6444C120.168 31.462 115.749 35.3525 115.834 35.6626C116.959 36.6775 118.198 37.636 119.267 38.7073C120.224 39.6376 120.253 39.694 119.408 40.7371C118.62 41.7238 116.819 43.1334 116.228 44.0356C116.115 44.2047 116.059 44.3175 116.087 44.5148C120.112 45.9244 124.446 45.5297 128.64 45.4733C128.415 44.5712 128.049 43.81 127.965 42.8515C127.289 34.253 128.696 24.7805 128.105 16.0693C128.528 13.673 129.935 11.7277 131.764 10.1772V10.149ZM169.283 14.6033C168.945 14.3778 168.214 15.3927 167.932 15.59C162.866 19.1986 147.667 18.9166 141.559 18.0709C138.013 17.5916 133.453 16.8304 131.004 14.0395C130.751 14.0395 130.16 15.7873 130.132 16.1257C129.738 19.7342 130.16 24.6396 130.132 28.4455C130.104 32.8716 129.569 38.4254 129.991 42.7669C130.216 44.9095 132.018 46.3191 133.847 47.1367C141.447 50.6043 159.826 50.9707 167.06 46.6292C170.437 44.6276 169.565 42.2313 169.649 38.8201C169.818 32.1104 169.846 25.3726 169.79 18.6629C169.79 17.5352 169.902 16.8023 169.621 15.59C169.593 15.4209 169.283 14.5751 169.255 14.5469L169.283 14.6033ZM109.332 39.8068C108.684 39.0174 106.32 39.9477 105.504 40.286C101.423 41.893 96.8068 45.5297 94.4707 49.251C89.911 56.4682 90.0517 67.6603 96.0187 74.0599C98.5518 76.7945 102.943 77.1891 106.405 76.3434C114.426 74.4263 121.069 63.6571 120.281 55.5942C114.37 53.8181 108.628 50.2096 109.107 43.1898C109.163 42.4004 109.81 40.3424 109.332 39.7786V39.8068ZM200.61 66.2789C201.651 60.4432 200.385 54.4383 196.951 49.5893C195.769 47.926 194.024 45.9808 192.25 44.9659C191.687 44.6558 190.111 43.81 189.548 44.1483C189.098 44.4021 189.408 44.9659 189.38 45.2196C189.239 46.6856 188.591 48.5181 187.634 49.6739L186.283 51.0271C189.999 53.7335 193.348 56.9474 196.275 60.4996L200.61 66.2507V66.2789ZM199.146 135.546H201.51C204.438 135.546 208.153 132.642 210.011 130.528C210.377 130.105 212.319 127.709 212.093 127.286C212.037 127.201 210.771 126.497 210.489 126.243C208.885 124.89 207.393 121.873 207.393 119.759V115.361C206.605 115.615 205.282 115.812 205.226 114.628C205.17 113.5 206.408 113.444 207.168 113.049C210.658 111.358 214.007 109.102 216.146 105.804C216.681 104.986 217.807 102.9 217.892 101.998C217.892 101.829 217.948 101.744 217.779 101.631C217.554 101.462 216.062 101.096 215.584 100.87C214.345 100.278 212.994 99.0378 212.122 97.9665C211.756 97.5154 210.264 95.0628 210.095 94.9782C209.814 94.8372 208.8 95.9649 208.125 95.9931C206.999 96.0495 206.661 94.8936 207.449 94.1042C208.378 93.1739 210.067 92.2154 211.165 91.2005C213.839 88.7196 215.752 85.6749 216.569 82.0663C213.923 81.9254 211.418 80.5158 209.307 78.9934C202.608 74.1726 199.09 66.9273 193.827 60.8097C188.648 54.7766 179.359 47.5032 171.479 45.868C170.55 45.6707 170.887 45.9808 170.381 46.5446C165.54 52.0984 153.943 52.0702 147.104 51.7601C141.306 51.5064 134.945 51.0271 130.216 47.3058C126.473 47.5032 122.701 47.4186 118.958 47.3622C117.607 48.0106 116.059 48.5181 114.764 49.251C114.595 49.3638 113.92 49.6739 113.948 49.9277C115.411 51.3372 117.382 52.2394 119.267 52.9724C120.928 53.6208 122.251 53.2261 122.448 55.3405C123.32 65.2076 114.792 78.0631 104.434 78.7961C98.8896 79.1908 95.3995 77.3583 92.4441 72.8476C92.219 72.5093 91.5153 70.9587 91.2338 70.9869C91.065 70.9869 88.8977 72.8194 88.4755 73.1013C85.3513 75.3285 81.6923 77.4147 77.7518 77.7248C77.8644 79.5009 78.7932 81.3615 79.7221 82.8557C82.3115 86.9435 86.3927 89.5935 90.8398 91.3414C91.5153 91.7079 91.6279 92.892 90.8398 93.2303C90.0517 93.5686 88.4474 92.6946 87.6874 92.3281C86.5897 91.7925 85.5483 91.0595 84.4506 90.6084C81.1294 94.1606 77.1045 97.2617 71.9256 96.9516C72.6011 99.6298 74.2336 102.195 75.9786 104.31C78.9903 107.975 82.3397 110.004 86.843 111.414C87.603 111.668 89.9391 111.978 90.2487 112.598C90.502 113.049 90.4458 113.726 89.9391 114.008C89.0384 114.543 86.055 113.359 85.0135 113.049C86.1112 118.265 83.8596 124.213 79.0747 126.722C78.9621 126.891 79.8346 127.709 80.0317 127.878C83.2966 130.923 88.2222 133.206 92.4441 134.503C97.8482 136.166 103.59 136.899 109.191 135.913C107.559 134.757 105.701 133.883 103.984 132.812C102.52 131.881 100.072 130.331 98.9177 129.09C98.0452 128.16 98.5518 126.835 99.9029 127.145C100.156 127.201 102.436 129.175 102.915 129.541C111.415 135.715 124.615 140.564 134.692 143.581C154.844 149.558 182.23 151.108 197.542 134.052C198.274 133.234 199.315 131.543 199.962 130.951C200.61 130.359 201.679 130.5 201.792 131.43C201.933 132.614 199.709 134.531 199.09 135.546H199.146ZM195.234 157.479L165.146 149.924C146.654 150.544 128.809 144.906 112.231 137.35C107.784 138.788 102.971 138.788 98.383 138.112C97.7356 138.027 94.6114 137.266 94.3299 137.35C93.9922 137.435 91.9094 140.423 91.5435 140.931C85.2387 149.952 79.9754 161.454 79.8909 172.703C79.8909 174.056 80.285 175.945 80.1724 177.186C80.0035 179.272 77.0482 181.724 74.9654 181.724C73.0233 181.724 72.1226 180.569 70.8279 179.469C66.2963 183.388 61.6804 187.137 56.7548 190.548C56.3045 190.859 55.0379 191.479 54.7564 191.817C54.5875 192.014 54.5875 192.099 54.6438 192.325C58.2465 199.062 64.1009 206.223 72.5166 205.828C79.5813 205.49 86.7023 201.318 92.5849 197.737C93.2041 197.737 95.2306 199.372 95.9343 199.795C109.585 208.084 132.524 210.48 147.751 205.857C156.195 203.291 163.71 198.188 168.72 190.859C166.131 191.084 163.401 190.774 161.374 189.026C158.419 186.517 158.137 182.288 159.01 178.736C157.687 178.482 156.223 178.454 154.929 178.144C154.253 178.003 153.634 177.862 153.606 177.016C153.578 176.001 154.535 175.973 155.295 176.03C158.616 176.199 162.584 177.101 165.99 177.496C173.167 178.313 180.401 178.849 187.634 178.99C187.606 176.678 188.169 174.31 188.788 172.083C190.196 166.924 192.504 162.047 195.206 157.479H195.234ZM227.18 156.493C228.306 152.264 230.079 148.176 230.839 143.891C230.754 143.017 230.079 142.792 229.291 142.735C223.521 143.073 217.3 142.312 211.587 142.735C210.292 142.82 210.039 143.214 209.56 144.37L205.564 157.31C205.564 157.846 206.464 158.297 206.83 158.72C212.122 164.499 205.817 176.706 199.962 180.117C199.653 180.287 198.161 180.907 198.105 180.991C197.852 181.33 197.767 182.655 197.908 183.078C198.133 183.782 199.512 184.233 200.216 184.29C205.423 183.952 211.165 184.741 216.287 184.29C217.61 184.177 218.229 183.613 218.792 182.486C218.877 182.288 219.299 181.358 219.299 181.245C219.299 181.048 218.792 180.089 218.708 179.695C217.216 174.169 220.003 165.148 223.155 160.468C224.196 158.917 225.463 157.451 227.124 156.521L227.18 156.493ZM205.62 149.896L187.972 144.257C185.777 145.272 183.553 146.175 181.302 147.02C181.414 147.725 181.105 151.644 181.442 151.869L196.135 155.562C198.161 155.562 200.019 155.562 201.989 156.042C202.327 156.126 203.424 156.605 203.593 156.493L205.62 149.924V149.896ZM179.162 147.584L171.197 149.276L179.162 151.249V147.584ZM189.83 179.356C198.105 181.414 203.903 175.607 206.07 168.136C208.04 161.398 205.057 157.62 198.105 157.564C197.88 157.564 197.767 157.564 197.57 157.705C197.204 158.015 195.797 160.665 195.459 161.257C193.714 164.527 192.138 168.192 191.096 171.773C190.393 174.197 189.689 176.791 189.83 179.328V179.356ZM229.094 158.043C227.799 158.184 226.138 160.073 225.378 161.088C222.423 165.091 219.89 173.154 220.65 178.088C220.791 179.074 221.241 180.879 222.339 181.104C226.448 181.95 228.531 176.678 229.657 173.633C230.923 170.166 233.344 162.159 231.008 159.03C230.557 158.41 229.882 157.959 229.094 158.043ZM52.2514 192.099C52.3077 192.043 51.8855 191.366 52.5329 190.689C58.9221 186.855 64.6357 182.035 70.2087 177.157C70.7434 176.199 69.2235 174.084 68.5762 173.351C67.4785 172.111 66.9156 171.519 65.3394 172.421C62.384 174.084 58.8095 178.341 55.7978 180.569C53.2084 182.486 50.3938 183.557 47.748 185.22C46.2 186.179 44.7927 187.024 45.4963 189.054C46.1156 190.859 47.9732 192.437 49.8871 192.494C50.1967 192.494 52.1388 192.212 52.2514 192.071V192.099ZM168.073 179.807C167.228 179.836 161.346 178.792 161.149 179.103C161.036 179.244 160.839 180.512 160.811 180.794C160.417 185.981 162.613 189.082 168.045 188.716C168.579 188.688 170.212 188.462 170.522 188.096C170.69 187.898 172.154 185.192 172.013 185.079C168.608 186.207 168.664 182.035 168.073 179.807ZM173.477 180.343L170.24 180.061C170.353 180.484 170.719 182.908 170.916 183.021C171 183.078 171.225 183.021 171.31 182.965C171.591 182.824 173.702 180.512 173.477 180.315V180.343ZM167.144 226.324C169.48 220.798 173.336 215.47 177.671 211.382C177.98 211.072 179.416 210.057 179.444 209.747C179.472 209.409 178.487 208.225 178.205 207.858C174.997 203.658 170.859 200.077 167.06 196.441C166.497 196.92 165.962 197.596 165.371 198.132C158.756 204.306 150.172 208.225 141.193 209.437C141.193 209.606 141.39 209.663 141.503 209.719C143.445 210.931 146.091 212.031 148.174 213.186C154.929 216.964 161.177 221.418 167.116 226.324H167.144ZM184.792 209.465C181.639 209.832 177.361 214.512 175.363 216.936C173.477 219.248 168.72 225.873 168.748 228.692C168.748 230.412 170.916 232.272 172.576 232.131C174.237 231.99 176.686 229.284 177.783 228.015C180.626 224.745 182.821 221.616 186.03 218.543C187.325 217.302 189.464 216.062 189.858 214.258C190.505 211.157 187.663 209.099 184.792 209.465Z" fill="#4E4F4E"/>
<path d="M195.234 157.479C192.532 162.047 190.252 166.924 188.817 172.083C188.197 174.31 187.634 176.65 187.663 178.99C180.429 178.849 173.195 178.313 166.018 177.496C162.613 177.101 158.644 176.199 155.323 176.03C154.563 176.001 153.606 176.03 153.634 177.016C153.662 177.862 154.281 177.975 154.957 178.144C156.252 178.454 157.715 178.482 159.038 178.736C158.165 182.288 158.447 186.517 161.402 189.026C163.429 190.746 166.187 191.084 168.748 190.859C163.738 198.16 156.223 203.291 147.78 205.857C132.581 210.48 109.641 208.084 95.9624 199.795C95.2588 199.373 93.2322 197.737 92.613 197.737C86.7305 201.318 79.6095 205.49 72.5448 205.828C64.1291 206.223 58.2747 199.062 54.672 192.325C54.6157 192.099 54.6157 192.014 54.7846 191.817C55.066 191.507 56.3326 190.859 56.783 190.548C61.7085 187.137 66.3245 183.388 70.856 179.469C72.1508 180.569 73.0514 181.724 74.9654 181.724C77.0482 181.724 80.0035 179.272 80.1724 177.186C80.285 175.973 79.891 174.056 79.891 172.703C79.9754 161.455 85.2106 149.98 91.5435 140.931C91.9094 140.395 93.9922 137.435 94.3299 137.351C94.5833 137.294 97.7356 138.027 98.383 138.112C102.999 138.816 107.784 138.788 112.231 137.351C128.809 144.906 146.654 150.544 165.146 149.924L195.206 157.479H195.234Z" fill="#C8E3F2"/>
<path d="M199.146 135.546C199.765 134.531 201.989 132.614 201.848 131.43C201.736 130.5 200.666 130.359 200.019 130.951C199.371 131.543 198.33 133.235 197.598 134.052C182.287 151.108 154.9 149.558 134.748 143.581C124.671 140.593 111.471 135.715 102.971 129.541C102.464 129.175 100.212 127.23 99.9592 127.145C98.58 126.835 98.1015 128.16 98.974 129.09C100.128 130.331 102.577 131.881 104.04 132.812C105.757 133.911 107.615 134.757 109.247 135.913C103.646 136.9 97.9045 136.167 92.5004 134.503C88.2785 133.206 83.3248 130.923 80.088 127.878C79.9191 127.709 79.0184 126.891 79.131 126.722C83.944 124.241 86.1675 118.265 85.0698 113.049C86.1112 113.359 89.0947 114.543 89.9954 114.008C90.4739 113.726 90.5302 113.077 90.305 112.598C89.9954 111.978 87.6593 111.668 86.8993 111.414C82.396 110.005 79.0466 107.975 76.0349 104.31C74.2899 102.195 72.6574 99.63 71.9819 96.9517C77.1608 97.2619 81.1575 94.1608 84.5069 90.6086C85.6046 91.0597 86.6179 91.8208 87.7437 92.3283C88.5037 92.6948 90.108 93.5405 90.8961 93.2304C91.6842 92.9203 91.5716 91.7363 90.8961 91.3416C86.449 89.5937 82.3678 86.9718 79.7784 82.8558C78.8495 81.3617 77.9207 79.501 77.8081 77.7249C81.7204 77.4148 85.3794 75.3286 88.5318 73.1015C88.9259 72.8195 91.0931 70.9871 91.2901 70.9871C91.5435 70.9871 92.2753 72.5094 92.5004 72.8477C95.4839 77.3866 98.9459 79.1909 104.519 78.7962C114.877 78.0632 123.433 65.2078 122.532 55.3406C122.335 53.2262 121.012 53.6209 119.352 52.9725C117.466 52.2395 115.496 51.3374 114.032 49.9278C113.976 49.7023 114.651 49.364 114.848 49.2512C116.115 48.5182 117.691 48.0107 119.042 47.3623C122.814 47.4187 126.557 47.5033 130.301 47.306C135.029 51.0273 141.39 51.5065 147.188 51.7603C154.028 52.0704 165.624 52.1268 170.465 46.5448C170.944 45.9809 170.634 45.6708 171.563 45.8682C179.444 47.5315 188.732 54.805 193.911 60.8098C199.174 66.9275 202.665 74.1728 209.391 78.9936C211.502 80.5159 214.036 81.9255 216.653 82.0665C215.865 85.675 213.923 88.7197 211.249 91.2006C210.151 92.2155 208.463 93.174 207.534 94.1044C206.746 94.8937 207.083 96.0496 208.209 95.9932C208.885 95.965 209.898 94.8374 210.18 94.9783C210.348 95.0629 211.84 97.5156 212.206 97.9667C213.079 99.0379 214.43 100.25 215.668 100.87C216.175 101.124 217.638 101.462 217.863 101.632C218.032 101.744 218.004 101.829 217.976 101.998C217.863 102.9 216.738 104.986 216.231 105.804C214.092 109.102 210.742 111.358 207.252 113.049C206.464 113.416 205.254 113.5 205.31 114.628C205.367 115.84 206.689 115.643 207.478 115.361V119.759C207.478 121.873 208.969 124.89 210.574 126.243C210.855 126.497 212.122 127.202 212.178 127.286C212.431 127.709 210.489 130.105 210.095 130.528C208.237 132.643 204.522 135.546 201.595 135.546H199.231H199.146ZM185.777 85.083H183.807C179.922 85.083 176.883 80.7696 175.475 77.6122C175.138 76.8792 174.715 74.9903 174.124 74.6238C173.28 74.1164 172.436 74.7648 172.492 75.6951L174.659 89.8192C171.732 89.5655 168.608 88.9171 165.934 87.6766C159.882 84.8575 156.589 77.5276 154.478 71.5509C154.225 71.1844 153.69 71.0435 153.268 71.128C152.987 71.1844 152.902 71.4382 152.677 71.4945C150.059 72.2557 147.582 72.594 144.909 73.5807C121.829 82.1792 114.145 115.558 133.538 131.994C147.695 143.976 170.719 145.019 186.706 136.167C194.727 131.712 199.09 125.82 201.145 116.827C204.381 102.816 201.145 85.1676 188.254 77.1611C187.24 76.5409 184.004 74.2573 183.947 76.7382C184.341 79.5292 185.27 82.2638 185.721 85.0548L185.777 85.083Z" fill="#C8E3F2"/>
<path d="M169.283 14.6034C169.339 14.6316 169.621 15.5055 169.649 15.6465C169.931 16.8306 169.818 17.5917 169.818 18.7194C169.874 25.4291 169.874 32.1669 169.677 38.8766C169.593 42.2878 170.437 44.6841 167.088 46.6857C159.854 50.999 141.475 50.6325 133.875 47.1931C132.046 46.3474 130.216 44.966 130.019 42.8234C129.597 38.4819 130.104 32.9281 130.16 28.502C130.188 24.7243 129.766 19.8189 130.16 16.1821C130.188 15.8438 130.807 14.0959 131.033 14.0959C133.481 16.8869 138.041 17.6481 141.587 18.1274C147.695 18.9449 162.894 19.2551 167.96 15.6465C168.242 15.4492 168.974 14.4342 169.311 14.6598L169.283 14.6034ZM160.473 20.2136C159.826 19.6215 158.841 19.988 158.644 20.8056C158.503 21.3694 158.531 24.4705 158.644 25.0908C158.841 26.303 160.53 26.303 160.755 25.2035C160.896 24.5833 160.867 21.595 160.783 20.8902C160.755 20.6646 160.642 20.3545 160.473 20.1854V20.2136ZM159.263 27.0924C159.038 27.1488 158.672 27.5716 158.644 27.8254C158.756 29.1504 158.334 30.56 158.503 31.885C158.7 33.4919 160.502 33.5483 160.755 32.1105C160.896 31.3493 160.867 29.0094 160.783 28.22C160.699 27.3743 160.164 26.8387 159.263 27.0924ZM158.813 39.7223C159.404 40.3425 160.53 40.0324 160.642 39.1585C160.473 37.918 160.924 36.4239 160.783 35.268C160.558 33.5201 158.728 33.6047 158.531 35.127C158.419 35.9164 158.419 38.0872 158.531 38.9048C158.559 39.1585 158.672 39.5532 158.841 39.7505L158.813 39.7223ZM160.361 41.1601C159.77 40.5681 158.7 40.9628 158.531 41.7521C158.391 42.316 158.419 45.4171 158.531 46.0373C158.728 47.2777 160.417 47.1931 160.642 46.15C160.783 45.5298 160.755 42.7106 160.67 41.9777C160.67 41.7521 160.502 41.3011 160.361 41.1319V41.1601Z" fill="white"/>
<path d="M109.332 39.8068C109.782 40.3989 109.163 42.4287 109.107 43.218C108.628 50.2378 114.37 53.8464 120.281 55.6224C121.041 63.6853 114.398 74.4546 106.405 76.3716C102.943 77.1892 98.5237 76.7945 96.0187 74.0881C90.0517 67.6603 89.9391 56.4964 94.4706 49.2793C96.8068 45.558 101.423 41.9212 105.504 40.3143C106.32 39.976 108.684 39.0456 109.332 39.835V39.8068Z" fill="#AECDC5"/>
<path d="M227.18 156.493C225.547 157.423 224.253 158.889 223.211 160.44C220.059 165.119 217.301 174.141 218.764 179.666C218.877 180.061 219.355 181.02 219.355 181.217C219.355 181.414 218.933 182.288 218.849 182.457C218.286 183.585 217.638 184.149 216.344 184.262C211.221 184.713 205.451 183.923 200.272 184.262C199.597 184.205 198.189 183.754 197.964 183.049C197.823 182.627 197.908 181.302 198.161 180.963C198.217 180.879 199.709 180.258 200.019 180.089C205.873 176.678 212.178 164.471 206.886 158.692C206.492 158.269 205.592 157.818 205.62 157.282L209.617 144.342C210.095 143.186 210.348 142.792 211.643 142.707C217.357 142.284 223.577 143.045 229.347 142.707C230.107 142.763 230.811 142.989 230.895 143.863C230.135 148.148 228.334 152.236 227.236 156.465L227.18 156.493Z" fill="#9DAFB2"/>
<path d="M167.144 226.324C161.205 221.419 154.957 216.936 148.202 213.187C146.119 212.031 143.473 210.931 141.531 209.719C141.418 209.634 141.221 209.578 141.221 209.437C150.2 208.253 158.785 204.334 165.399 198.132C165.962 197.597 166.497 196.92 167.088 196.441C170.887 200.077 175.025 203.658 178.234 207.858C178.515 208.225 179.5 209.409 179.472 209.747C179.472 210.057 178.037 211.072 177.699 211.382C173.336 215.498 169.508 220.798 167.172 226.324H167.144Z" fill="#C8E3F2"/>
<path d="M131.764 10.149C129.963 11.6996 128.528 13.6448 128.105 16.0411C128.696 24.7524 127.289 34.2248 127.965 42.8233C128.049 43.7818 128.415 44.543 128.64 45.4452C124.446 45.5015 120.112 45.9244 116.087 44.4866C116.031 44.2893 116.087 44.1765 116.228 44.0074C116.819 43.1052 118.62 41.6675 119.408 40.7089C120.253 39.6376 120.253 39.6095 119.267 38.6791C118.17 37.6078 116.959 36.6775 115.834 35.6344C115.749 35.2961 120.168 31.4338 120.253 30.6163C120.281 30.278 119.661 29.7141 119.408 29.4886C118.986 29.0939 116.087 26.6694 116.087 26.4439C116.565 25.3726 120.365 22.7226 120.421 21.8204C120.421 21.6513 120.421 21.5385 120.281 21.4257L116.228 17.4789C116.171 17.0842 120.59 13.3911 120.647 12.7427C120.703 12.0942 118.479 10.6001 118.113 9.97986C122.617 10.741 127.205 10.2618 131.764 10.1208V10.149Z" fill="white"/>
<path d="M189.83 179.356C189.689 176.819 190.393 174.225 191.096 171.801C192.138 168.221 193.686 164.556 195.459 161.285C195.797 160.665 197.204 158.043 197.57 157.733C197.767 157.564 197.88 157.592 198.105 157.592C205.057 157.62 208.04 161.426 206.07 168.164C203.903 175.607 198.105 181.442 189.83 179.384V179.356Z" fill="white"/>
<path d="M184.792 209.465C187.663 209.127 190.505 211.185 189.858 214.258C189.464 216.062 187.325 217.303 186.03 218.543C182.821 221.616 180.654 224.745 177.783 228.015C176.657 229.284 174.293 231.991 172.576 232.132C170.859 232.272 168.748 230.412 168.748 228.692C168.748 225.845 173.505 219.22 175.363 216.936C177.361 214.512 181.639 209.832 184.792 209.465Z" fill="white"/>
<path d="M52.2514 192.099C52.167 192.24 50.2249 192.522 49.8871 192.522C47.9451 192.466 46.0874 190.887 45.4963 189.083C44.8208 187.053 46.2 186.207 47.748 185.248C50.3938 183.585 53.2084 182.514 55.7978 180.597C58.8376 178.37 62.384 174.113 65.3394 172.449C66.9156 171.575 67.4785 172.167 68.5762 173.38C69.2236 174.113 70.7716 176.227 70.2087 177.186C64.6076 182.063 58.8939 186.884 52.5329 190.718C51.8855 191.366 52.3077 192.071 52.2514 192.127V192.099Z" fill="white"/>
<path d="M205.62 149.896L203.593 156.465C203.424 156.577 202.327 156.098 201.989 156.014C199.991 155.562 198.161 155.534 196.135 155.534L181.442 151.841C181.133 151.616 181.442 147.669 181.302 146.992C183.553 146.175 185.777 145.244 187.972 144.229L205.62 149.896Z" fill="#C8E3F2"/>
<path d="M229.094 158.043C229.882 157.959 230.557 158.41 231.008 159.03C233.344 162.188 230.951 170.194 229.657 173.634C228.531 176.678 226.448 181.95 222.339 181.104C221.213 180.879 220.791 179.046 220.65 178.088C219.918 173.154 222.423 165.091 225.378 161.088C226.138 160.073 227.799 158.184 229.094 158.043Z" fill="white"/>
<path d="M147.414 8.824C152.508 8.57027 161.346 9.1623 165.934 11.4176C167.031 11.9533 168.382 12.6863 166.834 13.673C162.5 16.4922 151.438 16.8587 146.288 16.4922C143.389 16.2948 135.114 15.1954 133.115 13.1937C132.637 12.6863 132.609 12.4607 133.115 11.9815C135.451 9.81071 144.177 8.99315 147.385 8.824H147.414ZM148.089 10.8538C147.076 10.9384 143.783 11.3613 143.248 12.2352C142.769 13.0246 143.586 13.3347 144.205 13.5884C146.879 14.7161 153.437 14.8007 156.111 13.6166C158.588 12.5453 156.054 11.5868 154.732 11.2767C152.677 10.7974 150.172 10.6847 148.089 10.8538Z" fill="white"/>
<path d="M200.61 66.279L196.275 60.5278C193.348 56.9757 190.027 53.7618 186.283 51.0554L187.634 49.7022C188.563 48.5463 189.211 46.7139 189.38 45.2479C189.38 44.9942 189.098 44.4303 189.548 44.1766C190.111 43.8383 191.687 44.6559 192.25 44.9942C194.024 46.0091 195.769 47.9825 196.951 49.6176C200.385 54.4666 201.651 60.4715 200.61 66.3072V66.279Z" fill="#AECDC5"/>
<path d="M168.073 179.808C168.636 182.006 168.608 186.179 172.013 185.079C172.126 185.192 170.69 187.899 170.522 188.096C170.212 188.491 168.58 188.688 168.045 188.716C162.613 189.083 160.417 185.982 160.811 180.794C160.811 180.512 161.036 179.272 161.149 179.103C161.374 178.793 167.228 179.836 168.073 179.808Z" fill="white"/>
<path d="M179.162 147.584V151.249L171.197 149.276L179.162 147.584Z" fill="#C8E3F2"/>
<path d="M173.477 180.343C173.702 180.54 171.619 182.824 171.31 182.993C171.197 183.049 170.972 183.106 170.916 183.049C170.719 182.909 170.353 180.484 170.24 180.089L173.477 180.371V180.343Z" fill="#C8E3F2"/>
<path d="M185.777 85.0829C185.326 82.2919 184.398 79.5573 184.004 76.7663C184.088 74.2855 187.325 76.569 188.31 77.1892C201.201 85.1957 204.41 102.844 201.201 116.855C199.118 125.848 194.784 131.74 186.762 136.195C170.775 145.075 147.751 144.004 133.594 132.022C114.201 115.615 121.913 82.2074 144.965 73.6089C147.611 72.6221 150.116 72.2838 152.733 71.5227C152.93 71.4663 153.043 71.2125 153.324 71.1562C153.746 71.0716 154.281 71.1844 154.535 71.579C156.646 77.5557 159.939 84.8856 165.99 87.7048C168.664 88.9452 171.788 89.5936 174.715 89.8474L172.548 75.7232C172.464 74.7929 173.336 74.1445 174.181 74.652C174.772 75.0184 175.194 76.9073 175.532 77.6403C176.939 80.7978 179.979 85.1111 183.863 85.1111H185.833L185.777 85.0829ZM175.785 82.5175C175.954 85.0829 176.939 88.0149 176.995 90.5521C176.995 91.4261 176.854 92.0745 175.841 92.1027C173.139 92.2155 167.988 90.8904 165.483 89.791C159.151 87 155.463 80.2339 153.127 74.0317C152.902 73.4679 152.086 73.8344 151.607 73.919C137.056 76.8227 127.008 88.0713 125.037 102.759C120.393 137.492 164.752 149.107 188.704 132.473C198.611 125.595 201.229 113.049 199.934 101.547C198.893 92.4692 194.952 83.4196 186.79 78.7398C186.565 78.7116 186.565 78.7398 186.593 78.9371C186.875 81.1643 187.916 83.7015 188.226 85.9851C188.282 87.6766 185.27 87.3383 184.116 87.2537C180.513 86.9718 178.037 85.2239 175.813 82.5175H175.785Z" fill="#4E4F4E"/>
<path d="M159.263 27.0924C160.164 26.8386 160.699 27.3743 160.783 28.22C160.867 29.0094 160.896 31.3493 160.755 32.1105C160.502 33.5201 158.672 33.4637 158.503 31.885C158.334 30.56 158.785 29.1504 158.644 27.8254C158.7 27.5998 159.066 27.1769 159.263 27.0924Z" fill="#4E4F4E"/>
<path d="M158.813 39.7222C158.644 39.5531 158.531 39.1302 158.503 38.8765C158.419 38.0589 158.419 35.8881 158.503 35.0988C158.728 33.5482 160.558 33.4918 160.755 35.2397C160.896 36.4238 160.445 37.8898 160.614 39.1302C160.502 40.0041 159.348 40.3424 158.785 39.694L158.813 39.7222Z" fill="#4E4F4E"/>
<path d="M160.473 20.2135C160.642 20.3545 160.755 20.6928 160.783 20.9183C160.867 21.5949 160.896 24.6114 160.755 25.2317C160.502 26.3311 158.813 26.303 158.644 25.1189C158.56 24.4987 158.531 21.3976 158.644 20.8337C158.813 20.0162 159.826 19.6497 160.473 20.2417V20.2135Z" fill="#4E4F4E"/>
<path d="M160.361 41.1601C160.502 41.301 160.642 41.7803 160.67 42.0058C160.755 42.7388 160.783 45.558 160.642 46.1782C160.417 47.2213 158.7 47.3059 158.531 46.0654C158.447 45.4452 158.419 42.3441 158.531 41.7803C158.7 40.9909 159.77 40.5962 160.361 41.1882V41.1601Z" fill="#4E4F4E"/>
<path d="M148.089 10.8539C150.172 10.7129 152.677 10.7975 154.732 11.2768C156.054 11.5869 158.588 12.5454 156.111 13.6167C153.437 14.7726 146.879 14.7162 144.205 13.5885C143.614 13.3348 142.769 13.0247 143.248 12.2353C143.783 11.3613 147.076 10.9385 148.089 10.8539Z" fill="#4E4F4E"/>
<path d="M175.785 82.5174C178.008 85.2238 180.485 86.9717 184.088 87.2537C185.27 87.3382 188.254 87.6765 188.197 85.985C187.888 83.7015 186.846 81.1642 186.565 78.9371C186.565 78.7115 186.565 78.7115 186.762 78.7397C194.924 83.4196 198.893 92.4691 199.906 101.547C201.201 113.049 198.583 125.595 188.676 132.473C164.723 149.106 120.337 137.491 125.009 102.759C126.979 88.0712 137.028 76.8227 151.579 73.9189C152.058 73.8344 152.874 73.4679 153.099 74.0317C155.407 80.2339 159.122 87.0281 165.455 89.7909C167.988 90.8904 173.111 92.2154 175.813 92.1027C176.826 92.0745 176.995 91.426 176.967 90.5521C176.911 88.0148 175.898 85.0829 175.757 82.5174H175.785ZM150.116 97.5719C142.629 98.2767 143.361 116.855 151.326 114.487C155.914 113.134 156.364 104.338 154.76 100.701C153.972 98.8969 152.17 97.4027 150.116 97.5719ZM185.467 97.5719C179.331 98.0511 178.825 112.767 184.313 114.487C191.913 116.883 193.179 96.9516 185.467 97.5719ZM171.563 112.203C170.465 112.232 167.876 112.429 167.594 113.782C167.172 115.925 171.788 116.178 173.139 116.094C174.406 115.981 177.08 115.305 176.489 113.557C176.038 112.203 172.773 112.175 171.563 112.203Z" fill="white"/>
<path d="M150.116 97.5718C152.17 97.3745 153.972 98.8968 154.76 100.701C156.364 104.338 155.942 113.134 151.326 114.487C143.332 116.855 142.629 98.2766 150.116 97.5718ZM149.553 100.137C146.569 100.617 147.217 105.155 150.172 104.817C153.296 104.479 152.677 99.6298 149.553 100.137Z" fill="#4E4F4E"/>
<path d="M185.467 97.5719C193.179 96.9517 191.913 116.883 184.313 114.487C178.825 112.767 179.331 98.0512 185.467 97.5719ZM184.932 100.137C181.949 100.617 182.596 105.156 185.552 104.817C188.676 104.479 188.057 99.6299 184.932 100.137Z" fill="#4E4F4E"/>
<path d="M171.563 112.203C172.773 112.175 176.01 112.203 176.489 113.557C177.08 115.305 174.406 115.981 173.139 116.094C171.788 116.207 167.172 115.953 167.594 113.782C167.876 112.429 170.465 112.232 171.563 112.203Z" fill="#4E4F4E"/>
<path d="M149.553 100.137C152.677 99.6299 153.296 104.507 150.172 104.817C147.048 105.127 146.569 100.588 149.553 100.137Z" fill="white"/>
<path d="M184.932 100.137C188.057 99.6299 188.676 104.507 185.552 104.817C182.427 105.127 181.949 100.588 184.932 100.137Z" fill="white"/>
<defs>
<filter id="filter0_f_1_1762" x="0" y="224.148" width="222.932" height="27.1659" filterUnits="userSpaceOnUse" color-interpolation-filters="sRGB">
<feFlood flood-opacity="0" result="BackgroundImageFix"/>
<feBlend mode="normal" in="SourceGraphic" in2="BackgroundImageFix" result="shape"/>
<feGaussianBlur stdDeviation="2" result="effect1_foregroundBlur_1_1762"/>
</filter>
</defs>
</svg>
