<svg width="235" height="293" viewBox="0 0 235 293" fill="none" xmlns="http://www.w3.org/2000/svg">
<g opacity="0.2" filter="url(#filter0_f_12_1264)">
<ellipse cx="117.5" cy="278.648" rx="113.5" ry="10.1012" fill="#4C4C4C"/>
</g>
<path d="M191.296 157.517V161.053C191.296 161.282 193.234 163.999 193.589 164.686C198.886 175.488 196.884 191.986 187.582 200.006C182.834 204.097 177.182 204.294 171.239 204.163C170.884 204.163 170.528 203.901 170.302 204.163C169.075 213.099 166.394 222.265 161.291 229.728C161.001 230.121 159.644 231.725 159.579 231.921C159.515 232.183 159.579 232.314 159.676 232.543C159.999 233.361 161.259 234.965 161.743 235.947C164.521 241.283 165.038 246.291 164.65 252.314C164.424 255.915 163.197 259.516 161.873 262.822C161.873 263.215 162.389 263.346 162.648 263.607C164.23 265.146 165.748 266.586 166.039 268.976C167.331 280.04 158.384 281.251 149.89 281.611C144.335 281.84 131.092 282.004 126.506 279.058C122.017 276.177 121.565 268.91 124.762 264.949C125.279 264.295 126.635 263.346 126.926 262.756C127.766 261.12 128.606 256.864 128.315 255.064C127.701 251.038 121.888 248.223 118.464 247.077V253.133C118.464 253.558 118.044 255.031 117.883 255.522C116.817 259.188 114.459 262.036 111.81 264.622C112.392 265.473 113.135 266.062 113.619 266.979C116.946 273.362 112.456 279.778 105.965 280.825C98.6006 282.004 89.1372 281.84 81.6764 281.48C76.6379 281.218 68.3695 280.825 67.7882 274.017C67.3683 268.91 68.0466 266.161 71.664 262.691C73.4726 260.956 74.0217 260.301 75.249 258.01C77.5745 253.689 79.577 249.27 77.8006 244.36C74.3447 234.736 66.3348 229.663 60.8118 221.839C47.8602 203.443 51.1547 182.788 61.3932 164.064C62.5882 161.871 64.0416 159.776 65.1397 157.583C61.6515 156.437 58.1956 154.637 55.2565 152.476C53.8677 151.462 50.6702 148.777 49.9273 147.337C49.5397 146.584 49.5075 144.98 49.895 144.26C50.7025 142.787 53.0602 142.067 54.2553 140.889C56.613 138.532 58.131 133.36 56.5484 130.283C52.7373 128.548 49.4106 125.537 46.7298 122.329C44.6304 119.808 41.4652 114.996 41.1422 111.657C40.9808 109.955 40.9162 108.515 42.4665 107.533C43.5 106.878 45.5994 107.304 46.9236 107.173C50.0565 106.846 52.8342 104.783 55.0627 102.721C51.8006 99.5132 47.9571 94.9305 47.505 90.1514C47.4081 89.1366 47.3112 86.9435 47.8602 86.1579C49.0553 84.5212 49.5075 85.1104 51.0901 84.8812C55.9671 84.1938 60.0689 80.9859 63.8155 77.9744C61.49 68.7108 62.1683 58.3669 68.2404 50.7399C72.0515 45.9281 80.6751 38.9231 87.0702 39.5123C88.8465 39.6759 91.2689 41.6727 91.4627 43.5058C91.6565 45.3389 91.1397 47.3029 91.1397 49.0051C91.1397 49.2342 91.5273 50.9036 91.5919 50.9691C92.1087 51.3619 92.0441 49.8234 92.0764 49.6597C92.3024 48.6777 95.5968 45.5353 95.5968 45.2407C94.854 44.3241 91.7857 42.3928 91.495 41.4108C91.3658 41.018 91.3658 39.8723 91.4304 39.4468C91.5919 38.3666 95.0155 35.977 95.4354 34.6022C95.3708 34.1439 91.6888 31.8526 91.4627 30.7724C91.3335 30.2486 91.3658 28.7756 91.5919 28.3173C91.9795 27.5317 95.3062 24.8803 95.3062 24.3566C95.3062 23.8328 91.8826 21.4433 91.4627 20.5594C91.1397 19.9375 91.1397 18.3336 91.5919 17.7443L95.3062 13.8163L90.5906 9.49544C90.4614 9.20084 90.4614 7.30228 90.4937 6.90948C90.5906 6.2548 92.0764 4.87999 92.7546 4.78179C94.5956 4.55265 94.7894 5.14186 96.2105 5.69833C99.6018 7.07315 105.06 6.61488 108.71 6.35301C119.271 5.63286 129.155 3.27603 139.845 3.66884C148.307 3.96344 158.578 5.04366 161.42 14.6346L162.163 45.7644C166.039 47.3029 169.85 48.9723 173.468 51.0673C174.114 50.9363 174.727 48.1867 174.792 47.5648C174.856 47.041 174.727 46.4191 174.824 45.8626C175.018 44.9461 176.827 43.0475 177.731 42.8184C185.03 41.1162 192.523 51.0018 194.978 56.9266C197.045 61.9676 197.336 66.7795 196.948 72.1805C196.884 72.9661 196.464 74.3082 196.819 74.9956C197.11 75.5521 198.692 77.3525 199.209 77.9089C202.051 81.0841 206.605 85.2086 210.869 86.0269C212.71 86.387 214.002 85.6996 215.229 87.4017C216.133 88.6456 215.617 90.8715 215.294 92.3118C214.26 96.8945 211.87 100.888 208.479 104.03C209.577 105.896 210.804 107.566 212.839 108.351C213.872 108.744 215.584 108.842 216.327 109.366C217.651 110.315 217.813 111.265 217.716 112.836C217.361 119.415 211.579 125.307 206.476 128.777C205.798 129.497 206.121 132.018 206.25 133.065C206.476 134.767 206.961 136.862 208.317 138.041C209.383 138.957 211.902 139.383 212.354 140.856C212.484 141.314 212.484 143.245 212.419 143.769C212.032 146.192 207.058 151.658 205.152 153.36C201.147 156.895 196.496 158.172 191.199 157.517H191.296ZM133.644 7.89149C129.316 8.08789 118.496 9.20084 115.266 12.0159C114.75 12.4415 114.427 12.8016 114.943 13.4235C116.978 15.7476 127.217 16.8278 130.35 16.9587C136.422 17.2206 147.855 16.4677 153.152 13.358C155.316 12.0814 154.896 11.4595 152.829 10.4775C147.952 8.15336 139.006 7.66235 133.644 7.89149ZM113.522 10.0519C108.29 10.412 102.961 11.0994 97.7285 10.3793C98.3422 11.2303 100.054 12.1141 100.538 12.9652C100.7 13.2598 100.732 13.3908 100.668 13.7181C100.506 14.5037 96.7273 17.8753 96.049 18.7591C95.9198 18.89 95.8552 19.0537 95.9198 19.2174C95.9844 19.4465 98.9559 21.8688 99.408 22.2943C100.248 23.1127 101.314 23.6692 100.506 24.8148C99.9571 25.5677 95.9521 29.103 95.9521 29.4303L100.668 33.5875C100.894 33.7839 100.926 34.013 100.894 34.3076C100.861 35.1914 96.695 39.054 96.0813 40.1015C96.1459 40.4288 99.8279 43.3421 100.409 43.8986C101.507 44.9788 100.894 45.2079 100.086 46.2554C99.1173 47.532 97.8254 48.7432 96.7596 49.9543C96.695 50.0525 96.6627 50.2162 96.695 50.3471C96.9211 51.1328 102.379 51.4274 103.284 51.5256L111.1 51.1982C110.712 49.8889 110.26 48.7432 110.163 47.3684C109.743 41.2144 110.163 34.7004 109.873 28.5137C109.937 24.8476 109.194 20.3303 109.55 16.7296C109.808 14.2418 111.778 11.6559 113.587 10.0519H113.522ZM156.576 13.8163C154.799 15.7803 152.442 16.6641 149.955 17.3843C141.557 19.7738 123.535 20.5267 115.589 16.8278C114.362 16.2713 113.684 15.6167 112.683 14.7656C112.392 14.831 111.843 16.6641 111.81 17.0242C111.488 20.4612 112.069 25.0767 112.133 28.6447C112.23 33.3256 112.327 37.9738 112.456 42.622C112.586 47.1392 111.552 50.0853 116.171 52.5076C124.374 56.7957 144.076 56.2065 152.571 52.6712C155.413 51.4928 158.126 49.6925 158.158 46.2554C158.223 39.1522 157.706 31.5907 157.512 24.422C157.448 21.7051 157.771 18.3008 157.319 15.6494C157.222 14.9947 156.705 14.471 156.576 13.8163ZM100.183 62.1968C93.6913 60.5273 87.167 56.5993 86.8764 49.0705C86.8441 47.9903 87.6192 45.3061 87.2639 44.4551C86.7472 43.2112 84.4863 44.1605 83.582 44.4878C71.0826 49.1033 64.3646 62.3277 67.8528 75.4212C68.8863 79.2838 71.9546 85.0449 75.895 86.4197C89.5248 91.1334 101.184 74.6356 100.151 62.1968H100.183ZM192.685 72.246C193.073 68.2198 192.879 64.259 191.619 60.3964C190.036 55.6173 186.032 49.4306 181.284 47.4666C178.441 46.2882 179.281 47.3356 178.991 49.4961C178.797 50.8054 177.957 52.8349 177.117 53.8824L175.987 55.0608C181.09 58.6615 185.612 63.146 189.455 68.0888C190.392 69.2672 191.328 70.9039 192.265 71.9841C192.394 72.1478 192.394 72.3115 192.717 72.246H192.685ZM173.242 94.7013C174.146 94.7995 175.179 94.6359 176.116 94.7013L173.823 85.7978C173.468 84.3902 174.34 83.3755 175.761 83.8338C177.473 84.3902 180.961 86.8453 182.446 88.0564C194.623 97.7129 197.659 117.713 194.3 132.247C192.814 138.695 189.875 144.849 184.933 149.301L186.936 151.2C187.485 151.953 188.099 152.706 188.325 153.622C188.551 153.688 188.583 153.557 188.712 153.458C189.1 153.197 189.907 152.28 190.263 151.887C191.328 150.709 192.491 148.614 193.492 147.632C194.494 146.65 195.882 147.272 195.559 148.777L192.653 152.967C197.659 153.229 201.632 150.676 204.829 147.01C205.281 146.486 207.316 143.769 207.348 143.278C207.348 142.951 206.25 142.493 205.927 142.263C201.728 139.186 201.405 134.145 201.47 129.268C200.727 129.596 199.532 129.89 199.112 128.908C198.434 127.337 200.889 126.846 201.89 126.289C206.993 123.474 212.096 119.153 213.259 113.065C209.157 112.508 206.089 109.071 204.28 105.536C203.828 105.209 202.084 107.762 200.889 106.387C200.372 105.798 200.533 105.209 201.05 104.652C201.987 103.638 203.86 102.525 205.023 101.444C208.188 98.4003 210.32 94.7995 211.289 90.446C207.09 90.1841 203.182 87.6309 200.049 84.9467C194.203 79.9384 190.392 73.0971 185.386 67.3032C178.571 59.3817 169.592 52.8676 159.676 49.627C157.674 53.8169 153.184 55.4863 148.986 56.4683C142.558 57.9414 135.776 58.1378 129.219 57.8104C123.535 57.5158 117.463 56.8939 112.779 53.2604C109.13 53.5223 105.286 53.9479 101.637 53.7514C100.765 53.7187 97.8577 53.064 97.3732 53.195C96.8565 53.3259 93.9819 54.8644 93.336 55.2245C93.1422 55.3227 92.4639 55.6173 92.5608 55.8464C92.7546 56.3374 96.0167 58.105 96.695 58.4324C98.2453 59.1198 100.022 59.4471 101.443 60.0691C102.541 60.5601 102.573 61.673 102.638 62.786C103.607 76.8615 89.977 93.9812 74.9907 88.7766C71.5348 87.5981 68.9509 83.8665 67.2391 80.7568C62.8789 84.5866 57.7758 88.5474 51.8329 89.0712C52.9633 95.0287 57.5497 99.7096 62.6851 102.492C63.977 103.212 66.3994 103.932 67.4006 104.62C68.4018 105.307 68.0143 106.715 66.9807 106.813C66.1733 106.911 64.7845 106.224 64.0093 105.896C63.3956 105.634 60.1335 103.769 59.8751 103.801C56.3546 108.155 51.5099 111.788 45.664 111.494C46.7944 114.898 48.7646 117.975 51.1547 120.594C54.5137 124.325 58.2602 126.42 63.0404 127.861C63.8801 128.122 66.6577 128.548 67.0453 129.006C67.8205 129.89 67.1745 131.069 66.0441 131.101C64.6876 131.101 62.5559 130.119 61.1671 129.857C62.6851 136.011 60.1335 142.591 54.8043 145.962C54.7397 146.257 56.4515 147.665 56.7422 147.926C64.5584 154.244 79.5447 158.074 89.2664 155.782C89.4925 155.717 89.5248 155.881 89.4925 155.488C87.0702 154.408 84.7124 153.131 82.4838 151.691C81.3211 150.938 77.8006 148.679 77.1869 147.632C76.5733 146.584 77.4453 145.57 78.5434 145.799C78.8987 145.864 80.5782 147.435 81.095 147.795C87.1347 152.149 94.4664 155.455 101.411 158.139C118.464 164.784 137.617 169.629 156.059 167.763C157.48 167.632 158.901 167.37 160.322 167.141C159.547 164.981 159.935 162.722 160.322 160.562C140.524 164.391 115.105 156.765 106.966 136.535C99.1173 117.058 108.064 92.0826 127.12 83.31C130.737 81.6406 133.935 81.1169 137.584 79.9384C138.36 79.6766 138.844 78.8255 139.781 79.873C142.397 86.7143 146.24 95.0942 153.249 98.2366C156.446 99.6769 160.096 100.332 163.584 100.561L160.645 84.292C160.387 82.8517 161.873 82.2298 162.777 83.2118C164.392 87.9582 167.751 94.1776 173.242 94.7341V94.7013ZM138.166 82.2953C134.678 83.0481 131.222 84.0629 127.992 85.5686C112.101 92.901 103.801 112.541 107.386 129.596C111.811 150.611 133.45 159.841 152.958 158.925C154.218 158.859 161.097 158.172 161.711 157.616C162.099 157.256 162.712 156.044 163.164 155.488C166.879 151.036 174.469 147.632 180.218 147.959C180.799 147.959 182.091 148.385 182.446 148.221C192.168 140.169 194.268 125.373 192.653 113.392C191.232 102.819 186.355 92.3118 176.73 87.2381C176.439 87.5981 179.12 94.9632 178.7 96.4035C178.345 97.5819 174.889 97.3855 173.855 97.32C170.851 97.1236 168.3 95.9452 166.104 93.8503C165.522 93.2938 165.167 92.5737 164.489 92.1154L166.168 102.034C165.91 103.441 164.133 103.147 163.035 103.081C159.805 102.918 155.542 101.936 152.571 100.626C145.271 97.451 140.879 89.5294 138.166 82.328V82.2953ZM177.473 150.48C170.044 151.265 159.612 158.663 162.906 167.338C166.136 175.848 176.407 172.509 181.833 168.385C189.423 162.624 189.294 149.236 177.473 150.447V150.48ZM131.512 181.708C125.279 182.722 117.043 182.722 115.008 175.259C114.556 173.557 114.491 171.462 114.62 169.694C114.685 168.68 115.46 166.421 115.396 165.766C115.396 165.57 115.331 165.472 115.137 165.406C107.612 163.148 100.215 160.463 93.013 157.288C85.9074 159.809 78.2205 159.089 71.018 157.386C70.7273 157.419 70.049 158.499 69.823 158.859C66.9807 162.886 64.2354 168.025 62.2329 172.542C54.9981 188.974 54.0292 204.425 64.7199 219.548C68.4341 224.851 73.6018 228.844 77.413 234.311C82.8391 242.069 84.777 247.732 80.8366 256.864C79.8354 259.188 78.4143 261.152 77.2838 263.313C77.2192 263.476 77.0254 263.444 77.2838 263.64C84.5186 264.164 91.818 264.622 99.0527 264.36C100.571 264.295 104.673 264.098 105.932 263.64C107.192 263.182 110.034 260.334 110.906 259.254C115.589 253.427 115.008 247.535 111.907 241.119C111.455 240.17 110.163 239.057 111.423 238.141C113.006 236.962 113.974 240.105 114.588 241.054C122.146 241.872 130.124 241.545 137.52 239.81C145.562 237.911 152.926 234.114 157.706 227.109C166.62 214.016 168.074 193.361 166.491 177.91C166.427 177.223 166.233 174.768 166.039 174.342C165.974 174.244 164.327 173.295 163.94 172.968C162.809 172.018 161.937 170.775 161.13 169.531C146.725 171.92 131.868 170.251 117.915 166.225C116.881 168.974 116.494 172.542 117.56 175.357C119.562 180.66 126.958 180.071 131.48 179.187C133.386 178.827 134.064 178.369 135.743 177.714C139.038 176.372 142.817 176.863 145.691 178.86C147.048 179.809 146.369 179.875 148.243 180.202C168.946 183.966 162.196 206.127 150.891 216.602C149.276 218.108 144.948 221.577 142.978 222.265C142.461 222.428 142.042 222.527 141.525 222.265C141.105 222.101 139.296 220.268 138.844 219.81C136.519 217.355 134.613 214.474 132.869 211.594C118.432 215.882 98.5037 216.569 89.008 202.526C88.2975 201.479 86.1658 197.878 86.1981 196.732C86.1981 195.881 87.1347 195.194 87.9422 195.587C88.5559 195.914 89.3956 198.336 89.8478 199.155C97.1795 212.739 114.459 213.328 127.733 210.382C130.091 209.859 132.417 209.171 134.71 208.418C134.871 208.189 133.838 207.338 133.644 207.076C129.348 201.675 128.509 193.852 129.671 187.174C129.994 185.276 130.576 183.41 131.48 181.708H131.512ZM172.305 175.095C171.142 175.194 169.85 175.03 168.655 175.095C169.269 181.02 169.56 186.945 169.43 192.935L168.946 199.449C175.373 200.628 182.963 199.744 187.13 194.114C189.552 190.808 191.522 185.243 192.007 181.151C192.685 175.357 191.393 169.302 188.228 164.457L185.612 168.221C182.963 171.266 176.278 174.735 172.305 175.128V175.095ZM139.07 179.383C134.742 179.744 132.966 183.082 132.191 187.01C130.996 193.132 131.609 200.824 135.743 205.701C138.941 209.466 145.336 211.07 148.178 206.061C152.119 199.089 149.955 178.467 139.038 179.383H139.07ZM149.147 182.951C151.989 188.287 152.926 194.736 152.215 200.759C151.408 207.731 147.597 213.394 139.878 211.266C139.232 211.102 137.423 210.153 137.132 210.153C136.874 210.153 135.55 210.611 135.517 210.873C135.453 211.233 138.166 214.998 138.618 215.554C139.102 216.143 142.042 219.581 142.429 219.711C142.784 219.81 144.302 218.762 144.722 218.468C152.151 213.59 158.643 204.818 159.192 195.619C159.612 188.974 155.51 183.999 149.115 182.984L149.147 182.951ZM156.253 263.771C156.382 263.64 157.157 262.233 157.286 261.938C162.034 253.002 161.582 241.741 155.122 233.82C146.273 241.414 134.322 243.705 122.986 243.869L125.602 245.375C128.573 247.241 131.803 249.99 132.514 253.591C133.224 257.224 132.126 260.825 131.189 264.262C135.356 264.458 139.49 264.688 143.656 264.589C146.822 264.524 150.374 264.36 153.572 264.098C154.056 264.066 156.059 263.935 156.253 263.738V263.771ZM74.7646 265.899C72.0192 267.568 70.7273 273.558 73.5695 275.522C76.8639 277.814 89.654 277.323 93.9173 277.159C97.8254 277.028 105.222 277.257 108.387 275.031C111.488 272.871 110.648 268.485 107.483 266.881C104.899 265.571 101.12 266.881 98.2776 266.815C93.885 266.815 89.4925 266.815 85.1 266.652L74.7646 265.899ZM157.189 266.226C152.086 266.39 146.919 267.077 141.815 267.143C138.166 267.208 134.581 266.783 130.963 266.652C129.574 266.619 128.993 266.619 128.089 267.83C126.991 269.369 126.668 272.806 127.863 274.344C129.93 276.995 139.296 277.257 142.558 277.323C146.143 277.421 156.414 277.257 159.256 275.555C163.617 272.937 162.131 266.062 157.157 266.226H157.189Z" fill="#4E4F4E"/>
<path d="M173.245 94.7008C167.755 94.1444 164.364 87.925 162.781 83.1786C161.877 82.1966 160.391 82.8185 160.649 84.2588L163.588 100.527C160.1 100.298 156.45 99.6436 153.253 98.2033C146.244 95.0609 142.401 86.6811 139.785 79.8397C138.848 78.7922 138.364 79.6761 137.588 79.9052C133.939 81.0836 130.741 81.6073 127.124 83.2768C108.1 92.0167 99.1213 116.993 106.97 136.502C115.109 156.731 140.527 164.358 160.326 160.528C159.939 162.722 159.551 164.98 160.326 167.108C158.905 167.337 157.484 167.599 156.063 167.73C137.621 169.628 118.5 164.751 101.414 158.106C94.5027 155.422 87.171 152.116 81.099 147.762C80.5822 147.402 78.9027 145.864 78.5474 145.765C77.4816 145.536 76.6096 146.584 77.1909 147.599C77.7723 148.613 81.3251 150.905 82.4878 151.658C84.7164 153.098 87.0741 154.407 89.4965 155.455C89.5288 155.88 89.4965 155.717 89.2704 155.749C79.5487 158.041 64.5624 154.211 56.7462 147.893C56.4232 147.631 54.7437 146.224 54.8083 145.929C60.1052 142.59 62.6568 135.978 61.1711 129.824C62.5599 130.086 64.6916 131.068 66.0481 131.068C67.1785 131.068 67.8245 129.857 67.0493 128.973C66.6617 128.548 63.8841 128.089 63.0443 127.827C58.2642 126.387 54.5176 124.292 51.1586 120.56C48.7686 117.909 46.7661 114.865 45.668 111.461C51.5139 111.722 56.3263 108.089 59.8791 103.768C60.1375 103.735 63.3996 105.568 64.0133 105.863C64.7884 106.19 66.2096 106.878 66.9847 106.78C68.0183 106.681 68.3735 105.274 67.4046 104.586C66.4356 103.899 63.981 103.146 62.6891 102.459C57.586 99.6764 52.9673 94.9954 51.8369 89.0379C57.7798 88.4814 62.8829 84.5206 67.2431 80.7235C68.9549 83.8332 71.5387 87.5649 74.9946 88.7433C90.0133 93.9152 103.643 76.7955 102.642 62.7527C102.577 61.6398 102.545 60.5268 101.447 60.0358C100.026 59.4139 98.2493 59.1193 96.699 58.3991C96.0207 58.1045 92.7586 56.3369 92.5648 55.8132C92.4679 55.584 93.1462 55.2894 93.34 55.1912C93.9859 54.8311 96.8605 53.2599 97.3772 53.1617C97.8617 53.0635 100.769 53.6855 101.641 53.7182C105.323 53.9146 109.134 53.4891 112.783 53.2272C117.434 56.8934 123.506 57.4826 129.223 57.7772C135.78 58.1373 142.53 57.9081 148.99 56.4351C153.188 55.4531 157.678 53.7837 159.68 49.5938C169.596 52.8344 178.575 59.3484 185.39 67.27C190.363 73.0638 194.175 79.9379 200.053 84.9134C203.186 87.5976 207.094 90.1509 211.293 90.4127C210.324 94.7663 208.192 98.367 205.027 101.411C203.896 102.491 202.023 103.604 201.054 104.619C200.537 105.143 200.376 105.765 200.893 106.354C202.088 107.729 203.832 105.176 204.284 105.503C206.125 109.038 209.161 112.475 213.263 113.032C212.1 119.087 206.997 123.441 201.894 126.256C200.893 126.813 198.438 127.271 199.116 128.875C199.536 129.857 200.731 129.562 201.474 129.235C201.377 134.112 201.7 139.153 205.899 142.23C206.222 142.492 207.352 142.918 207.32 143.245C207.288 143.736 205.221 146.453 204.801 146.977C201.635 150.676 197.663 153.196 192.657 152.934L195.563 148.744C195.886 147.238 194.562 146.584 193.496 147.599C192.431 148.613 191.332 150.643 190.267 151.854C189.911 152.247 189.104 153.163 188.716 153.425C188.587 153.523 188.555 153.654 188.329 153.589C188.103 152.64 187.457 151.919 186.94 151.167L184.937 149.268C189.879 144.849 192.818 138.695 194.304 132.214C197.663 117.647 194.595 97.6796 182.45 88.0232C180.965 86.8447 177.477 84.357 175.765 83.8005C174.344 83.3422 173.472 84.3242 173.827 85.7645L176.12 94.6681C175.183 94.6026 174.15 94.7663 173.245 94.6681V94.7008Z" fill="#C8E3F3"/>
<path d="M131.515 181.705C130.611 183.407 130.03 185.272 129.707 187.171C128.576 193.849 129.384 201.672 133.679 207.073C133.873 207.302 134.939 208.186 134.745 208.415C132.452 209.168 130.126 209.856 127.769 210.379C114.494 213.325 97.2147 212.736 89.883 199.152C89.4309 198.333 88.6234 195.878 87.9775 195.584C87.17 195.191 86.2334 195.845 86.2334 196.729C86.2334 197.842 88.3327 201.476 89.0433 202.523C98.5389 216.566 118.467 215.879 132.904 211.59C134.648 214.504 136.554 217.352 138.879 219.807C139.299 220.265 141.14 222.098 141.56 222.262C142.077 222.491 142.497 222.393 143.013 222.262C144.951 221.607 149.312 218.104 150.926 216.599C162.231 206.124 168.981 183.93 148.278 180.199C146.437 179.871 147.083 179.806 145.726 178.857C142.852 176.827 139.073 176.369 135.779 177.711C134.099 178.398 133.421 178.824 131.515 179.184C126.994 180.068 119.597 180.657 117.595 175.354C116.529 172.539 116.917 168.971 117.95 166.221C131.903 170.248 146.76 171.917 161.165 169.528C161.972 170.771 162.844 172.015 163.975 172.965C164.362 173.292 166.01 174.208 166.074 174.339C166.268 174.765 166.462 177.22 166.526 177.907C168.109 193.325 166.656 214.013 157.741 227.106C152.994 234.078 145.597 237.876 137.555 239.807C130.159 241.575 122.181 241.869 114.623 241.051C114.01 240.102 113.041 236.959 111.458 238.137C110.199 239.054 111.458 240.167 111.943 241.116C115.043 247.565 115.625 253.424 110.941 259.251C110.069 260.331 107.195 263.179 105.968 263.637C104.74 264.095 100.606 264.292 99.088 264.357C91.8209 264.619 84.5216 264.194 77.3191 263.637C77.0607 263.441 77.2545 263.473 77.3191 263.31C78.4172 261.117 79.8706 259.185 80.8719 256.861C84.8122 247.696 82.8744 242.066 77.4483 234.308C73.6371 228.841 68.4694 224.848 64.7551 219.545C54.0967 204.389 55.0334 188.971 62.2682 172.539C64.2706 168.022 67.016 162.883 69.8582 158.856C70.1166 158.529 70.7626 157.449 71.0532 157.383C78.2557 159.118 85.9427 159.838 93.0483 157.285C100.218 160.493 107.647 163.177 115.172 165.403C115.366 165.469 115.431 165.567 115.431 165.763C115.463 166.418 114.72 168.677 114.656 169.691C114.526 171.459 114.591 173.554 115.043 175.256C117.078 182.719 125.314 182.719 131.548 181.705H131.515Z" fill="#C8E3F3"/>
<path d="M138.167 82.2905C140.912 89.492 145.273 97.4135 152.572 100.589C155.543 101.865 159.807 102.847 163.037 103.044C164.135 103.109 165.943 103.404 166.17 101.996L164.49 92.0779C165.168 92.5362 165.524 93.2563 166.105 93.8128C168.269 95.875 170.853 97.0535 173.856 97.2826C174.89 97.3481 178.378 97.5772 178.701 96.3661C179.121 94.9258 176.44 87.5607 176.731 87.2006C186.356 92.3071 191.233 102.815 192.654 113.355C194.269 125.368 192.169 140.131 182.448 148.184C182.092 148.347 180.768 147.954 180.219 147.922C174.47 147.594 166.88 150.999 163.166 155.45C162.714 156.007 162.1 157.218 161.712 157.578C161.099 158.167 154.187 158.855 152.96 158.887C133.452 159.804 111.812 150.573 107.387 129.558C103.802 112.504 112.07 92.8635 127.993 85.5312C131.223 84.0582 134.679 83.0107 138.167 82.2578V82.2905ZM172.661 98.952C169.948 99.3121 173.114 104.255 174.083 105.302C176.311 107.626 181.705 109.427 184.838 109.623C186.55 109.721 187.26 108.576 185.968 107.397C181.285 106.219 176.44 106.088 174.276 101.047C173.921 100.229 173.986 98.8211 172.661 98.9848V98.952ZM136.714 99.443C135.906 99.6722 135.745 101.374 135.454 102.062C133.355 107.168 127.799 108.707 123.148 110.638C122.244 111.227 122.47 112.537 123.439 112.831C124.214 113.06 127.896 111.456 128.801 111.031C132.806 109.198 137.65 106.055 138.264 101.145C138.393 100.065 137.973 99.0175 136.714 99.4103V99.443ZM175.924 109.329C167.881 110.245 169.141 132.373 178.088 128.805C183.901 126.481 183.804 108.445 175.924 109.329ZM134.873 110.442C128.381 111.456 127.896 127.365 133.968 129.787C143.625 133.65 145.305 108.772 134.873 110.442ZM165.847 129.82C166.945 128.674 166.105 127.398 164.845 126.907C163.166 126.252 157.966 126.317 156.512 127.496C155.479 128.347 155.77 129.624 156.835 130.278C158.709 131.489 164.232 131.457 165.814 129.787L165.847 129.82Z" fill="#FEFEFE"/>
<path d="M156.576 13.8125C156.705 14.4672 157.222 14.9909 157.319 15.6456C157.771 18.297 157.448 21.6686 157.513 24.4182C157.706 31.5869 158.223 39.1484 158.159 46.2516C158.126 49.7214 155.413 51.489 152.571 52.6674C144.109 56.2354 124.375 56.8246 116.171 52.5038C111.552 50.0815 112.586 47.1354 112.457 42.6182C112.328 37.97 112.231 33.3218 112.134 28.6409C112.069 25.0729 111.52 20.4574 111.811 17.0204C111.843 16.6276 112.36 14.8272 112.683 14.7618C113.684 15.6129 114.362 16.2675 115.59 16.824C123.535 20.5229 141.557 19.77 149.955 17.3805C152.442 16.6603 154.8 15.8093 156.576 13.8125ZM145.013 20.7848C144.82 20.9485 144.69 21.3413 144.658 21.6031C144.561 22.4542 144.529 25.6621 144.69 26.4477C145.013 28.0189 147.21 27.888 147.274 26.1531C147.274 25.8585 147.113 25.5639 147.113 25.2366C147.113 24.2218 147.274 22.356 147.113 21.5049C146.951 20.6538 145.724 20.1628 145.013 20.8175V20.7848ZM145.692 28.7718C145.239 28.87 144.884 29.2956 144.82 29.7866C144.69 30.6376 144.723 33.2891 144.82 34.1729C145.046 36.2678 147.113 36.2678 147.403 34.5984C147.662 33.1909 147.048 31.3905 147.274 29.9175C147.21 29.0337 146.499 28.5754 145.692 28.7718ZM146.015 36.7589C144.593 37.0535 144.916 39.7376 144.981 40.8833C144.981 41.3416 145.11 42.8146 145.239 43.1092C145.53 43.7966 146.564 44.0257 147.145 43.5347C148.114 42.7164 147.403 38.6901 147.339 37.3808C147.08 36.8898 146.596 36.6279 146.015 36.7261V36.7589ZM146.338 44.7786C145.724 44.8441 145.272 45.3678 145.175 45.957C145.013 46.7754 145.175 49.7214 145.304 50.638C145.498 52.2419 147.468 52.2092 147.759 50.9326C147.92 50.1797 147.823 45.9243 147.468 45.3351C147.306 45.0405 146.693 44.7786 146.37 44.8113L146.338 44.7786Z" fill="#FEFEFE"/>
<path d="M100.185 62.1924C101.187 74.6312 89.527 91.129 75.8972 86.4154C71.9568 85.0406 68.8885 79.2794 67.855 75.4168C64.3345 62.3233 71.0848 49.0989 83.5842 44.4835C84.4885 44.1561 86.7494 43.2068 87.2661 44.4507C87.6214 45.3018 86.8463 47.986 86.8786 49.0662C87.1692 56.6277 93.6935 60.523 100.185 62.1924Z" fill="#AECDC5"/>
<path d="M156.255 263.77C156.062 263.934 154.059 264.098 153.575 264.13C150.409 264.392 146.824 264.523 143.659 264.621C139.493 264.719 135.326 264.523 131.192 264.294C132.129 260.824 133.259 257.223 132.516 253.623C131.806 249.989 128.576 247.24 125.604 245.407L122.988 243.901C134.325 243.737 146.275 241.446 155.125 233.852C161.617 241.773 162.069 253.001 157.289 261.97C157.127 262.264 156.352 263.705 156.255 263.803V263.77Z" fill="#C8E3F3"/>
<path d="M172.306 175.093C176.279 174.7 182.997 171.23 185.613 168.186L188.229 164.422C191.394 169.299 192.686 175.322 192.008 181.116C191.523 185.208 189.585 190.773 187.131 194.079C182.964 199.709 175.374 200.593 168.947 199.414L169.431 192.9C169.528 186.943 169.27 180.985 168.656 175.06C169.819 174.995 171.143 175.159 172.306 175.06V175.093Z" fill="#C8E3F3"/>
<path d="M113.524 10.0469C111.716 11.6508 109.746 14.2368 109.487 16.7246C109.132 20.3253 109.875 24.8098 109.81 28.5087C110.101 34.6954 109.681 41.2094 110.101 47.3633C110.198 48.7709 110.65 49.8838 111.037 51.1932L103.221 51.5205C102.317 51.3896 96.8909 51.095 96.6325 50.3421C96.6002 50.2112 96.6325 50.0802 96.6971 49.9493C97.763 48.7709 99.0549 47.527 100.024 46.2504C100.831 45.2029 101.445 44.9738 100.347 43.8936C99.7654 43.3371 96.0835 40.4565 96.0189 40.0964C96.6325 39.049 100.767 35.1864 100.831 34.3026C100.831 34.0407 100.831 33.7788 100.605 33.5824L95.8897 29.4252C95.8897 29.0979 99.8946 25.5627 100.444 24.8098C101.283 23.6968 100.218 23.1076 99.3456 22.2893C98.8934 21.8638 95.922 19.4415 95.8574 19.2123C95.7928 19.0487 95.8574 18.885 95.9866 18.754C96.6648 17.8702 100.444 14.4659 100.605 13.7131C100.67 13.3857 100.637 13.2548 100.476 12.9602C99.9915 12.1418 98.2797 11.2253 97.6661 10.3742C102.898 11.1271 108.228 10.4069 113.46 10.0469H113.524Z" fill="#FEFEFE"/>
<path d="M139.072 179.379C149.989 178.495 152.153 199.118 148.213 206.057C145.371 211.065 138.975 209.494 135.778 205.697C131.644 200.787 131.03 193.127 132.225 187.006C133 183.078 134.777 179.706 139.105 179.379H139.072Z" fill="#FEFEFE"/>
<path d="M177.475 150.476C189.296 149.264 189.425 162.62 181.835 168.381C176.409 172.505 166.17 175.844 162.908 167.334C159.614 158.659 170.014 151.229 177.475 150.476Z" fill="#FEFEFE"/>
<path d="M74.7672 265.898L85.1026 266.651C89.4951 266.782 93.8554 266.848 98.2802 266.815C101.155 266.913 104.901 265.571 107.485 266.88C110.65 268.517 111.49 272.871 108.39 275.031C105.224 277.257 97.828 277.028 93.92 277.159C89.6566 277.323 76.8666 277.781 73.5722 275.522C70.7299 273.558 71.9896 267.568 74.7672 265.898Z" fill="#FEFEFE"/>
<path d="M157.19 266.222C162.164 266.058 163.65 272.932 159.29 275.551C156.415 277.253 146.177 277.417 142.591 277.318C139.329 277.253 129.931 276.991 127.896 274.34C126.701 272.801 127.024 269.364 128.122 267.826C128.994 266.614 129.575 266.614 130.996 266.647C134.614 266.778 138.199 267.171 141.849 267.138C146.952 267.073 152.119 266.385 157.222 266.222H157.19Z" fill="#FEFEFE"/>
<path d="M149.149 182.947C155.544 183.962 159.614 188.937 159.226 195.582C158.645 204.813 152.185 213.553 144.757 218.43C144.337 218.692 142.819 219.74 142.464 219.674C142.044 219.576 139.105 216.139 138.653 215.517C138.2 214.96 135.487 211.196 135.552 210.836C135.617 210.607 136.908 210.116 137.167 210.116C137.458 210.116 139.266 211.065 139.912 211.229C147.631 213.356 151.443 207.694 152.25 200.721C152.961 194.698 152.024 188.25 149.182 182.914L149.149 182.947Z" fill="#FEFEFE"/>
<path d="M133.646 7.8868C139.007 7.65767 147.954 8.14867 152.831 10.4728C154.898 11.4548 155.318 12.0767 153.154 13.3533C147.857 16.4303 136.424 17.1832 130.352 16.954C127.219 16.8231 116.98 15.7429 114.945 13.4188C114.429 12.8296 114.752 12.4695 115.268 12.0113C118.53 9.19615 129.35 8.08321 133.646 7.8868ZM133.162 10.2436C131.643 10.3418 127.8 10.8656 126.766 11.9131C125.733 12.9605 127.8 13.6807 128.672 13.9098C131.74 14.7282 136.585 14.5972 139.686 13.8443C140.881 13.5497 144.046 12.5677 141.85 11.2584C140.041 10.1782 135.293 10.08 133.194 10.2436H133.162Z" fill="#FEFEFE"/>
<path d="M192.687 72.243C192.397 72.3085 192.397 72.1448 192.235 71.9811C191.266 70.9009 190.33 69.297 189.425 68.0858C185.582 63.143 181.06 58.6585 175.957 55.0578L177.087 53.8794C177.927 52.8319 178.767 50.8351 178.961 49.4931C179.251 47.3326 178.412 46.2852 181.254 47.4636C186.002 49.4276 190.007 55.6143 191.589 60.3934C192.849 64.256 193.043 68.2168 192.655 72.243H192.687Z" fill="#AECDC5"/>
<path d="M134.873 110.445C145.306 108.808 143.626 133.653 133.969 129.79C127.897 127.368 128.381 111.46 134.873 110.445ZM134.55 113.424C132.063 113.947 132.063 118.268 134.841 118.726C139.04 119.381 139.137 112.474 134.55 113.424Z" fill="#4E4F4E"/>
<path d="M175.924 109.328C183.804 108.444 183.901 126.481 178.088 128.805C169.141 132.373 167.881 110.245 175.924 109.328ZM173.986 116.923C175.439 118.461 178.314 117.577 178.572 115.482C178.863 113.256 176.796 111.62 174.761 112.569C173.146 113.322 172.791 115.646 173.986 116.955V116.923Z" fill="#4E4F4E"/>
<path d="M136.714 99.4437C137.973 99.0509 138.393 100.098 138.264 101.179C137.65 106.089 132.806 109.198 128.801 111.064C127.864 111.49 124.214 113.094 123.439 112.865C122.47 112.57 122.244 111.228 123.149 110.671C127.799 108.74 133.355 107.202 135.454 102.095C135.745 101.375 135.939 99.7056 136.714 99.4764V99.4437Z" fill="#4E4F4E"/>
<path d="M172.66 98.9546C173.984 98.7909 173.92 100.198 174.275 101.017C176.439 106.058 181.316 106.221 185.967 107.367C187.291 108.546 186.548 109.691 184.837 109.593C181.704 109.429 176.278 107.596 174.081 105.272C173.112 104.257 169.947 99.2819 172.66 98.9219V98.9546Z" fill="#4E4F4E"/>
<path d="M165.848 129.823C164.234 131.492 158.743 131.525 156.87 130.314C155.804 129.627 155.481 128.383 156.547 127.532C158 126.353 163.2 126.288 164.879 126.942C166.139 127.401 166.947 128.71 165.881 129.856L165.848 129.823Z" fill="#4E4F4E"/>
<path d="M145.692 28.7716C146.531 28.5752 147.242 29.0334 147.274 29.9172C147.048 31.3903 147.63 33.1579 147.403 34.5982C147.113 36.2676 145.046 36.2676 144.82 34.1726C144.723 33.2561 144.69 30.6374 144.82 29.7863C144.884 29.328 145.239 28.9025 145.692 28.7716Z" fill="#4E4F4E"/>
<path d="M146.017 36.7599C146.598 36.629 147.051 36.8909 147.341 37.4146C147.406 38.724 148.116 42.7502 147.147 43.5685C146.598 44.0268 145.533 43.8304 145.242 43.143C145.113 42.8484 144.983 41.3754 144.983 40.9171C144.919 39.7714 144.628 37.0873 146.017 36.7927V36.7599Z" fill="#4E4F4E"/>
<path d="M146.341 44.7788C146.664 44.7788 147.277 45.0407 147.439 45.3026C147.794 45.8918 147.891 50.1472 147.73 50.9C147.439 52.2094 145.469 52.2094 145.275 50.6054C145.178 49.6889 145.017 46.7429 145.146 45.9245C145.243 45.3353 145.695 44.8116 146.308 44.7461L146.341 44.7788Z" fill="#4E4F4E"/>
<path d="M145.015 20.7852C145.725 20.1305 146.888 20.556 147.114 21.4726C147.308 22.3891 147.114 24.2222 147.114 25.2042C147.114 25.5316 147.276 25.8262 147.276 26.1208C147.211 27.8229 145.015 27.9866 144.692 26.4154C144.53 25.6298 144.53 22.4219 144.66 21.5708C144.692 21.3089 144.821 20.9488 145.015 20.7524V20.7852Z" fill="#4E4F4E"/>
<path d="M133.16 10.2461C135.259 10.0825 140.007 10.2134 141.816 11.2609C144.044 12.5702 140.847 13.585 139.652 13.8469C136.551 14.5997 131.739 14.7307 128.638 13.9123C127.766 13.6832 125.667 13.0285 126.733 11.9156C127.798 10.8026 131.61 10.3444 133.128 10.2461H133.16Z" fill="#4E4F4E"/>
<path d="M134.549 113.422C139.135 112.473 139.039 119.379 134.84 118.725C132.094 118.299 132.062 113.946 134.549 113.422Z" fill="#FEFEFE"/>
<path d="M173.983 116.927C172.788 115.651 173.111 113.294 174.759 112.541C176.793 111.592 178.828 113.228 178.57 115.454C178.311 117.68 175.437 118.466 173.983 116.894V116.927Z" fill="#FEFEFE"/>
<defs>
<filter id="filter0_f_12_1264" x="0" y="264.547" width="235" height="28.2031" filterUnits="userSpaceOnUse" color-interpolation-filters="sRGB">
<feFlood flood-opacity="0" result="BackgroundImageFix"/>
<feBlend mode="normal" in="SourceGraphic" in2="BackgroundImageFix" result="shape"/>
<feGaussianBlur stdDeviation="2" result="effect1_foregroundBlur_12_1264"/>
</filter>
</defs>
</svg>
