<svg width="259" height="329" viewBox="0 0 259 329" fill="none" xmlns="http://www.w3.org/2000/svg">
<g opacity="0.2" filter="url(#filter0_f_12_1302)">
<ellipse cx="141.502" cy="310.101" rx="113.5" ry="10.1012" transform="rotate(4.20186 141.502 310.101)" fill="#4C4C4C"/>
</g>
<path d="M205.435 195.856C206.007 199.95 211.216 203.473 215.028 204.171C222.843 205.599 229.546 202.172 234.374 196.237C239.457 189.984 241.681 179.733 234.692 174.02C234.247 173.639 232.532 172.782 232.437 172.687C232.31 172.528 231.579 169.069 231.325 168.37C228.879 161.039 223.383 154.913 217.093 150.597C216.807 150.407 215.378 149.645 215.314 149.55C215.251 149.455 215.314 149.328 215.41 149.232C215.632 149.042 216.204 148.788 216.522 148.534C217.76 147.582 221.795 144.313 222.017 142.916C222.081 142.504 222.081 141.679 222.017 141.234C221.827 139.33 218.745 138.473 217.506 137.204C215.981 135.648 214.552 132.125 214.584 129.999C214.584 129.491 214.87 127.619 215.092 127.206C215.187 126.984 217.284 125.968 217.729 125.714C222.43 122.763 227.831 116.796 229.737 111.527C230.308 109.972 231.103 107.179 230.086 105.783C228.784 104.005 227.068 104.799 225.162 104.608C221.922 104.323 219.126 102.482 216.839 100.26C216.807 100.006 218.586 98.3878 218.872 98.0704C221.477 95.1188 224.018 91.2467 224.273 87.1842C224.336 86.0734 224.431 84.9626 223.733 84.0422C222.398 82.2966 220.969 83.0265 219.095 82.6139C215.124 81.7253 211.344 78.7419 208.199 76.298L208.135 75.9489C208.516 74.7111 208.834 73.4099 209.025 72.1086C209.946 65.4436 209.152 58.2073 205.594 52.431C202.036 46.6546 192.188 38.1805 184.882 39.0057C183.548 39.1644 180.847 41.4178 180.847 42.7508V46.1785C179.894 45.4486 179.227 44.4012 178.433 43.5125L182.309 39.9261C182.467 39.6087 182.436 37.9901 182.34 37.6092C182.182 36.911 180.911 36.1175 180.434 35.6097C179.735 34.848 179.037 33.9911 178.401 33.1659C178.465 32.912 181.959 30.4681 182.277 29.7382C182.404 29.4525 182.404 27.7387 182.34 27.3895C182.213 26.7548 178.465 23.6444 178.56 23.1366L182.277 19.5502C182.404 19.2646 182.404 17.7094 182.372 17.3285C182.277 16.6938 180.53 15.2656 179.99 14.6625C179.513 14.123 179.005 13.52 178.56 12.9169C178.624 12.5043 182.88 9.55269 183.198 8.56881C183.675 6.9819 182.785 4.5698 181.038 4.3159C179.132 4.03025 178.941 4.5698 177.512 5.17283C174.145 6.60104 167.982 6.0615 164.297 5.80759C150.891 4.91892 138.121 1.64989 124.588 4.66502C118.934 5.93454 113.692 9.33053 113.311 15.6464C112.803 24.057 113.311 32.912 113.025 41.3861C112.993 42.5286 112.739 43.7664 112.866 44.9407C109.658 45.7025 106.545 46.9085 103.622 48.4319C103.146 48.6859 100.668 50.2728 100.445 50.3045C99.7783 50.3045 99.0794 47.7654 99.0159 47.1624C98.8888 46.0833 99.2065 45.4486 98.6029 44.4012C98.2217 43.7664 96.6969 42.3065 95.998 42.1478C89.6129 40.5291 82.4653 49.0032 79.9557 54.0179C76.9061 60.1116 76.5885 66.6179 77.4779 73.3147C74.2377 77.4724 68.3291 83.6613 62.8334 84.2643C61.118 84.4548 60.5462 83.7883 59.2755 85.4069C58.6084 86.2638 58.7355 87.7873 58.8625 88.8664C59.1485 91.4689 60.7368 95.2457 62.1981 97.4039C63.2464 98.9591 64.6124 100.26 65.8195 101.657C64.803 103.402 63.5958 104.958 61.658 105.719C59.8473 106.418 58.5131 105.973 57.2424 107.687C57.0518 107.941 56.9248 108.036 56.8612 108.385C56.0353 113.622 60.3238 119.398 64.0088 122.699C64.5806 123.207 67.9479 125.587 68.0432 125.81C68.4244 126.635 67.9479 130.253 67.7255 131.269C67.5667 131.903 67.4714 132.919 66.7725 132.76C65.1524 132.348 64.2947 130.856 63.1193 129.84C59.7203 126.952 54.987 125.968 50.6349 126.571C50.6349 125.175 50.6032 123.778 50.6349 122.382C50.8891 112.289 51.5879 102.165 51.8738 92.0719C52.0009 86.8986 52.7315 81.027 49.1101 76.8376C44.4086 71.4104 37.2611 72.4577 30.7489 72.2038C25.1261 71.9817 17.0891 70.6169 12.3241 74.1716C6.22485 78.7419 7.33669 85.7878 7.08255 92.5163C6.51076 106.671 5.55775 121.176 5.39891 135.299C5.30362 144.503 8.57561 150.28 18.4233 150.914C23.7602 151.264 29.2241 151.232 34.5927 151.359C35.7998 151.359 37.0387 151.676 38.3094 151.359C39.8024 157.897 46.4417 161.483 52.6362 162.562C64.4218 172.655 77.4462 181.161 91.7413 187.286C92.0272 189.191 91.646 191.095 91.646 192.999C91.646 194.11 91.7095 195.665 91.8048 196.808C91.9319 198.712 92.2813 200.585 92.4084 202.489C84.2125 204.044 77.4144 208.265 71.887 214.359C69.028 213.28 65.2477 213.121 62.5475 214.74C55.8129 218.802 59.8156 225.531 63.1828 230.26C66.709 235.179 71.3152 241.051 75.4131 245.431C79.4792 249.779 83.8313 252.984 89.4223 248.319C90.9471 247.049 91.8683 245.05 92.9802 244.066C94.5367 242.669 100.064 240.13 102.161 239.274C116.234 233.592 128.21 237.814 142.473 237.369C149.049 237.147 155.783 236.195 162.232 234.894C163.121 234.703 166.457 233.719 166.997 233.751C167.473 233.815 169.03 235.624 169.538 236.068C181.705 246.859 193.078 250.953 208.77 243.876C211.534 242.638 214.139 241.051 216.712 239.464C218.809 241.432 221.223 241.717 224.018 241.432C226.337 241.21 230.594 238.48 230.944 236.004C231.643 230.926 227.64 225.975 225.48 221.532C223.32 217.089 221.096 210.201 217.22 207.091C214.87 205.187 210.327 206.107 208.04 207.789C206.578 208.868 205.371 210.995 203.942 211.757C203.084 212.201 201.909 212.74 200.956 212.328C201.528 210.995 202.29 209.725 202.862 208.361C204.514 204.33 205.054 200.077 205.213 195.729C205.276 194.237 205.149 192.714 205.213 191.222C205.213 191 205.085 190.587 205.435 190.682C205.625 190.746 205.34 193.158 205.34 193.507C205.34 194.047 205.435 195.189 205.498 195.729L205.435 195.856ZM142.822 7.6484C146.349 7.83883 156.832 9.10836 159.246 11.6474C160.072 12.5361 159.087 13.0439 158.356 13.4565C151.177 17.519 128.686 17.1381 121.57 12.8852C120.522 12.2504 119.601 11.8061 120.935 10.7905C124.938 7.71188 137.803 7.36276 142.822 7.6484ZM160.771 9.58443C165.885 9.77486 171.063 10.4731 176.146 9.74312C175.638 10.5683 173.827 11.4887 173.382 12.2504C173.223 12.5361 173.192 12.663 173.255 12.9804C173.382 13.6152 176.463 16.2494 177.099 17.0429C177.321 17.2968 177.988 18.0268 177.925 18.3124C177.829 18.6933 174.145 21.6449 173.604 22.2162C173.35 22.4701 173.16 22.8192 173.223 23.2001C173.319 23.8983 177.957 27.6752 177.957 28.2465C177.957 28.8178 177.829 28.5321 177.734 28.6273C176.495 29.7699 174.939 30.7855 173.763 31.9598C172.747 32.9755 173.382 33.3881 174.145 34.3085C175.352 35.7684 176.781 37.0697 177.925 38.5614L173.414 42.4969C173.128 42.8778 173.128 43.4491 173.446 43.8299C173.827 44.3695 177.702 48.2733 177.48 48.5589C172.937 50.2093 168.014 49.5428 163.312 49.3206C163.439 48.4637 163.947 47.6702 164.043 46.7816C164.487 43.0365 164.138 38.7518 164.201 34.9115C164.329 28.786 164.805 22.4701 164.646 16.3447C164.583 13.8373 162.423 11.2031 160.707 9.55269L160.771 9.58443ZM118.267 13.5517C118.425 13.4565 119.855 14.8212 120.204 15.0434C127.193 19.455 146.539 19.2328 154.544 17.4238C157.086 16.8525 159.786 16.0908 161.47 13.996C162.041 14.7578 162.454 15.8369 162.454 16.789C162.55 19.9628 162.168 23.6127 162.137 26.85C162.041 32.6581 162.295 38.7835 162.01 44.5281C161.882 47.0355 161.597 48.5589 159.468 50.0506C153.337 54.3352 137.93 54.1448 130.719 53.0975C126.431 52.4944 117.504 50.7806 117.059 45.4486L117.504 16.8207C117.599 15.6782 117.885 14.5991 118.267 13.5517ZM186.279 43.1634C188.662 43.1634 193.872 46.4007 195.81 47.9241C202.957 53.51 205.975 61.2542 204.958 70.2995C204.45 74.9016 201.337 82.5187 196.763 84.3595C184.024 89.4694 172.366 74.3938 172.334 62.8411C172.334 62.6189 172.524 61.1589 172.556 61.0955C172.683 60.905 176.051 59.8894 176.718 59.6038C182.054 57.2234 185.835 53.3831 185.454 47.1624C185.39 46.0516 184.373 43.1634 186.248 43.1951L186.279 43.1634ZM81.5441 70.966C80.7499 64.4597 81.9888 58.3343 85.6738 52.9388C87.3257 50.4949 91.1059 46.4959 94.1873 46.2103C95.3309 46.0833 94.7591 47.1942 94.8226 47.7337C95.0132 50.1141 96.2522 52.6849 98.1582 54.1448C93.9014 57.1917 90.0258 60.7146 86.595 64.6501C84.8478 66.6814 83.323 68.9348 81.5759 70.966H81.5441ZM72.7129 125.937C72.7764 125.873 73.92 126.603 74.746 126.063C75.286 125.714 75.2543 124.857 74.9048 124.413C74.6189 124.032 71.3787 122.604 70.6163 122.16C66.9631 119.97 63.0558 116.225 61.6263 112.13C61.4992 111.781 60.9909 110.544 61.2768 110.353C61.4992 110.194 62.3569 110.099 62.7381 109.972C66.2325 108.734 68.3291 106.005 70.2033 102.958C71.4105 103.942 73.793 105.307 73.6024 102.609C72.2682 101.276 70.5845 100.26 69.2185 98.9274C67.662 97.4357 65.883 95.2457 64.93 93.3097C64.6124 92.7067 63.0875 88.8346 63.3417 88.4855C76.0166 86.2004 81.83 73.3147 89.7082 64.7454C94.9497 59.0325 102.955 52.9388 110.293 50.2728C111.405 49.8602 114.327 48.8128 115.344 48.7493C115.948 48.7493 116.17 49.5745 116.551 49.9554C118.076 51.6692 119.887 52.8118 122.047 53.6053C130.37 56.7473 150.542 57.3186 158.547 53.3831C159.341 53.0022 161.152 51.5423 161.819 51.4788C163.026 51.3201 165.091 51.7645 166.393 51.7962C168.681 51.8597 171.698 51.4788 173.827 51.6692C174.462 51.7327 177.861 53.4783 178.624 53.8909C178.814 54.0179 180.053 54.6844 180.053 54.7478C178.37 56.2078 176.273 57.2552 174.208 58.0169C172.143 58.7786 170.364 58.3025 170.174 60.9685C169.252 72.8069 179.068 87.8825 191.902 87.692C196.953 87.6286 200.13 85.9147 203.084 81.9474C203.656 81.154 204.132 80.1066 204.641 79.4084C204.736 79.2814 204.8 79.1227 204.99 79.1545C209.406 82.6774 214.139 86.4225 219.984 87.089C219.857 89.0568 218.777 91.1198 217.665 92.7701C215.251 96.3883 211.884 98.8956 208.008 100.768C207.214 101.149 205.117 101.784 204.609 102.228C204.069 102.736 204.228 103.91 204.895 104.196C205.625 104.513 207.849 103.434 208.643 103.085C209.183 102.831 211.82 101.339 212.074 101.403C212.36 101.466 214.838 104.196 215.378 104.672C218.396 107.306 221.985 108.893 226.052 108.861C223.542 116.161 217.633 121.874 210.327 124.286C209.374 124.604 205.467 125.397 205.117 125.778C204.704 126.222 204.641 126.889 205.022 127.365C205.911 128.444 209.596 126.825 210.803 126.667C209.501 132.697 211.852 139.076 217.189 142.282C215.569 143.932 213.726 145.297 211.756 146.439C211.058 146.852 208.929 148.122 208.294 148.153C207.5 148.217 204.609 147.201 203.497 147.011C195.524 145.519 187.772 146.725 180.498 150.058C152.861 162.721 107.148 173.925 83.7995 147.836C83.1324 147.074 80.6228 143.488 80.0828 143.329C79.098 143.012 78.3674 143.869 78.5898 144.821C78.7486 145.519 81.6394 148.725 81.4488 148.883C75.0001 149.359 69.9174 144.599 66.9631 139.362C72.2682 136.95 73.0306 131.11 72.7447 125.873L72.7129 125.937ZM25.1897 76.2028C29.6688 76.298 35.3233 76.2346 39.7071 76.7741C49.4913 77.9802 47.6488 86.2956 47.4265 93.5953C47.077 104.862 46.6323 116.129 46.1876 127.396C46.0287 131.618 46.5052 138.822 44.8851 142.567C42.4073 148.407 35.9269 147.138 30.8759 146.979C26.4604 146.852 17.1526 147.296 13.5312 145.265C8.16263 142.282 9.78275 134.601 9.94157 129.555C10.3228 116.891 10.7675 104.259 11.3075 91.6276C11.5617 85.9782 10.4816 78.488 17.4068 76.552C19.7258 75.8855 22.7436 76.1711 25.2214 76.2028H25.1897ZM42.0896 148.502C43.8686 147.804 45.4887 146.344 46.4735 144.726C48.6972 140.98 48.2524 136.315 48.4748 132.125C48.5701 131.554 49.7455 131.173 50.2537 131.015C52.9539 130.189 56.353 130.792 58.799 132.125C59.5932 132.57 61.7533 134.157 62.071 134.95C62.4204 135.807 61.2133 140.219 60.9274 141.393C59.3708 147.392 57.1154 153.136 53.4622 158.151C53.1445 158.341 51.7785 157.96 51.3338 157.833C46.6641 156.659 42.3438 153.707 42.0579 148.502H42.0896ZM64.3265 137.521C64.2312 136.124 64.5171 136.505 65.5336 136.759C65.6924 137.204 64.3582 137.584 64.3265 137.521ZM200.67 184.303C201.115 188.969 201.178 193.856 200.67 198.522C200.13 203.441 198.732 208.392 195.46 212.201C195.079 213.09 196.445 214.454 197.112 215.057C199.749 217.438 202.226 217.374 205.371 216.009C205.848 215.787 206.674 215.057 207.023 215.375C211.026 221.278 214.075 227.816 215.759 234.767C208.612 239.877 198.732 244.637 189.71 242.86C183.579 241.654 177.004 237.02 172.334 232.958C171.285 232.037 169.761 230.228 168.744 229.53C168.522 229.371 168.395 229.276 168.141 229.244C167.061 229.086 164.17 230.101 162.899 230.387C143.744 234.64 118.203 236.29 104.384 219.564C93.2661 206.107 94.7909 186.08 98.857 170.18C99.0476 168.688 97.1099 168.18 96.5381 169.545C95.871 171.1 95.3309 174.432 94.9815 176.21C94.6003 178.178 94.3144 180.145 94.0285 182.113C93.965 182.494 94.1873 183.383 93.6473 183.383C79.7334 177.638 67.249 169.323 55.7494 159.738L55.6223 159.293C58.7355 154.977 60.7686 150.216 62.3569 145.138C62.8969 143.393 63.2782 141.552 63.9135 139.838C66.8678 145.551 72.2047 151.168 79.0027 151.708C80.6546 151.835 82.3383 151.549 83.9901 151.581C103.05 170.021 133.674 168.117 157.403 161.229C163.947 159.325 170.968 156.945 177.226 154.215C183.484 151.486 186.661 149.581 193.459 148.978C206.928 147.772 220.81 155.104 226.306 167.609C227.354 170.021 228.911 173.988 227.799 176.464C225.67 181.161 219.603 187.286 214.711 188.969C213.821 189.286 210.422 190.048 209.723 189.635C209.596 189.572 208.262 187.731 207.944 187.382C202.703 181.732 197.779 179.13 189.869 180.431C188.726 180.621 183.675 181.32 185.485 183.351C186.216 184.176 187.582 183.351 188.503 183.16C192.728 182.272 196.89 181.954 200.702 184.366L200.67 184.303ZM209.533 192.047H211.884C214.933 192.047 219.476 189.381 221.795 187.477C225.384 184.525 228.466 180.748 230.34 176.527C236.566 179.13 235.296 186.652 232.437 191.444C228.593 197.887 219.952 202.997 212.741 198.68C210.327 197.252 208.929 194.935 209.533 192.079V192.047ZM90.0894 240.606L73.9201 218.644C77.1603 214.708 81.3217 211.153 86.0232 209.09C88.8822 207.853 92.0907 206.901 95.1721 206.52C97.6499 216.295 104.194 224.801 112.993 229.689L117.981 232.101C112.517 232.164 107.085 232.862 101.938 234.735C99.2065 235.719 96.4745 237.084 93.9649 238.48C92.9802 239.051 91.4871 240.162 90.5659 240.543C90.4388 240.607 90.28 240.702 90.1211 240.606H90.0894ZM213.853 210.36C214.075 210.36 214.425 210.55 214.647 210.646C216.68 211.852 220.365 221.214 221.636 223.785C222.684 225.943 223.955 227.975 225.035 230.133C226.623 233.243 228.371 235.56 223.923 237.115C218.364 239.083 217.697 232.164 216.426 228.546C215.06 224.674 213.313 220.992 211.216 217.469C210.835 216.835 208.739 213.915 208.675 213.597C208.421 212.296 212.614 210.233 213.853 210.392V210.36ZM68.1702 217.818C69.4091 217.977 70.5528 218.771 71.474 219.532L88.6281 242.447C88.7552 242.765 88.1516 243.463 87.9292 243.717C85.8961 246.192 83.6089 247.176 80.9088 244.955C76.8426 241.559 71.6328 234.449 68.3609 230.101C66.836 228.07 63.1828 223.5 63.0875 221.056C62.9922 218.612 66.2325 217.565 68.1702 217.818Z" fill="#4E4F4E"/>
<path d="M205.437 195.857C205.373 195.349 205.278 194.175 205.278 193.636C205.278 193.286 205.564 190.874 205.373 190.811C205.024 190.716 205.151 191.128 205.151 191.35C205.088 192.842 205.215 194.366 205.151 195.857H205.469H205.437Z" fill="#6FA598"/>
<path d="M200.671 184.302C196.859 181.89 192.698 182.207 188.473 183.096C187.552 183.286 186.186 184.112 185.455 183.286C183.644 181.255 188.695 180.557 189.839 180.367C197.749 179.065 202.673 181.668 207.914 187.317C208.232 187.635 209.566 189.507 209.693 189.571C210.392 189.983 213.791 189.221 214.681 188.904C219.573 187.222 225.64 181.097 227.769 176.399C228.88 173.924 227.356 169.956 226.275 167.544C220.78 155.04 206.898 147.708 193.429 148.914C186.63 149.517 183.136 151.548 177.196 154.151C170.969 156.88 163.949 159.261 157.373 161.165C133.643 168.052 103.02 169.956 83.9599 151.517C82.308 151.485 80.6244 151.77 78.9725 151.644C72.1744 151.104 66.8693 145.455 63.8833 139.773C63.2479 141.487 62.8667 143.296 62.3267 145.074C60.7383 150.152 58.7053 154.913 55.5921 159.229L55.7192 159.673C67.2188 169.258 79.7349 177.574 93.617 183.318C94.1253 183.318 93.9347 182.43 93.9982 182.049C94.2841 180.081 94.57 178.081 94.9512 176.145C95.2689 174.368 95.8089 171.036 96.5078 169.48C97.1114 168.147 99.0174 168.623 98.8268 170.115C94.7289 186.016 93.2358 206.043 104.354 219.5C118.173 236.226 143.713 234.575 162.869 230.322C164.139 230.037 167.03 229.021 168.11 229.18C168.396 229.212 168.523 229.339 168.714 229.465C169.73 230.164 171.223 231.973 172.304 232.893C176.973 236.956 183.517 241.589 189.68 242.796C198.702 244.573 208.581 239.812 215.729 234.702C214.013 227.752 210.964 221.214 206.993 215.31C206.644 214.993 205.818 215.723 205.341 215.945C202.196 217.31 199.718 217.405 197.082 214.993C196.446 214.422 195.049 213.025 195.43 212.136C198.702 208.328 200.131 203.377 200.64 198.457C201.148 193.538 201.053 188.904 200.64 184.239L200.671 184.302ZM119.666 175.955C131.356 176.78 135.676 185.826 131.642 196.363C129.704 201.409 124.685 207.63 120.238 210.708C118.459 211.914 118.141 211.248 116.553 210.169C109.278 205.249 102.448 196.013 103.179 186.809C103.782 179.002 112.836 175.479 119.666 175.955Z" fill="#C8E3F3"/>
<path d="M72.7126 125.937C72.9985 131.174 72.2361 137.014 66.9311 139.426C69.8854 144.663 74.9681 149.423 81.4167 148.947C81.6073 148.789 78.7166 145.583 78.5577 144.885C78.3354 143.933 79.066 143.076 80.0508 143.393C80.5908 143.552 83.1004 147.138 83.7675 147.9C107.116 173.957 152.829 162.785 180.466 150.122C187.74 146.789 195.492 145.583 203.465 147.075C204.577 147.265 207.468 148.281 208.262 148.217C208.929 148.186 211.057 146.916 211.724 146.503C213.694 145.361 215.568 143.996 217.157 142.346C211.82 139.14 209.469 132.761 210.771 126.731C209.564 126.889 205.848 128.508 204.99 127.429C204.609 126.953 204.672 126.255 205.085 125.842C205.466 125.461 209.374 124.668 210.295 124.35C217.601 121.938 223.51 116.225 226.02 108.925C221.953 108.957 218.364 107.37 215.346 104.736C214.806 104.26 212.328 101.562 212.042 101.467C211.788 101.404 209.151 102.895 208.611 103.149C207.817 103.498 205.593 104.577 204.863 104.26C204.164 103.974 204.005 102.8 204.577 102.292C205.085 101.816 207.182 101.181 207.976 100.832C211.852 98.9597 215.251 96.4524 217.633 92.8342C218.713 91.1838 219.825 89.1526 219.952 87.1531C214.107 86.4866 209.374 82.7415 204.958 79.2185C204.736 79.2185 204.704 79.3455 204.609 79.4725C204.069 80.1707 203.624 81.2498 203.052 82.0115C200.13 85.9788 196.921 87.6926 191.87 87.7561C179.036 87.9148 169.22 72.8709 170.142 61.0326C170.364 58.3666 172.079 58.8426 174.176 58.0809C176.273 57.3192 178.369 56.2719 180.021 54.8119C180.021 54.7167 178.814 54.0502 178.592 53.955C177.829 53.5424 174.43 51.7968 173.795 51.7333C171.666 51.5429 168.649 51.9237 166.361 51.8603C165.059 51.8285 162.994 51.3842 161.787 51.5429C161.12 51.6381 159.341 53.0663 158.515 53.4472C150.51 57.3827 130.338 56.8114 122.015 53.6693C119.855 52.8441 118.044 51.7333 116.519 50.0194C116.17 49.6068 115.916 48.7817 115.312 48.8134C114.295 48.8451 111.341 49.9242 110.261 50.3368C102.955 53.0028 94.9177 59.0966 89.6761 64.8094C81.7979 73.4105 75.9846 86.2962 63.3096 88.5496C63.0555 88.8987 64.5803 92.7707 64.898 93.3738C65.851 95.3098 67.6299 97.468 69.1865 98.9914C70.5525 100.324 72.2361 101.34 73.5703 102.673C73.7609 105.371 71.3784 104.006 70.1713 103.022C68.297 106.069 66.2004 108.799 62.7061 110.036C62.3248 110.163 61.4671 110.258 61.2448 110.417C60.9589 110.608 61.4671 111.845 61.5942 112.194C63.0237 116.289 66.9311 120.034 70.5843 122.224C71.3466 122.668 74.5869 124.096 74.8728 124.477C75.1904 124.922 75.254 125.81 74.7139 126.128C73.888 126.635 72.7444 125.905 72.6809 126.001L72.7126 125.937ZM110.198 98.071C114.137 97.8806 118.52 97.0237 121.983 94.9924C127.669 91.6282 131.195 84.1062 133.483 78.1712C134.213 77.0921 135.007 77.9173 135.738 78.1394C139.518 79.2185 142.79 79.9485 146.412 81.6306C169.633 92.3899 176.813 127.619 157.276 145.234C141.551 159.453 115.248 160.659 96.919 150.883C85.9594 145.012 80.4955 136.569 78.9707 124.223C77.0647 108.925 81.5438 91.406 95.6165 83.3128C96.919 82.5511 99.365 80.742 100.127 82.9636L97.8402 92.612C97.9355 92.7073 100.413 92.5168 100.795 92.4534C106.227 91.5964 109.149 86.1692 110.801 81.4402C111.627 80.3611 113.152 80.9007 113.057 82.2971L110.166 98.071H110.198Z" fill="#C8E3F3"/>
<path d="M25.1908 76.202C22.7448 76.1385 19.7269 75.8846 17.3762 76.5511C10.451 78.4871 11.5311 85.9773 11.277 91.6267C10.7369 104.258 10.2922 116.89 9.91098 129.554C9.75215 134.632 8.1638 142.313 13.5006 145.264C17.1221 147.295 26.4297 146.851 30.8453 146.978C35.928 147.105 42.345 148.406 44.8545 142.566C46.4429 138.821 45.9664 131.649 46.157 127.396C46.6017 116.129 47.0464 104.862 47.3959 93.5945C47.6183 86.2947 49.4607 78.011 39.6765 76.7732C35.3245 76.2337 29.67 76.2972 25.1591 76.202H25.1908Z" fill="#6FA598"/>
<path d="M118.27 13.555C117.888 14.6024 117.603 15.6815 117.507 16.824L117.063 45.4519C117.539 50.8156 126.434 52.4977 130.722 53.1008C137.965 54.1481 153.34 54.3386 159.471 50.0539C161.6 48.5622 161.886 47.007 162.013 44.5315C162.299 38.7869 162.076 32.6614 162.14 26.8533C162.172 23.616 162.553 19.9979 162.457 16.7923C162.457 15.8402 162.044 14.7611 161.473 13.9993C159.789 16.0623 157.057 16.8558 154.547 17.4271C146.542 19.2361 127.196 19.4583 120.207 15.0467C119.858 14.8245 118.429 13.4281 118.27 13.555ZM128.054 20.1566C128.785 19.4266 129.992 19.9979 130.119 20.95C130.246 21.7117 130.246 24.6951 130.119 25.4568C129.833 27.0437 127.832 27.1072 127.577 25.4568C127.45 24.7268 127.609 21.8704 127.704 21.0452C127.704 20.7913 127.895 20.2835 128.054 20.0931V20.1566ZM129.293 27.9007C129.61 27.9959 129.96 28.5354 129.992 28.8528C130.119 29.678 130.119 32.5662 129.992 33.3914C129.833 34.4705 128.689 35.137 127.863 34.3118C126.91 33.3914 127.863 30.1541 127.577 28.8211C127.736 27.9641 128.467 27.615 129.293 27.8689V27.9007ZM127.768 35.9939C128.435 35.2639 129.674 35.6765 129.833 36.6287C129.928 37.3269 129.96 40.8181 129.833 41.4529C129.547 42.7859 127.514 42.8493 127.355 41.2624C127.26 40.4372 127.355 37.7712 127.419 36.9143C127.45 36.6287 127.577 36.1843 127.768 35.9622V35.9939ZM128.657 43.4524C129.197 43.5158 129.61 43.8967 129.674 44.4362C129.769 45.1028 129.769 49.197 129.579 49.6413C129.166 50.6252 127.45 50.4982 127.26 49.4509C127.133 48.7209 127.164 45.7058 127.26 44.8806C127.355 44.0554 127.8 43.3889 128.657 43.4524Z" fill="white"/>
<path d="M186.281 43.1646C184.375 43.1646 185.392 46.021 185.487 47.1318C185.868 53.3525 182.056 57.1928 176.751 59.5732C176.116 59.8588 172.717 60.8744 172.589 61.0649C172.526 61.1601 172.367 62.5883 172.367 62.8105C172.367 74.3632 184.057 89.4071 196.796 84.3289C201.37 82.4881 204.483 74.871 204.992 70.2689C206.008 61.2236 202.99 53.4795 195.843 47.8935C193.905 46.3701 188.695 43.1328 186.313 43.1328L186.281 43.1646Z" fill="#AECDC5"/>
<path d="M90.0897 240.606C90.2485 240.702 90.3756 240.606 90.5344 240.543C91.4557 240.162 92.9487 239.019 93.9335 238.48C96.4748 237.083 99.2068 235.719 101.907 234.735C107.053 232.862 112.485 232.164 117.949 232.1L112.962 229.688C104.162 224.801 97.6184 216.295 95.1406 206.52C92.0592 206.9 88.819 207.853 85.9917 209.09C81.2903 211.153 77.1288 214.708 73.8886 218.644L90.0579 240.606H90.0897Z" fill="#C8E3F3"/>
<path d="M160.774 9.58594C162.489 11.2363 164.65 13.8706 164.713 16.3779C164.872 22.5034 164.395 28.8193 164.268 34.9447C164.205 38.785 164.554 43.0697 164.11 46.8148C164.014 47.7035 163.506 48.4652 163.379 49.3539C168.08 49.576 173.036 50.2425 177.547 48.5921C177.769 48.3065 173.926 44.4027 173.513 43.8632C173.195 43.4823 173.195 42.9427 173.481 42.5302L177.992 38.5946C176.848 37.1029 175.387 35.8017 174.211 34.3417C173.449 33.4213 172.814 32.977 173.83 31.9931C175.006 30.8188 176.562 29.7714 177.801 28.6606C177.928 28.5654 178.023 28.4384 178.023 28.2797C178.023 27.7402 173.385 23.9316 173.29 23.2333C173.227 22.8525 173.417 22.5034 173.671 22.2495C174.211 21.6782 177.896 18.7265 177.992 18.3457C178.055 18.0918 177.388 17.33 177.166 17.0761C176.499 16.2827 173.449 13.6484 173.322 13.0137C173.258 12.6963 173.29 12.5693 173.449 12.2837C173.894 11.5537 175.673 10.6333 176.213 9.77637C171.098 10.5063 165.952 9.8081 160.838 9.61768L160.774 9.58594Z" fill="white"/>
<path d="M42.0906 148.505C42.3765 153.742 46.6968 156.662 51.3665 157.836C51.8113 157.963 53.1772 158.344 53.4949 158.153C57.1481 153.139 59.3718 147.362 60.9601 141.396C61.2778 140.221 62.4532 135.81 62.1037 134.953C61.7861 134.159 59.6259 132.572 58.8318 132.128C56.3857 130.795 52.9549 130.192 50.2865 131.017C49.7782 131.176 48.6028 131.557 48.5075 132.128C48.2851 136.317 48.6981 140.983 46.5062 144.728C45.5532 146.378 43.9331 147.807 42.1224 148.505H42.0906Z" fill="white"/>
<path d="M209.535 192.048C208.931 194.904 210.329 197.221 212.743 198.649C219.954 202.966 228.626 197.856 232.438 191.413C235.297 186.621 236.568 179.099 230.31 176.496C228.436 180.749 225.354 184.494 221.765 187.446C219.446 189.35 214.903 192.016 211.853 192.016H209.503L209.535 192.048Z" fill="white"/>
<path d="M68.1732 217.82C66.2672 217.566 62.9952 218.709 63.0905 221.057C63.1858 223.406 66.839 228.071 68.3638 230.103C71.6358 234.482 76.8773 241.592 80.9117 244.956C83.5801 247.209 85.8673 246.226 87.9322 243.718C88.1545 243.433 88.7581 242.766 88.631 242.449L71.4769 219.534C70.5239 218.772 69.4121 217.979 68.1732 217.82Z" fill="white"/>
<path d="M142.823 7.65073C137.804 7.36509 124.907 7.71421 120.936 10.7928C119.634 11.8084 120.523 12.2528 121.571 12.8875C128.655 17.1404 151.178 17.5213 158.357 13.4588C159.088 13.0462 160.105 12.5384 159.247 11.6497C156.833 9.11069 146.381 7.84116 142.823 7.65073ZM139.329 9.77719C141.235 9.77719 145.809 10.158 147.366 11.2054C148.573 11.9989 147.779 12.6654 146.794 13.078C143.935 14.284 135.898 14.2205 133.103 12.8241C132.086 12.3162 131.546 11.745 132.69 10.9832C134.056 10.1263 137.677 9.77719 139.329 9.77719Z" fill="white"/>
<path d="M213.854 210.36C212.584 210.201 208.391 212.264 208.676 213.565C208.74 213.883 210.837 216.803 211.218 217.437C213.314 220.96 215.093 224.674 216.428 228.514C217.698 232.132 218.365 239.051 223.925 237.083C228.372 235.528 226.625 233.211 225.036 230.101C223.956 227.975 222.686 225.912 221.637 223.753C220.398 221.183 216.682 211.82 214.649 210.614C214.458 210.487 214.077 210.36 213.854 210.328V210.36Z" fill="white"/>
<path d="M81.5466 70.9646C83.3255 68.9334 84.8186 66.68 86.5658 64.6487C89.9966 60.6815 93.9039 57.1903 98.1289 54.1434C96.2229 52.6835 94.984 50.1127 94.7934 47.7323C94.7616 47.2245 95.3017 46.1137 94.158 46.2089C91.0767 46.5263 87.3282 50.5253 85.6445 52.9374C81.9278 58.3329 80.6889 64.4583 81.5148 70.9646H81.5466Z" fill="#AECDC5"/>
<path d="M64.3263 137.524C64.3899 137.587 65.6923 137.207 65.5335 136.762C64.5169 136.508 64.231 136.128 64.3263 137.524Z" fill="#AECDC5"/>
<path d="M119.666 175.957C112.836 175.48 103.782 179.003 103.179 186.811C102.448 196.015 109.278 205.251 116.553 210.17C118.141 211.249 118.459 211.948 120.238 210.71C124.685 207.663 129.704 201.411 131.642 196.364C135.676 185.827 131.356 176.813 119.666 175.957ZM119.825 178.4C134.501 179.606 132.15 194.047 125.13 202.648C124.399 203.537 119.57 208.647 118.808 208.679C117.823 208.679 112.518 203.6 111.629 202.585C108.039 198.522 105.117 192.524 105.593 186.97C106.133 180.495 114.265 177.956 119.793 178.4H119.825Z" fill="#4E4F4E"/>
<path d="M110.201 98.0694L113.092 82.2955C113.187 80.899 111.662 80.3277 110.836 81.4386C109.185 86.1676 106.262 91.5948 100.83 92.4517C100.449 92.5152 97.9708 92.7374 97.8755 92.6104L100.163 82.962C99.3686 80.7403 96.9543 82.5494 95.6519 83.3111C81.5791 91.3726 77.1 108.892 79.006 124.222C80.5626 136.568 85.9947 145.042 96.9543 150.882C115.284 160.689 141.555 159.451 157.311 145.232C176.816 127.586 169.669 92.3882 146.447 81.629C142.826 79.9469 139.522 79.2486 135.773 78.1378C135.043 77.9156 134.249 77.1222 133.518 78.1695C131.231 84.1046 127.705 91.6583 122.018 94.9908C118.588 97.022 114.172 97.8789 110.233 98.0694H110.201ZM109.121 90.0079C108.803 93.2769 107.723 96.5142 107.628 99.815C107.755 100.355 108.359 100.64 108.899 100.704C110.01 100.799 112.552 100.386 113.759 100.228C124.464 98.6089 129.388 93.1182 133.836 83.7555C134.09 83.2476 135.011 80.7086 135.297 80.6134C143.525 82.1685 151.053 85.8819 156.517 92.2613C164.649 101.719 168.176 115.525 165.031 127.745C157.343 157.801 112.552 162.085 91.3633 144.28C76.7823 132.029 77.9895 100.577 92.2846 88.5479C93.7141 87.3419 95.3977 86.3262 97.0178 85.3424C97.1767 85.3741 97.0814 85.6915 97.0496 85.8502C96.5096 88.421 95.5883 90.9283 95.1118 93.4991C95.0483 94.0386 95.5248 94.7369 96.0331 94.8638C97.7485 95.3716 101.465 94.959 103.181 94.3877C105.627 93.5943 107.437 91.8804 109.121 90.0396V90.0079Z" fill="#4E4F4E"/>
<path d="M128.054 20.1545C127.895 20.3132 127.737 20.8527 127.705 21.1066C127.609 21.9318 127.451 24.7883 127.578 25.5182C127.832 27.1369 129.833 27.0734 130.119 25.5182C130.246 24.7565 130.278 21.7731 130.119 21.0114C129.96 20.0593 128.785 19.488 128.054 20.218V20.1545Z" fill="#4E4F4E"/>
<path d="M129.292 27.8981C128.466 27.6442 127.735 28.025 127.576 28.8502C127.862 30.1832 126.909 33.4205 127.862 34.3409C128.688 35.1344 129.832 34.4996 129.991 33.4205C130.118 32.5636 130.118 29.7072 129.991 28.882C129.927 28.5328 129.609 28.025 129.292 27.9298V27.8981Z" fill="#4E4F4E"/>
<path d="M127.765 35.9891C127.575 36.1795 127.447 36.6556 127.416 36.9412C127.32 37.7982 127.257 40.4642 127.352 41.2894C127.511 42.8763 129.544 42.8128 129.83 41.4798C129.989 40.845 129.957 37.3538 129.83 36.6556C129.671 35.6717 128.432 35.2908 127.765 36.0208V35.9891Z" fill="#4E4F4E"/>
<path d="M128.655 43.4498C127.766 43.3546 127.321 44.0846 127.257 44.878C127.194 45.6715 127.13 48.7183 127.257 49.4483C127.448 50.4957 129.164 50.6226 129.576 49.6387C129.767 49.1944 129.767 45.0684 129.672 44.4337C129.576 43.8941 129.195 43.5133 128.655 43.4498Z" fill="#4E4F4E"/>
<path d="M139.328 9.77344C137.708 9.77344 134.055 10.1226 132.689 10.9795C131.545 11.7095 132.085 12.3125 133.102 12.8203C135.897 14.2168 143.934 14.2803 146.793 13.0742C147.778 12.6616 148.54 11.9951 147.365 11.2017C145.808 10.1543 141.234 9.77344 139.328 9.77344Z" fill="#4E4F4E"/>
<path d="M119.825 178.401C114.297 177.957 106.165 180.464 105.625 186.971C105.148 192.525 108.071 198.523 111.661 202.586C112.55 203.57 117.855 208.711 118.84 208.68C119.602 208.68 124.431 203.538 125.162 202.649C132.182 194.048 134.533 179.607 119.857 178.401H119.825Z" fill="white"/>
<path d="M109.119 90.0122C107.436 91.853 105.625 93.5668 103.179 94.3603C101.463 94.9316 97.715 95.3442 96.0313 94.8364C95.5548 94.6777 95.0466 93.9794 95.1101 93.4716C95.6184 90.9008 96.5078 88.3935 97.0479 85.8227C97.0479 85.6958 97.1749 85.3784 97.0161 85.3149C95.4278 86.2671 93.7123 87.3144 92.2828 88.5205C77.9877 100.549 76.7806 132.002 91.3616 144.253C112.55 162.058 157.341 157.773 165.029 127.717C168.142 115.53 164.648 101.724 156.515 92.2338C151.052 85.8545 143.491 82.1411 135.295 80.5859C135.009 80.6812 134.088 83.2202 133.834 83.728C129.355 93.0908 124.431 98.5815 113.757 100.2C112.55 100.391 110.009 100.803 108.897 100.676C108.389 100.613 107.753 100.327 107.626 99.7875C107.722 96.4868 108.802 93.2812 109.119 89.9804V90.0122ZM100.828 121.782C100.256 122.385 99.2715 122.131 98.9221 121.433C98.6044 120.83 98.5409 119.148 98.3821 118.323C97.9056 116.133 96.6984 111.658 93.617 112.641C91.3616 113.371 90.9486 117.275 90.2815 119.084C89.805 120.449 88.1531 120.29 87.9308 118.989C87.5496 116.545 90.0909 111.213 92.3781 110.071C97.3655 107.627 100.034 113.752 100.796 117.561C100.987 118.577 101.527 120.989 100.796 121.782H100.828ZM136.28 110.452C139.711 110.864 142.347 113.848 143.904 116.704C144.476 117.783 146.096 120.703 144.444 121.401C142.951 122.036 142.157 118.83 141.553 117.815C138.027 111.753 132.277 111.594 129.482 118.323C128.91 119.719 128.656 121.211 128.179 122.639C127.703 123.432 126.432 123.401 126.051 122.512C125.67 121.623 126.051 120.576 126.305 119.687C127.544 114.958 130.721 109.753 136.312 110.452H136.28ZM113.725 123.401C114.996 123.496 117.537 123.782 117.665 125.432C117.855 127.844 112.296 127.876 110.739 127.59C109.437 127.368 106.705 126.416 107.626 124.67C108.42 123.147 112.264 123.274 113.725 123.401Z" fill="white"/>
<path d="M136.278 110.449C130.687 109.782 127.511 114.987 126.272 119.684C126.049 120.573 125.668 121.62 126.018 122.509C126.367 123.398 127.638 123.429 128.146 122.636C128.654 121.208 128.877 119.716 129.448 118.32C132.244 111.591 137.994 111.782 141.52 117.812C142.123 118.827 142.918 122.065 144.411 121.398C146.062 120.668 144.442 117.748 143.871 116.701C142.314 113.845 139.709 110.861 136.247 110.449H136.278Z" fill="#4E4F4E"/>
<path d="M100.826 121.779C101.525 120.985 101.017 118.573 100.826 117.558C100.064 113.749 97.3953 107.624 92.4079 110.067C90.0889 111.21 87.5476 116.542 87.9606 118.986C88.1829 120.287 89.8348 120.414 90.3113 119.081C90.9784 117.272 91.3596 113.4 93.6468 112.638C96.7282 111.623 97.9354 116.098 98.4119 118.319C98.6025 119.113 98.6342 120.827 98.9519 121.43C99.3013 122.128 100.286 122.382 100.858 121.779H100.826Z" fill="#4E4F4E"/>
<path d="M113.726 123.399C112.264 123.272 108.389 123.145 107.626 124.668C106.705 126.445 109.469 127.366 110.739 127.588C112.264 127.842 117.823 127.842 117.665 125.43C117.538 123.811 114.996 123.494 113.726 123.399Z" fill="#4E4F4E"/>
<defs>
<filter id="filter0_f_12_1302" x="24.3043" y="293.037" width="234.395" height="34.127" filterUnits="userSpaceOnUse" color-interpolation-filters="sRGB">
<feFlood flood-opacity="0" result="BackgroundImageFix"/>
<feBlend mode="normal" in="SourceGraphic" in2="BackgroundImageFix" result="shape"/>
<feGaussianBlur stdDeviation="2" result="effect1_foregroundBlur_12_1302"/>
</filter>
</defs>
</svg>
