<svg width="223" height="273" viewBox="0 0 223 273" fill="none" xmlns="http://www.w3.org/2000/svg">
<g opacity="0.2" filter="url(#filter0_f_12_1227)">
<ellipse cx="111.5" cy="259" rx="107.5" ry="10" fill="#4C4C4C"/>
</g>
<path d="M137.632 43.5233C142.04 45.0416 146.258 46.9394 150.381 49.0903C151.11 49.4699 153.172 50.8932 153.774 50.83C154.44 50.7667 156.438 49.628 156.977 49.1536C159.039 47.4771 159.958 43.7448 160.244 41.1827C160.434 39.5063 159.927 38.8737 161.1 37.3238C163.954 33.5597 170.931 36.8809 173.944 39.0634C180.318 43.7131 183.902 50.0708 184.314 58.0101C184.6 63.6719 183.807 69.8399 180.128 74.3314L180.065 74.8375C183.363 78.222 186.534 81.7646 190.086 84.896C192.37 86.9203 195.256 89.3243 197.888 90.7793C199.156 91.4751 200.013 91.1272 200.488 92.8669C201.503 96.5044 197.919 100.205 195.034 101.85C194.336 102.261 193.543 102.514 192.845 102.862C192.687 102.925 192.623 102.83 192.655 103.115C192.75 103.748 194.272 106.278 194.716 106.974C196.048 109.062 197.602 110.896 199.41 112.604C201.027 114.123 202.962 114.629 202.455 117.317C202.137 119.183 198.395 122.03 196.683 122.789L193.067 123.991C193.194 123.991 193.353 124.055 193.448 124.149C198.173 128.325 202.581 133.069 204.801 139.079C207.751 147.145 206.958 157.361 201.503 164.194C194.368 173.113 182.951 177.826 172.358 181.306C173.69 188.581 173.722 196.077 171.756 203.226C181.492 202.909 189.23 209.805 190.308 219.42C190.879 224.576 190.055 229.985 188.532 234.919C187.803 237.292 186.82 239.537 185.932 241.846C188.691 243.554 190.245 245.863 190.467 249.153C191.165 258.864 183.458 260.603 175.498 260.92C170.868 261.109 165.191 261.141 160.561 260.92C153.838 260.603 149.715 258.547 149.366 251.272C149.208 247.919 149.81 245.705 152.284 243.396L153.806 236.944C150.476 237.513 147.146 238.367 143.785 239.031C120.19 243.554 99.8297 243.333 76.33 238.588C73.7612 238.051 71.1924 237.323 68.5919 236.975L70.1142 243.428C72.6512 245.769 73.1904 248.078 73.0001 251.462C72.6195 258.642 68.4651 260.635 61.8369 260.951C57.1751 261.173 51.4349 261.141 46.773 260.951C38.813 260.635 31.2652 258.832 31.9311 249.185C32.1531 245.895 33.7071 243.586 36.4662 241.878C35.5782 239.569 34.5951 237.323 33.8657 234.951C32.2166 229.574 31.4554 223.88 32.28 218.25C33.5802 209.393 41.5403 202.909 50.4835 203.257C50.2615 201.486 49.6907 199.778 49.437 198.007C48.6758 192.566 49.0247 186.651 50.0078 181.274C39.4472 178.016 28.0621 173.113 20.9583 164.352C15.4084 157.488 14.6156 147.176 17.6284 139.047C19.8483 133.069 24.2248 128.356 28.9184 124.213C29.0135 124.118 29.1721 124.055 29.2989 124.055L25.6836 122.853C23.7491 122.062 19.214 118.361 19.5946 116.147C19.8166 114.913 22.0682 113.522 22.9562 112.668C24.7639 110.959 26.3178 109.157 27.6498 107.037C28.0938 106.341 29.616 103.811 29.7112 103.178C29.7429 102.894 29.6795 102.989 29.5209 102.925C28.1889 102.261 26.9838 101.85 25.7787 100.901C23.5588 99.1297 19.7849 94.5433 22.6391 91.8863C23.5588 91.0323 25.9373 89.9885 27.1741 89.1345C32.7874 85.2123 37.5444 79.8035 42.3332 74.9324L42.2697 74.4263C37.1321 68.037 36.8784 56.5551 40.0498 49.2801C42.238 44.2192 49.3101 36.6912 55.0503 36.1851C58.4119 35.9004 61.5515 35.9953 62.0907 39.9175C62.5346 43.1754 62.6298 47.1292 65.5474 49.375C66.0548 49.7545 68.8456 51.5259 69.2579 50.6718C69.3848 50.4188 68.7822 50.3239 68.5602 50.1341C68.0528 49.6913 67.7991 48.6791 67.9894 48.0465C68.3382 46.8129 72.0804 43.3652 71.9853 42.954C71.9535 42.8275 70.2727 41.5306 70.019 41.2776C69.4482 40.7399 67.8942 39.3481 67.7674 38.6523C67.3868 36.7228 71.3827 34.5087 72.1438 32.8006C71.2241 31.567 67.7356 29.6059 67.8942 27.9295C68.0845 26.1582 72.3975 23.2798 72.3024 22.7738C71.3193 21.5402 67.9259 19.3893 68.0528 17.7761C68.1479 16.3528 72.5561 13.0948 72.461 12.6204C71.4778 11.5449 67.8942 9.01451 67.6405 7.71766C67.2599 5.91473 68.909 3.89038 70.7167 3.85875C72.0487 3.85875 72.3341 4.36483 73.2855 4.77603C76.8374 6.26266 81.6579 6.00962 85.4635 5.85146C95.4532 5.40864 104.904 3.51081 114.989 3.85875C123.393 4.17505 135.698 5.28212 137.41 15.4988V43.6182C137.442 43.6182 137.474 43.6182 137.474 43.6182L137.632 43.5233ZM108.043 7.93907C103.889 8.16049 98.5294 8.72984 94.6604 10.2165C91.3305 11.4817 90.2522 12.4306 94.1847 14.107C102.145 17.4598 120.221 17.3966 128.213 14.107C131.67 12.6836 131.448 11.8296 128.182 10.4379C122.854 8.19212 113.847 7.6544 108.075 7.97071L108.043 7.93907ZM90.2839 9.55223C85.2732 9.71038 80.2308 10.1848 75.22 9.55223C75.5689 10.3114 78.0108 11.7347 77.9157 12.4939C77.8205 13.253 72.8732 17.365 72.9367 17.8078C74.3955 19.3893 76.1714 20.6862 77.5668 22.2993C77.9157 23.438 76.552 24.0706 75.886 24.7348C75.4737 25.146 72.9049 27.5816 72.9049 27.8346C72.9049 28.2775 76.4569 31.0609 77.0277 31.6303C77.2497 31.8517 77.6303 32.1996 77.5985 32.5159C77.5034 33.4649 72.7464 37.5768 72.7464 38.1462L72.9684 38.5257L77.1546 42.2265C77.3765 42.5428 77.3765 42.9856 77.1546 43.3019L73.1269 47.6037C72.7781 48.3312 74.8395 48.6475 75.442 48.774C78.2645 49.3117 82.9898 49.3117 85.9075 49.1219C86.288 49.1219 86.6686 48.9638 87.0492 48.9638C86.7637 47.8567 86.3832 46.8762 86.288 45.7058C85.5903 36.1534 86.8272 25.747 86.288 16.0997C86.6686 13.3479 88.3494 11.3552 90.2522 9.48897L90.2839 9.55223ZM132.748 14.107C132.526 13.9489 131.48 15.1824 131.226 15.3722C125.708 19.4842 107.98 19.2311 101.193 18.3139C97.2926 17.7761 92.3136 16.9538 89.618 13.9489C89.3642 13.9489 88.5397 16.1946 88.6348 16.6058C89.1423 25.9684 87.9688 35.9953 88.6348 45.2947C88.8251 48.1098 90.1571 49.5331 92.599 50.7667C100.813 54.8787 121.934 55.0368 129.989 50.5769C132.019 49.4382 133.351 48.0781 133.541 45.611V16.6058C133.509 15.7202 133.065 14.9294 132.78 14.107H132.748ZM56.4774 40.2654C52.418 40.7082 47.5659 45.2314 45.5045 48.5842C40.6206 56.4286 41.2866 69.9032 49.5321 75.3436C51.4666 76.6088 51.9741 76.5139 54.1623 75.8813C61.4564 73.7937 71.573 65.0004 71.4461 56.8398C71.4461 56.65 71.4778 56.3653 71.2876 56.2388C71.0339 56.049 68.1162 55.3215 67.4502 55.0685C62.2175 53.0441 59.2682 49.6597 58.4119 44.0611C58.285 43.1754 58.3167 41.4041 58.0313 40.8031C57.6825 40.1073 57.1751 40.2021 56.5091 40.2654H56.4774ZM165.096 40.2654C164.176 40.5185 164.335 43.0173 164.208 43.9345C163.352 49.5964 160.434 53.0441 155.138 55.0685C154.472 55.3215 151.523 56.049 151.301 56.2388C151.015 56.4602 151.269 58.2315 151.301 58.6427C152.411 66.0442 162.908 75.6915 170.234 76.3241C171.756 76.4507 173.437 75.1222 174.547 74.1416C184.314 65.4749 180.731 47.2874 169.377 41.3408C168.426 40.8348 166.079 39.9491 165.064 40.2338L165.096 40.2654ZM150.064 53.8981C145.402 51.3993 140.613 49.0903 135.539 47.5088C134.08 51.937 129.672 53.9298 125.422 54.9103C117.145 56.8398 98.91 57.1561 91.4256 52.9492C89.0788 51.6207 89.6497 51.2095 86.51 51.3044C83.3704 51.3993 80.3576 51.6524 77.3131 51.3677L72.4292 53.8981C72.4292 54.1512 72.7781 54.0247 72.9684 54.1828C74.0466 55.0052 73.7929 57.6622 73.6026 58.9274C72.461 67.2146 63.1689 75.4069 55.5894 77.9689C53.1792 78.7913 51.4349 79.2658 49.1198 77.9689C48.7076 77.7475 47.0585 76.3874 46.7413 76.5455C41.4452 82.0176 36.1807 87.9958 29.9966 92.4873C28.8866 93.3097 27.6815 94.1954 26.3496 94.7014C26.9204 96.4727 28.8866 97.7696 30.504 98.5287C34.9122 100.553 40.0181 100.838 44.68 99.5409C45.9168 99.6674 46.2339 101.028 45.2191 101.755C44.7117 102.103 43.7285 102.261 43.0943 102.388C40.3035 102.925 37.6713 102.83 34.8805 102.483C33.39 106.405 31.2017 110.264 28.4109 113.395C27.9352 113.933 24.7956 116.685 24.8273 116.938C24.8273 117.033 25.8104 117.792 26.0007 117.918C28.2207 119.531 31.17 120.037 33.8974 119.911C34.6902 119.342 35.261 118.424 36.0222 117.792C37.1639 116.874 39.1301 115.989 40.5889 115.831C41.4769 115.736 42.682 115.957 43.4748 115.831C44.1408 115.704 44.236 114.66 45.5996 114.913C46.8365 115.135 46.0119 116.716 46.2022 117.033C46.2973 117.191 46.9633 117.507 47.217 117.728C51.4983 121.651 53.1474 126.806 54.2891 132.373C55.3357 137.403 56.0651 143.792 52.4498 147.999C50.9275 149.77 49.3101 151.541 47.7244 153.313C47.4073 153.661 45.9168 154.989 45.8534 155.242C45.6948 155.875 47.5025 157.709 48.0416 158.184C53.1157 162.739 60.8221 163.118 67.0697 161.062C67.3551 160.967 70.5264 159.797 70.3362 159.544C67.3868 158.247 64.374 156.539 61.8369 154.61C60.8538 153.85 57.841 151.889 59.1413 150.592C60.2196 149.517 61.393 151.193 62.1858 151.826C82.7361 167.863 122.251 168.653 145.878 159.734C149.81 158.247 154.06 156.254 157.548 153.914C159.166 152.807 160.624 151.541 162.178 150.339C163.257 150.086 164.145 151.035 163.605 152.079C163.035 153.155 159.039 155.875 157.834 156.634C156.058 157.773 154.155 158.785 152.22 159.607C152.03 159.86 155.328 161.062 155.614 161.157C162.178 163.308 170.678 162.675 175.53 157.235C175.879 156.855 176.862 155.78 176.735 155.305C176.671 155.052 175.181 153.756 174.864 153.376C173.278 151.605 171.661 149.833 170.138 148.062C166.523 143.855 167.253 137.466 168.299 132.437C169.472 126.87 171.09 121.714 175.371 117.792C175.625 117.57 176.259 117.254 176.386 117.096C176.608 116.78 175.752 115.198 176.989 114.977C178.352 114.724 178.447 115.767 179.113 115.894C179.906 116.052 181.08 115.831 181.968 115.894C183.458 116.052 185.393 116.938 186.534 117.855C187.01 118.235 188.374 119.911 188.659 119.974C191.957 120.164 195.319 119.342 197.697 117.001C196.619 115.736 195.224 114.692 194.114 113.458C191.323 110.327 189.135 106.468 187.644 102.546C184.854 102.894 182.221 102.989 179.431 102.451C178.796 102.324 177.813 102.166 177.306 101.818C176.259 101.122 176.608 99.7307 177.845 99.6042C182.507 100.869 187.613 100.585 192.021 98.592C193.67 97.8329 195.604 96.536 196.175 94.7647C194.875 94.2586 193.67 93.373 192.528 92.5506C188.183 89.3875 184.314 85.4021 180.477 81.6381L175.752 76.6088C175.435 76.4507 173.786 77.8108 173.373 78.0322C170.646 79.5504 167.855 78.5066 165.159 77.3363C158.119 74.2365 149.969 66.9615 148.859 58.9906C148.732 58.0417 148.605 55.7327 148.922 54.9103C148.986 54.7205 149.334 54.4042 149.493 54.2461C149.683 54.0879 150.064 54.2144 150.032 53.9614L150.064 53.8981ZM41.6989 118.14C31.614 118.393 33.8657 134.935 36.1173 141.072C37.8933 145.848 43.1894 151.035 48.549 148.094C54.1306 145.026 52.862 137.086 51.6569 131.93C50.5787 127.249 47.7879 118.013 41.6672 118.171L41.6989 118.14ZM180.477 118.108C173.468 118.393 170.202 132.089 169.853 137.561C169.568 141.894 170.709 148.157 176.037 148.853C187.2 150.308 190.657 129.432 186.978 122.157C185.773 119.753 183.268 117.981 180.477 118.108ZM178.606 151.32C177.908 151.415 177.115 151.257 176.386 151.32C177.02 152.364 179.684 154.009 179.526 155.274C179.272 157.14 175.815 160.366 174.261 161.41C166.713 166.439 156.851 165.206 149.271 160.936C125.486 170.203 97.0706 170.203 73.2855 160.936C65.706 165.237 55.8431 166.439 48.2953 161.41C46.7413 160.366 43.2846 157.172 43.0309 155.274C42.8723 154.009 45.5362 152.364 46.1705 151.32H43.9505C42.4917 151.32 39.4472 149.422 38.3373 148.442C34.7853 145.342 33.39 141.135 32.5337 136.643C31.9628 133.733 31.614 130.602 31.8677 127.66C31.7726 127.534 30.8529 128.293 30.726 128.42C18.0406 139.269 15.789 156.096 29.9015 166.882C36.593 172.006 45.0605 175.201 53.084 177.605C53.4963 177.573 53.8769 176.15 54.0989 175.707C55.1771 173.556 56.6359 171.057 58.3485 169.318C59.0144 168.622 59.8707 167.673 60.8538 168.337C62.4395 169.413 60.2513 170.773 59.5536 171.595C51.0226 181.907 51.974 198.26 57.9996 209.552C58.5705 210.627 60.4415 212.588 59.173 213.537C57.7142 214.644 56.2871 211.481 55.7162 210.437C55.4625 209.963 54.5111 207.749 54.2574 207.622C53.7817 207.338 50.325 207.401 49.5638 207.432C45.9485 207.654 42.1112 209.299 39.7644 212.082C32.6923 220.464 37.703 234.508 42.0794 243.08C49.7541 245.357 57.9045 244.282 65.7694 244.187C65.7694 243.934 65.7694 243.649 65.7377 243.396C65.04 238.557 60.5367 231.756 69.1945 232.515C73.1269 232.863 78.5182 234.603 82.641 235.33C103.445 239.063 120.824 238.905 141.596 235.014C145.592 234.255 152.22 232.136 155.963 232.484C157.263 232.61 158.468 233.464 158.626 234.856C158.912 237.133 157.199 240.992 156.851 243.396C156.819 243.649 156.787 243.934 156.819 244.187C163.701 244.314 170.741 245.073 177.559 243.839C178.574 243.649 179.589 243.491 180.54 243.08C184.917 234.476 189.959 220.369 182.792 211.987C180.572 209.393 176.767 207.685 173.342 207.432C172.454 207.369 168.553 207.274 168.077 207.844C167.665 208.35 167.126 209.868 166.745 210.564C166.111 211.671 164.874 214.581 163.32 213.474C162.115 212.651 163.986 210.532 164.462 209.647C170.773 197.69 171.597 181.337 162.242 170.678C161.766 170.14 160.846 169.855 161.227 168.78C161.988 166.787 164.113 169.096 164.811 169.919C166.745 172.133 168.109 174.853 169.251 177.51C169.821 177.637 174.325 176.023 175.213 175.707C184.505 172.417 197.793 166.06 201.154 156.065C204.896 144.962 199.537 134.524 191.006 127.565C190.689 127.502 190.784 127.724 190.784 127.945C190.974 132.531 190.15 139.332 188.088 143.444C186.471 146.702 182.475 150.782 178.701 151.225L178.606 151.32ZM40.0181 245.326C36.8467 245.705 35.9587 248.647 36.2442 251.43C36.7833 256.649 44.8068 256.523 48.6441 256.681C52.4815 256.839 63.93 257.44 66.9428 255.479C69.2579 253.992 69.6385 248.204 67.1965 246.528C58.9193 246.876 50.8007 247.571 42.6186 245.832C41.6989 245.642 41.0329 245.199 40.0181 245.294V245.326ZM181.682 245.326C181.175 245.389 180.477 245.737 179.938 245.863C172.929 247.35 166.65 246.97 159.578 246.654C158.182 246.591 156.755 246.559 155.36 246.528C152.886 248.204 153.299 253.992 155.614 255.479C158.626 257.44 170.043 256.839 173.912 256.681C177.274 256.555 183.236 256.618 185.456 253.645C187.581 250.798 185.995 244.756 181.714 245.357L181.682 245.326Z" fill="#4E4F4E"/>
<path d="M178.606 151.323C182.412 150.88 186.376 146.8 187.993 143.542C190.055 139.398 190.911 132.598 190.689 128.043C190.689 127.821 190.594 127.6 190.911 127.663C199.474 134.622 204.802 145.06 201.059 156.162C197.698 166.158 184.41 172.515 175.118 175.805C174.23 176.121 169.726 177.734 169.156 177.608C168.014 174.919 166.65 172.231 164.716 170.016C163.986 169.194 161.861 166.885 161.132 168.878C160.72 169.953 161.671 170.238 162.147 170.776C171.502 181.403 170.71 197.788 164.367 209.744C163.891 210.63 162.02 212.749 163.225 213.572C164.811 214.679 166.016 211.737 166.65 210.662C167.031 209.966 167.602 208.416 167.982 207.941C168.458 207.372 172.359 207.467 173.247 207.53C176.64 207.783 180.446 209.491 182.697 212.085C189.896 220.467 184.854 234.543 180.446 243.178C179.494 243.557 178.479 243.747 177.465 243.937C170.646 245.17 163.606 244.411 156.724 244.285C156.724 244.032 156.724 243.747 156.756 243.494C157.104 241.059 158.817 237.231 158.532 234.954C158.373 233.594 157.2 232.708 155.868 232.582C152.125 232.265 145.497 234.384 141.501 235.112C120.761 239.003 103.35 239.129 82.5461 235.428C78.3917 234.701 73.0004 232.961 69.0996 232.613C60.4418 231.854 64.9451 238.655 65.6428 243.494C65.6746 243.747 65.7063 244.032 65.6745 244.285C57.8096 244.411 49.6275 245.455 41.9846 243.178C37.6081 234.606 32.5974 220.562 39.6695 212.18C42.0163 209.396 45.8536 207.752 49.469 207.53C50.2301 207.467 53.7186 207.435 54.1626 207.72C54.3846 207.847 55.336 210.061 55.6214 210.535C56.1922 211.547 57.6193 214.71 59.0782 213.635C60.3784 212.654 58.4756 210.725 57.9048 209.649C51.8792 198.357 50.9278 182.004 59.4587 171.693C60.1564 170.871 62.3446 169.51 60.759 168.435C59.7758 167.771 58.9196 168.72 58.2536 169.416C56.5728 171.155 55.0823 173.654 54.004 175.805C53.8137 176.216 53.4014 177.639 52.9892 177.703C44.9657 175.299 36.4982 172.104 29.8066 166.98C15.6941 156.194 17.9458 139.367 30.6312 128.517C30.758 128.391 31.6777 127.632 31.7729 127.758C31.4874 130.7 31.868 133.831 32.4388 136.741C33.2951 141.233 34.6905 145.44 38.2424 148.539C39.3524 149.52 42.4286 151.418 43.8557 151.418H46.0756C45.4414 152.462 42.7774 154.106 42.936 155.372C43.1897 157.238 46.6465 160.464 48.2004 161.508C55.7482 166.537 65.6111 165.304 73.1906 161.033C96.9757 170.301 125.391 170.301 149.176 161.033C156.756 165.335 166.619 166.537 174.166 161.508C175.72 160.464 179.177 157.269 179.431 155.372C179.589 154.106 176.925 152.462 176.291 151.418C176.989 151.355 177.813 151.513 178.511 151.418L178.606 151.323ZM108.202 177.323C102.97 177.734 97.6734 180.613 95.7389 185.705C92.4407 194.435 100.94 204.525 106.934 210.061C107.568 210.662 110.708 213.572 111.342 213.508C111.818 213.477 113.403 212.053 113.879 211.642C121.776 204.937 134.176 190.292 123.33 180.834C119.27 177.292 113.403 176.88 108.234 177.323H108.202Z" fill="#C8E3F3"/>
<path d="M150.065 53.8979C150.065 54.151 149.716 54.0244 149.526 54.1826C149.367 54.3091 149.05 54.6571 148.955 54.8468C148.606 55.7009 148.765 57.9783 148.892 58.9272C149.97 66.898 158.152 74.1731 165.192 77.2728C167.888 78.4748 170.679 79.487 173.406 77.9687C173.818 77.7473 175.468 76.3872 175.785 76.5453L180.51 81.5746C184.347 85.3386 188.185 89.324 192.561 92.4871C193.671 93.3095 194.876 94.1951 196.208 94.7012C195.637 96.4725 193.671 97.7694 192.054 98.5285C187.646 100.553 182.54 100.838 177.878 99.5407C176.641 99.6672 176.324 101.027 177.339 101.755C177.846 102.103 178.829 102.261 179.464 102.387C182.254 102.925 184.887 102.83 187.677 102.482C189.168 106.404 191.356 110.263 194.147 113.395C195.257 114.628 196.652 115.704 197.73 116.937C195.352 119.278 191.959 120.1 188.692 119.911C188.407 119.847 187.043 118.171 186.567 117.791C185.426 116.874 183.459 115.989 182.001 115.83C181.113 115.735 179.939 115.957 179.146 115.83C178.48 115.704 178.385 114.66 177.022 114.913C175.785 115.134 176.609 116.716 176.419 117.032C176.324 117.19 175.658 117.507 175.404 117.728C171.123 121.65 169.505 126.806 168.332 132.373C167.286 137.402 166.556 143.792 170.171 147.999C171.694 149.77 173.311 151.541 174.897 153.312C175.214 153.692 176.704 154.989 176.768 155.242C176.895 155.716 175.912 156.792 175.563 157.171C170.742 162.612 162.243 163.213 155.647 161.094C155.361 160.999 152.063 159.797 152.253 159.544C154.188 158.721 156.091 157.709 157.867 156.57C159.072 155.811 163.068 153.091 163.638 152.016C164.178 151.003 163.29 150.023 162.211 150.276C160.657 151.478 159.199 152.775 157.581 153.85C154.093 156.191 149.843 158.184 145.911 159.67C122.284 168.622 82.7691 167.799 62.2188 151.763C61.3942 151.13 60.2208 149.485 59.1743 150.529C57.874 151.826 60.8551 153.787 61.8699 154.546C64.4387 156.507 67.4515 158.184 70.3692 159.48C70.5594 159.733 67.3881 160.904 67.1027 160.999C60.8551 163.055 53.1487 162.675 48.0746 158.12C47.5672 157.646 45.7278 155.811 45.8864 155.179C45.9498 154.926 47.4403 153.597 47.7575 153.249C49.3114 151.478 50.9605 149.707 52.4828 147.935C56.0981 143.728 55.3687 137.339 54.3221 132.31C53.1487 126.743 51.5314 121.587 47.25 117.665C46.9963 117.444 46.3621 117.127 46.2352 116.969C46.0132 116.653 46.8378 115.071 45.6326 114.85C44.269 114.597 44.1738 115.641 43.5078 115.767C42.715 115.925 41.5416 115.704 40.6219 115.767C39.1314 115.925 37.1969 116.811 36.0552 117.728C35.2623 118.361 34.6915 119.278 33.9304 119.847C31.203 119.974 28.2854 119.468 26.0337 117.855C25.8434 117.728 24.892 116.969 24.8603 116.874C24.7969 116.621 27.9365 113.869 28.4439 113.332C31.2347 110.2 33.423 106.341 34.9135 102.419C37.7043 102.767 40.3365 102.862 43.1273 102.324C43.7298 102.198 44.7447 102.039 45.2521 101.692C46.2986 100.996 45.9498 99.6039 44.713 99.4774C40.0511 100.743 34.9452 100.458 30.537 98.4652C28.8879 97.7061 26.9217 96.4093 26.3826 94.638C27.6828 94.1319 28.8879 93.2462 30.0296 92.4238C36.2137 87.9323 41.5099 81.9541 46.806 76.4821C47.1232 76.3239 48.7723 77.684 49.1846 77.9054C51.4996 79.2023 53.2439 78.6962 55.6541 77.9054C63.2653 75.3434 72.5574 67.1195 73.6674 58.8639C73.8576 57.5987 74.0796 54.9417 73.0331 54.1193C72.8428 53.9612 72.4622 54.0877 72.494 53.8347L77.3778 51.3042C80.4223 51.5573 83.5303 51.3042 86.5747 51.241C89.6192 51.1777 89.1118 51.5573 91.4903 52.8858C98.9747 57.0926 117.21 56.7763 125.487 54.8468C129.737 53.8663 134.113 51.8736 135.604 47.4453C140.678 48.9952 145.467 51.3359 150.129 53.8347L150.065 53.8979ZM139.283 96.093H136.397C135.794 95.144 136.27 92.8666 134.906 92.6136C133.13 92.2973 133.416 94.7012 133.638 95.7766C127.295 95.1757 122.982 89.4506 119.906 84.4529C118.986 83.7254 117.686 84.3264 117.813 85.5284L121.46 103.526C115.878 103.653 110.296 101.597 105.73 98.4969C99.2919 94.0686 95.1374 87.4262 91.8075 80.5308C91.3001 79.4553 90.6024 76.2923 88.8898 77.5259C88.0336 78.1585 88.6678 79.2972 88.5727 79.4237C88.4458 79.5502 85.9088 80.1828 85.4331 80.341C64.5339 87.616 50.6434 105.487 56.7958 128.356C63.0116 151.383 84.5134 157.899 106.11 158.69C130.878 159.575 159.833 154.799 166.08 126.648C170.457 106.911 159.991 90.5576 142.359 82.4602C141.629 82.1123 139.441 81.4481 138.997 81.1318C138.68 80.8787 138.87 79.3288 138.046 78.8544C137.158 78.3483 136.175 79.1074 136.206 80.0879C137.189 85.4335 138.458 90.779 139.219 96.1562L139.283 96.093Z" fill="#C8E2F2"/>
<path d="M132.746 14.1074C133.032 14.9298 133.476 15.6889 133.507 16.6062V45.6113C133.317 48.0469 131.985 49.4386 129.955 50.5773C121.9 55.0372 100.779 54.879 92.5653 50.7671C90.1234 49.5335 88.7914 48.1101 88.6011 45.295C87.9351 35.9956 89.1085 25.9688 88.6011 16.6062C88.5377 16.195 89.3622 13.9492 89.5842 13.9492C92.3116 16.9541 97.2906 17.8081 101.16 18.3142C107.915 19.2315 125.674 19.4845 131.192 15.3726C131.478 15.1512 132.493 13.9176 132.715 14.1074H132.746ZM121.742 20.2121C121.234 20.3069 120.854 20.8763 120.759 21.3507C120.6 22.2048 120.632 24.6403 120.727 25.5576C120.917 27.6136 122.979 27.5187 123.296 26.1269C123.422 25.4943 123.391 21.6671 123.232 21.0977C123.042 20.4651 122.439 20.0539 121.773 20.1804L121.742 20.2121ZM122.947 34.6988C123.137 34.509 123.264 34.0346 123.296 33.7499C123.391 32.8959 123.422 30.0175 123.264 29.2267C122.979 27.7717 120.949 27.8034 120.727 29.3533C120.632 30.0491 120.6 33.402 120.727 34.0029C120.949 34.9518 122.249 35.4263 122.915 34.6672L122.947 34.6988ZM121.742 35.9957C121.234 36.0905 120.854 36.6599 120.759 37.1343C120.6 37.9567 120.6 40.6453 120.727 41.4993C120.917 43.239 123.01 43.239 123.264 41.7524C123.391 41.0249 123.391 37.3558 123.169 36.7548C122.947 36.1854 122.344 35.8375 121.742 35.964V35.9957ZM121.742 43.7451C121.234 43.84 120.854 44.4093 120.759 44.8838C120.6 45.7378 120.632 48.1734 120.727 49.0907C120.917 51.1466 122.979 51.0517 123.296 49.66C123.422 49.0274 123.391 45.2001 123.232 44.6308C123.042 43.9982 122.439 43.587 121.773 43.7135L121.742 43.7451Z" fill="white"/>
<path d="M56.477 40.2692C57.143 40.2059 57.6504 40.0794 57.9993 40.8069C58.2847 41.4079 58.253 43.1792 58.3798 44.0648C59.2678 49.695 62.1855 53.0795 67.4182 55.0722C68.0842 55.3253 71.0335 56.0528 71.2555 56.2425C71.4458 56.3691 71.4141 56.6537 71.4141 56.8435C71.5409 65.0042 61.4243 73.8291 54.1302 75.8851C51.942 76.5177 51.4346 76.6126 49.5001 75.3473C41.2228 69.9069 40.5886 56.4323 45.4725 48.588C47.5655 45.2351 52.386 40.712 56.4453 40.2692H56.477Z" fill="#AECDC5"/>
<path d="M165.096 40.2661C166.11 39.9814 168.457 40.867 169.409 41.3731C180.762 47.288 184.346 65.5072 174.578 74.1739C173.468 75.1545 171.787 76.4829 170.265 76.3564C162.939 75.7238 152.442 66.0449 151.332 58.675C151.268 58.2638 151.015 56.4609 151.332 56.2711C151.586 56.0813 154.503 55.3538 155.169 55.1007C160.465 53.0764 163.383 49.6287 164.239 43.9668C164.366 43.0495 164.239 40.5824 165.127 40.2977L165.096 40.2661Z" fill="#AECDC5"/>
<path d="M41.6981 118.141C47.8188 117.983 50.6413 127.219 51.6878 131.9C52.8612 137.088 54.1614 144.995 48.5799 148.063C43.2203 151.037 37.8924 145.818 36.1482 141.041C33.8648 134.937 31.6449 118.362 41.7298 118.109L41.6981 118.141Z" fill="white"/>
<path d="M180.477 118.108C183.268 117.981 185.773 119.753 186.978 122.157C190.625 129.463 187.2 150.308 176.037 148.853C170.709 148.157 169.567 141.862 169.853 137.561C170.202 132.057 173.468 118.361 180.477 118.108Z" fill="white"/>
<path d="M90.2832 9.55078C88.3804 11.417 86.6996 13.4097 86.319 16.1615C86.8581 25.8088 85.6213 36.2153 86.319 45.7677C86.4141 46.938 86.8264 47.9185 87.0801 49.0256C86.6996 49.0256 86.319 49.1521 85.9384 49.1837C83.0208 49.3735 78.2955 49.3735 75.473 48.8358C74.8704 48.7093 72.8091 48.393 73.1579 47.6655L77.1855 43.3637C77.4075 43.0474 77.4075 42.6046 77.1855 42.2883L72.9993 38.5875L72.7773 38.208C72.7773 37.6386 77.5344 33.5267 77.6295 32.5778C77.6612 32.2614 77.2807 31.9135 77.0587 31.6921C76.4878 31.1228 72.9359 28.3393 72.9359 27.8964C72.9359 27.4536 75.5047 25.1762 75.917 24.7967C76.583 24.1324 77.9784 23.4998 77.5978 22.3611C76.2024 20.748 74.4264 19.4511 72.9676 17.8696C72.9042 17.4268 77.8832 13.2832 77.9466 12.5557C78.0101 11.8282 75.5998 10.3732 75.251 9.61404C80.2617 10.2467 85.3042 9.77219 90.3149 9.61404L90.2832 9.55078Z" fill="white"/>
<path d="M181.683 245.327C185.964 244.726 187.55 250.767 185.425 253.614C183.205 256.619 177.243 256.524 173.881 256.651C170.012 256.809 158.595 257.41 155.583 255.449C153.268 253.962 152.887 248.174 155.329 246.497C156.724 246.497 158.151 246.56 159.547 246.624C166.587 246.94 172.867 247.32 179.907 245.833C180.446 245.706 181.144 245.359 181.651 245.295L181.683 245.327Z" fill="white"/>
<path d="M40.0194 245.327C41.0026 245.2 41.7003 245.643 42.6199 245.865C50.802 247.604 58.9207 246.877 67.1979 246.561C69.6715 248.237 69.2593 254.025 66.9442 255.512C63.9314 257.473 52.5463 256.872 48.6455 256.714C44.7448 256.556 36.753 256.714 36.2455 251.463C35.9601 248.68 36.8481 245.738 40.0194 245.359V245.327Z" fill="white"/>
<path d="M108.044 7.93855C113.815 7.62224 122.822 8.15996 128.15 10.4057C131.448 11.7975 131.638 12.6515 128.182 14.0749C120.19 17.3644 102.113 17.4593 94.153 14.0749C90.2206 12.4301 91.2988 11.4495 94.6287 10.1843C98.5295 8.69768 103.857 8.12833 108.012 7.90692L108.044 7.93855ZM109.883 10.0578C108.361 10.121 104.587 10.5322 103.477 11.5444C102.716 12.2403 103.286 12.7147 104.016 13.0943C106.68 14.5809 115.782 14.6758 118.35 12.9994C119.334 12.3668 119.302 11.8291 118.35 11.2597C116.543 10.1843 112.039 9.93126 109.915 10.0262L109.883 10.0578Z" fill="white"/>
<path d="M108.201 177.321C113.37 176.91 119.237 177.321 123.296 180.832C134.174 190.29 121.742 204.935 113.845 211.64C113.37 212.02 111.784 213.475 111.308 213.507C110.706 213.57 107.566 210.66 106.9 210.059C100.906 204.492 92.4072 194.433 95.7054 185.703C97.6399 180.611 102.904 177.764 108.169 177.321H108.201ZM108.359 179.757C104.585 180.073 100.906 181.781 98.845 184.976C93.7074 192.852 103.919 204.081 109.469 209.078C109.786 209.363 111.055 210.502 111.34 210.502C111.562 210.502 112.862 209.331 113.116 209.078C118.698 204.049 128.909 192.789 123.677 184.881C120.347 179.82 113.941 179.282 108.359 179.757Z" fill="#4E4F4E"/>
<path d="M139.281 96.0911C138.52 90.7139 137.283 85.3683 136.269 80.0228C136.237 79.0422 137.22 78.2831 138.108 78.7892C138.933 79.2637 138.742 80.8135 139.059 81.0666C139.503 81.3829 141.66 82.0471 142.421 82.3951C160.054 90.5241 170.519 106.845 166.143 126.583C159.895 154.734 130.941 159.51 106.173 158.624C84.5757 157.834 63.0422 151.318 56.8581 128.291C50.7057 105.454 64.5962 87.5825 85.4954 80.2758C85.9393 80.1177 88.5081 79.4851 88.635 79.3585C88.7301 79.2637 88.0641 78.0933 88.9521 77.4607C90.6647 76.2271 91.3306 79.3902 91.8698 80.4656C95.1997 87.3611 99.3859 94.0351 105.792 98.4317C110.327 101.563 115.94 103.587 121.522 103.461L117.875 85.4632C117.716 84.2296 119.048 83.6603 119.968 84.3878C123.044 89.417 127.357 95.1422 133.7 95.7115C133.478 94.6361 133.161 92.2321 134.968 92.5485C136.3 92.8015 135.856 95.0789 136.459 96.0278H139.345L139.281 96.0911ZM121.49 91.0618L124.218 104.347C124.281 105.327 123.71 105.865 122.79 105.928C110.359 107.067 99.4176 98.2103 93.2652 88.31C91.9332 86.1591 90.8549 83.8501 89.5864 81.6676C77.4401 84.7674 65.9599 92.3587 60.7906 104.062C53.1793 121.364 61.076 142.651 78.3281 150.432C95.5802 158.213 127.135 158.213 144.387 150.401C153.584 146.225 160.181 138.286 163.098 128.67C168.331 111.369 160.593 94.9207 145.117 86.4438C144.546 86.1275 139.852 83.7236 139.63 83.945L142.072 97.0716C142.009 97.9889 141.343 98.1787 140.582 98.3368C140.423 98.3685 139.059 98.3052 139.472 98.6848C139.535 98.748 140.899 99.0643 141.121 99.096C143.055 99.4755 144.26 99.2857 146.1 99.2857C147.654 99.2857 147.971 101.247 146.671 101.658C144.356 102.386 139.281 101.405 137.157 100.14C136.491 99.7602 135.476 98.6848 135 98.495C134.398 98.2419 133.224 98.3052 132.463 98.147C127.801 97.1665 124.598 94.5728 121.522 91.0934L121.49 91.0618Z" fill="#4E4F4E"/>
<path d="M121.743 20.2104C122.409 20.0838 123.012 20.495 123.202 21.1277C123.392 21.697 123.424 25.5243 123.265 26.1569C122.948 27.5486 120.887 27.6435 120.696 25.5875C120.601 24.6703 120.57 22.2347 120.728 21.3807C120.823 20.8746 121.204 20.3369 121.711 20.242L121.743 20.2104Z" fill="#4E4F4E"/>
<path d="M121.743 43.7416C122.409 43.6151 123.012 44.0263 123.202 44.6589C123.392 45.2283 123.424 49.0555 123.265 49.6881C122.948 51.0799 120.887 51.1748 120.696 49.1188C120.601 48.2015 120.57 45.766 120.728 44.9119C120.823 44.4059 121.204 43.8681 121.711 43.7732L121.743 43.7416Z" fill="#4E4F4E"/>
<path d="M122.952 34.7001C122.254 35.4592 120.954 34.9848 120.764 34.0359C120.605 33.4033 120.637 30.0504 120.764 29.3862C121.017 27.8363 123.015 27.8047 123.301 29.2597C123.459 30.0188 123.428 32.9288 123.332 33.7828C123.301 34.0675 123.174 34.5103 122.984 34.7317L122.952 34.7001Z" fill="#4E4F4E"/>
<path d="M121.743 35.9947C122.345 35.8682 122.948 36.2161 123.17 36.7855C123.392 37.3864 123.424 41.0239 123.265 41.7831C123.011 43.2381 120.918 43.2381 120.728 41.53C120.633 40.676 120.633 37.9874 120.76 37.165C120.855 36.6589 121.235 36.1212 121.743 36.0263V35.9947Z" fill="#4E4F4E"/>
<path d="M109.883 10.0571C111.976 9.93054 116.511 10.1836 118.319 11.2907C119.302 11.86 119.333 12.3977 118.319 13.0303C115.75 14.6751 106.648 14.5802 103.984 13.1252C103.286 12.7457 102.716 12.2712 103.445 11.5753C104.555 10.5632 108.329 10.152 109.851 10.0887L109.883 10.0571Z" fill="#4E4F4E"/>
<path d="M108.363 179.76C113.944 179.285 120.319 179.855 123.68 184.884C128.913 192.792 118.733 204.052 113.12 209.081C112.834 209.334 111.566 210.473 111.344 210.505C111.027 210.505 109.79 209.398 109.473 209.081C103.923 204.084 93.7111 192.855 98.8487 184.979C100.942 181.784 104.621 180.076 108.363 179.76Z" fill="white"/>
<path d="M121.491 91.0665C124.567 94.5458 127.77 97.1396 132.432 98.1201C133.193 98.2782 134.335 98.2466 134.969 98.468C135.445 98.6578 136.459 99.7332 137.125 100.113C139.25 101.378 144.324 102.359 146.639 101.631C147.94 101.22 147.623 99.2588 146.069 99.2588C144.229 99.2588 143.024 99.4486 141.09 99.069C140.868 99.0374 139.504 98.7211 139.44 98.6578C139.028 98.2782 140.392 98.3415 140.55 98.3099C141.312 98.1517 141.978 97.9619 142.041 97.0447L139.599 83.918C139.821 83.6966 144.515 86.1005 145.085 86.4168C160.593 94.9254 168.3 111.342 163.067 128.643C160.181 138.259 153.553 146.198 144.356 150.374C127.104 158.186 95.5807 158.186 78.2969 150.405C61.0448 142.624 53.1481 121.337 60.7593 104.035C65.9286 92.3317 77.4089 84.7404 89.5552 81.6406C90.8237 83.8231 91.902 86.1322 93.2339 88.283C99.3864 98.1834 110.296 107.04 122.759 105.901C123.679 105.806 124.25 105.269 124.186 104.32L121.459 91.0349L121.491 91.0665ZM87.6524 92.6164C86.4156 92.8378 86.701 94.6091 86.3521 95.5897C85.1153 98.9741 80.3583 99.4486 77.2821 99.4169C76.7429 99.4169 76.5844 99.1323 75.8867 99.4169C74.8718 99.8281 74.9036 101.315 75.8232 101.631C77.6626 102.264 82.1025 101.631 83.9419 100.904C86.035 100.113 87.9378 98.5313 88.6989 96.3804C89.0795 95.2734 89.682 92.2685 87.6841 92.6164H87.6524ZM84.6079 105.363C78.6775 106.281 79.0897 117.889 79.3117 122.254C79.5654 127.094 80.9291 133.293 87.145 132.661C93.3608 132.028 92.9485 121.084 92.6948 116.656C92.4094 111.911 90.9506 104.383 84.5762 105.395L84.6079 105.363ZM135.73 105.363C129.419 106.281 129.546 119.123 129.831 123.772C130.022 127.062 131.354 132.154 135.254 132.629C141.502 133.388 142.961 127.252 143.214 122.412C143.5 117.162 144.071 104.162 135.73 105.363ZM110.486 124.816C104.112 125.227 105.095 129.023 110.454 129.466C112.357 129.624 114.704 129.371 116.163 128.043C116.86 127.378 117.114 126.303 116.321 125.607C115.275 124.721 111.881 124.721 110.518 124.816H110.486Z" fill="white"/>
<path d="M84.607 105.36C90.9814 104.38 92.4402 111.908 92.7256 116.621C92.9793 121.049 93.3916 131.993 87.1758 132.626C80.9599 133.259 79.5963 127.091 79.3425 122.22C79.1206 117.855 78.6766 106.246 84.6387 105.329L84.607 105.36ZM86.7318 109.631C85.8121 108.808 84.8607 109.346 84.385 110.295C82.831 113.205 82.9262 123.833 84.1313 126.901C84.8924 128.83 86.8269 129.684 87.8735 127.47C89.364 124.37 88.9517 114.502 87.6515 111.244C87.4612 110.801 87.0806 109.979 86.7318 109.662V109.631Z" fill="#4E4F4E"/>
<path d="M135.728 105.359C144.068 104.158 143.498 117.126 143.212 122.408C142.958 127.279 141.468 133.416 135.252 132.625C131.351 132.15 130.019 127.058 129.829 123.768C129.544 119.119 129.417 106.277 135.728 105.359ZM135.823 109.63C135.474 109.946 135.062 110.768 134.903 111.211C133.603 114.469 133.191 124.338 134.681 127.438C135.759 129.652 137.694 128.798 138.423 126.868C139.628 123.8 139.692 113.172 138.17 110.262C137.662 109.313 136.711 108.776 135.823 109.598V109.63Z" fill="#4E4F4E"/>
<path d="M87.6521 92.6138C89.65 92.2659 89.0792 95.2708 88.6669 96.3778C87.9058 98.4971 86.003 100.11 83.9099 100.901C82.0705 101.597 77.6306 102.261 75.7912 101.628C74.9032 101.312 74.8398 99.8255 75.8546 99.4143C76.5523 99.1297 76.7109 99.4143 77.25 99.4143C80.358 99.4143 85.0833 98.9715 86.3201 95.5871C86.6689 94.6382 86.3835 92.8352 87.6203 92.6138H87.6521Z" fill="#4E4F4E"/>
<path d="M110.486 124.814C111.849 124.72 115.243 124.72 116.289 125.605C117.082 126.269 116.86 127.377 116.131 128.041C114.672 129.401 112.325 129.622 110.422 129.464C105.063 129.021 104.111 125.226 110.454 124.814H110.486Z" fill="#4E4F4E"/>
<path d="M86.7318 109.631C87.0807 109.948 87.4929 110.77 87.6515 111.213C88.9518 114.471 89.364 124.34 87.8735 127.439C86.7952 129.654 84.8924 128.799 84.1313 126.87C82.9262 123.802 82.8311 113.174 84.385 110.264C84.8924 109.315 85.8438 108.777 86.7318 109.6V109.631Z" fill="white"/>
<path d="M135.825 109.631C136.745 108.809 137.696 109.346 138.172 110.295C139.726 113.205 139.631 123.833 138.425 126.901C137.664 128.831 135.73 129.685 134.683 127.471C133.193 124.371 133.605 114.502 134.905 111.244C135.096 110.801 135.476 109.979 135.825 109.663V109.631Z" fill="white"/>
<defs>
<filter id="filter0_f_12_1227" x="0" y="245" width="223" height="28" filterUnits="userSpaceOnUse" color-interpolation-filters="sRGB">
<feFlood flood-opacity="0" result="BackgroundImageFix"/>
<feBlend mode="normal" in="SourceGraphic" in2="BackgroundImageFix" result="shape"/>
<feGaussianBlur stdDeviation="2" result="effect1_foregroundBlur_12_1227"/>
</filter>
</defs>
</svg>
