<svg width="31" height="44" viewBox="0 0 31 44" fill="none" xmlns="http://www.w3.org/2000/svg">
<path d="M2.8367 0.0113806C5.29119 -0.195305 7.00503 2.45377 5.82228 4.66036C4.59934 6.94263 1.26927 6.78544 0.255895 4.40127C-0.579493 2.43048 0.735311 0.188956 2.8367 0.0113806ZM2.78216 1.07392C1.67692 1.1991 0.896073 2.36643 1.05684 3.45226C1.29511 5.06208 3.20129 5.81896 4.4271 4.75642C6.01175 3.38531 4.89503 0.835213 2.78216 1.07683V1.07392Z" fill="#4C4C4C"/>
<path d="M15.2355 0.0113806C17.69 -0.195305 19.4038 2.45377 18.2211 4.66036C16.9981 6.94263 13.668 6.78544 12.6547 4.40127C11.8164 2.43048 13.1312 0.188956 15.2355 0.0142917V0.0113806ZM15.1781 1.07392C14.0728 1.1991 13.292 2.36643 13.4527 3.45226C13.691 5.06208 15.5972 5.81896 16.823 4.75642C18.4077 3.38531 17.2909 0.835213 15.1781 1.07683V1.07392Z" fill="#4C4C4C"/>
<path d="M27.6314 0.0113806C30.0859 -0.195305 31.7997 2.45377 30.617 4.66036C29.394 6.94263 26.064 6.78544 25.0506 4.40127C24.2123 2.43048 25.5271 0.188956 27.6314 0.0142917V0.0113806ZM27.574 1.07392C26.4687 1.1991 25.6879 2.36643 25.8486 3.45226C26.0869 5.06208 27.9931 5.81896 29.2189 4.75642C30.8036 3.38531 29.6868 0.835213 27.574 1.07683V1.07392Z" fill="#4C4C4C"/>
<path d="M2.8367 12.5843C5.29119 12.3776 7.00503 15.0267 5.82228 17.2333C4.59934 19.5155 1.26927 19.3583 0.255895 16.9742C-0.582364 15.0034 0.73244 12.7619 2.8367 12.5872V12.5843ZM2.78216 13.6439C1.67692 13.7691 0.896073 14.9364 1.05684 16.0223C1.29511 17.6321 3.20129 18.389 4.4271 17.3264C6.01175 15.9553 4.89503 13.4052 2.78216 13.6468V13.6439Z" fill="#4C4C4C"/>
<path d="M15.2355 12.5843C17.69 12.3776 19.4038 15.0267 18.2211 17.2333C16.9981 19.5155 13.668 19.3583 12.6547 16.9742C11.8164 15.0034 13.1312 12.7619 15.2355 12.5872V12.5843ZM15.1781 13.6439C14.0728 13.7691 13.292 14.9364 13.4527 16.0223C13.691 17.6321 15.5972 18.389 16.823 17.3264C18.4077 15.9553 17.2909 13.4052 15.1781 13.6468V13.6439Z" fill="#4C4C4C"/>
<path d="M27.6314 12.5843C30.0859 12.3776 31.7997 15.0267 30.617 17.2333C29.394 19.5155 26.064 19.3583 25.0506 16.9742C24.2123 15.0034 25.5271 12.7619 27.6314 12.5872V12.5843ZM27.574 13.6439C26.4687 13.7691 25.6879 14.9364 25.8486 16.0223C26.0869 17.6321 27.9931 18.389 29.2189 17.3264C30.8036 15.9553 29.6868 13.4052 27.574 13.6468V13.6439Z" fill="#4C4C4C"/>
<path d="M2.8367 25.1543C5.29119 24.9476 7.00503 27.5967 5.82228 29.8032C4.59934 32.0855 1.26927 31.9283 0.255895 29.5442C-0.582364 27.5734 0.73244 25.3318 2.8367 25.1572V25.1543ZM2.78216 26.2168C1.67692 26.342 0.896073 27.5093 1.05684 28.5952C1.29511 30.205 3.20129 30.9619 4.4271 29.8993C6.01175 28.5282 4.89503 25.9781 2.78216 26.2197V26.2168Z" fill="#4C4C4C"/>
<path d="M15.2355 25.1543C17.69 24.9476 19.4038 27.5967 18.2211 29.8032C16.9981 32.0855 13.668 31.9283 12.6547 29.5442C11.8164 27.5734 13.1312 25.3318 15.2355 25.1572V25.1543ZM15.1781 26.2168C14.0728 26.342 13.292 27.5093 13.4527 28.5952C13.691 30.205 15.5972 30.9619 16.823 29.8993C18.4077 28.5282 17.2909 25.9781 15.1781 26.2197V26.2168Z" fill="#4C4C4C"/>
<path d="M27.6314 25.1543C30.0859 24.9476 31.7997 27.5967 30.617 29.8032C29.394 32.0855 26.064 31.9283 25.0506 29.5442C24.2123 27.5734 25.5271 25.3318 27.6314 25.1572V25.1543ZM27.574 26.2168C26.4687 26.342 25.6879 27.5093 25.8486 28.5952C26.0869 30.205 27.9931 30.9619 29.2189 29.8993C30.8036 28.5282 29.6868 25.9781 27.574 26.2197V26.2168Z" fill="#4C4C4C"/>
<path d="M15.2355 37.7272C17.69 37.5205 19.4038 40.1696 18.2211 42.3761C16.9981 44.6584 13.668 44.5012 12.6547 42.1171C11.8164 40.1463 13.1312 37.9047 15.2355 37.7301V37.7272ZM15.1781 38.7897C14.0728 38.9149 13.292 40.0822 13.4527 41.1681C13.691 42.7779 15.5972 43.5348 16.823 42.4722C18.4077 41.1011 17.2909 38.551 15.1781 38.7926V38.7897Z" fill="#4C4C4C"/>
</svg>
