<svg width="45" height="45" viewBox="0 0 45 45" fill="none" xmlns="http://www.w3.org/2000/svg">
<path d="M3.13476 15.5847L41.8 15.5751C43.4347 15.705 44.7664 16.9889 44.9684 18.6143C45.0309 26.2939 44.978 33.9831 44.9972 41.6675C44.9011 43.49 43.4875 44.9038 41.6653 45H3.33188C1.59142 44.9279 0.149045 43.5622 0 41.8262V18.7489C0.134621 17.0899 1.47603 15.729 3.13476 15.5847ZM3.22611 17.3111C2.4328 17.4217 1.81739 18.0613 1.73085 18.8595V41.6819C1.8222 42.5716 2.51934 43.2063 3.404 43.264H41.5884C42.5115 43.2015 43.1991 42.5139 43.2616 41.5906V18.9749C43.2039 18.0853 42.5548 17.3784 41.6605 17.3015L3.22611 17.3111Z" fill="#EFECE9"/>
<path d="M36.3382 13.844H34.6073L34.5833 13.0698C34.0881 5.69791 27.2176 0.446734 19.948 1.99035C14.4093 3.16369 10.3322 8.15519 10.3755 13.844H8.64462C8.62058 10.6461 9.77929 7.46754 11.8082 5.01988C17.2652 -1.58257 27.4051 -1.69317 32.9871 4.8131C35.1266 7.30404 36.3286 10.5452 36.3334 13.8488L36.3382 13.844Z" fill="#EFECE9"/>
<path d="M23.352 31.0642L23.3424 37.3685C23.1116 38.3639 21.7269 38.2725 21.6164 37.2579V31.0642C20.1692 30.7564 18.948 29.7273 18.4383 28.3424C17.6258 26.14 18.6883 23.6827 20.8567 22.8123C23.5011 21.7448 26.3954 23.4519 26.7801 26.2554C27.0926 28.4915 25.5492 30.6314 23.3472 31.0642H23.352ZM22.2125 24.2357C20.4721 24.3896 19.4191 26.2795 20.1115 27.8663C20.9529 29.7899 23.6693 29.9534 24.7271 28.1356C25.8089 26.2746 24.3376 24.0482 22.2125 24.2357Z" fill="#EFECE9"/>
</svg>
