<svg width="31" height="50" viewBox="0 0 31 50" fill="none" xmlns="http://www.w3.org/2000/svg">
<path d="M3.55455 0.0160735L27.3539 0C29.3304 0.171453 30.86 1.6931 31 3.67017V46.3781C30.8546 48.2962 29.3466 49.8446 27.4077 50H3.59225C1.69111 49.85 0.177728 48.3658 0 46.4799V3.52015C0.193885 1.65024 1.67495 0.192884 3.55455 0.0160735ZM3.55455 1.96635C2.56897 2.17531 1.98732 2.88791 1.91192 3.87913V46.1798C1.94962 47.2889 2.6713 48.1194 3.79691 48.2105H27.2031C28.1564 48.1354 28.9373 47.4496 29.0342 46.4906V3.62195C28.9157 2.73253 28.1994 2.03601 27.3054 1.95028L3.55455 1.96635Z" fill="#EFECE9"/>
<path d="M23.2446 20.2475H21.2788V18.7312C21.251 17.8683 20.6756 17.0221 20.2986 16.572C18.1067 13.9627 13.6096 13.7645 11.1322 16.0791C9.36681 17.6631 9.68736 20.5968 9.66192 23.1194H25.1565V38.5341H5.78423V23.1944L5.85962 23.1194H7.74461C7.74128 21.7358 7.7485 20.2615 7.74461 18.7795C7.87926 16.9792 9.00486 15.2165 10.4375 14.161C15.4946 10.4158 23.7993 13.4537 23.2446 20.2475ZM23.2446 25.0804H7.75V36.6427H23.2446V25.0804Z" fill="#EFECE9"/>
<path d="M13.4696 3.86841C14.7665 3.86859 16.3795 3.84464 17.5627 3.87912C18.6829 4.07201 18.6506 5.62044 17.5304 5.80261C16.2752 5.80062 14.6381 5.80861 13.3727 5.78118C12.3224 5.59901 12.3009 4.02915 13.4642 3.86305L13.4696 3.86841Z" fill="#EFECE9"/>
<path d="M16.4802 34.6925H14.5144V30.6097C13.1249 29.7793 13.2757 27.6522 14.8268 27.1164C17.0565 26.3395 18.446 29.356 16.4802 30.6097V34.6925Z" fill="#EFECE9"/>
</svg>
