<svg width="111" height="38" viewBox="0 0 111 38" fill="none" xmlns="http://www.w3.org/2000/svg">
<g clip-path="url(#clip0_1_2727)">
<path d="M60.0849 3.5531V29.4042H54.989L54.9165 29.3315V28.4357C54.554 28.5993 54.2308 28.8386 53.8713 29.0093C47.1019 32.236 41.135 24.5192 43.4821 18.1607C45.1274 13.7029 50.2968 10.865 54.9165 12.3637V3.5531H60.0849ZM51.6209 14.0705C49.5356 14.3533 48.5901 17.7012 48.4935 19.4564C48.3646 21.7823 49.2779 26.4481 51.9331 27.143C53.0205 27.4278 54.257 26.8471 54.9064 25.9816L54.9155 17.1821C54.7121 15.5571 53.4203 13.8271 51.6199 14.0715L51.6209 14.0705Z" fill="#4C4C4C"/>
<path d="M38.8333 19.2857H27.0485C27.1149 21.5429 28.004 24.7959 30.1074 25.9745C32.2109 27.1531 35.2809 25.5231 36.3784 23.5779C36.5516 23.2719 36.6573 22.9356 36.8326 22.6316L39.4112 23.0881C38.5201 26.0755 35.8085 28.673 32.807 29.485C28.6132 30.6212 24.0117 28.2135 22.4721 24.1869C21.2115 20.8905 22.3362 16.4479 24.9471 14.1038C29.746 9.79344 38.8846 12.1759 38.8343 19.2847H38.8333V19.2857ZM32.8925 17.4951C32.8321 15.8702 31.7286 14.1644 29.9725 14.1048C28.2487 14.0462 27.1955 15.9833 27.0958 17.4951H32.8925Z" fill="#4C4C4C"/>
<path d="M5.43432 12.2668L10.8676 22.4812L15.6252 12.2668H19.2722L7.7522 37.3432H4.10621L8.28989 28.1691L6.48499e-05 12.2668H5.43432Z" fill="#4C4C4C"/>
<path d="M71.6774 11.9274H66.509V29.4032H71.6774V11.9274Z" fill="#4C4C4C"/>
<path d="M68.5731 3.77932C69.726 3.64803 70.9343 3.98333 71.5072 5.12051C72.5725 7.74228 69.9012 9.63791 67.6427 8.46539C65.5061 7.35649 66.0468 3.92879 68.5741 3.77932H68.5731Z" fill="#4C4C4C"/>
</g>
<g clip-path="url(#clip1_1_2727)">
<path d="M89.3426 37.0302V29.4178C86.2571 28.2207 83.1202 25.8118 82.7684 22.3003C82.7281 18.1921 82.7647 14.0803 82.7501 9.97205C82.9333 6.36964 86.0812 3.89161 89.185 2.62167C93.5422 0.84229 98.995 0.780431 103.411 2.38878C106.702 3.58959 110.154 6.06398 110.439 9.83014V22.1621C110.231 25.2296 107.779 27.5075 105.184 28.832L89.3463 37.0302H89.3426ZM96.0194 3.21115C92.6041 3.3094 88.0234 4.41196 85.821 7.20656C83.3584 10.3287 85.4472 13.5053 88.4704 15.0846L96.5947 19.3529L104.825 15.03C107.654 13.5163 109.725 10.5142 107.577 7.47219C105.536 4.57934 100.945 3.38218 97.5622 3.22207L96.0194 3.21115ZM90.0132 27.4274V22.8243L95.2169 20.0843C92.9962 18.898 90.7608 17.7409 88.5364 16.5547C88.3642 16.4637 88.1809 16.3873 88.0087 16.2927C86.7738 15.6231 85.6158 14.7753 84.7473 13.6654L84.7363 21.9183C84.9488 24.7129 87.6019 26.5068 90.0096 27.4274H90.0132ZM91.3288 23.5666V33.7808L104.983 26.605C106.83 25.4952 108.585 23.7413 108.472 21.427L108.461 13.6654C107.695 14.6224 106.727 15.4048 105.668 16.027C105.309 16.2381 104.935 16.4127 104.565 16.6092C100.164 18.949 95.7409 21.2524 91.3288 23.5666Z" fill="#4C4C4C"/>
<path d="M96.1953 7.47219C97.5402 7.39214 99.8415 7.86519 100.193 9.41168C100.578 11.1001 98.2951 11.977 96.9649 12.0425C95.631 12.108 93.3406 11.6241 93.0108 10.0849C92.6517 8.41465 94.8724 7.55225 96.1953 7.47219Z" fill="#4C4C4C"/>
</g>
<defs>
<clipPath id="clip0_1_2727">
<rect width="71.7478" height="33.7901" fill="white" transform="translate(6.48499e-05 3.5531)"/>
</clipPath>
<clipPath id="clip1_1_2727">
<rect width="28.6348" height="36.6864" fill="white" transform="translate(82.3653 0.656738)"/>
</clipPath>
</defs>
</svg>
