<svg width="45" height="44" viewBox="0 0 45 44" fill="none" xmlns="http://www.w3.org/2000/svg">
<path d="M38.7468 35.6157H44.0664C44.1828 35.6157 44.4651 35.8487 44.4796 35.9855L44.5 43.5107C44.4854 43.7758 44.2759 43.9825 44.0111 44H36.5846C36.5846 43.9971 36.3955 43.9359 36.3955 43.9359C33.0402 40.6684 29.7343 37.3339 26.4169 34.0256C26.0706 33.5247 26.67 32.9393 27.1589 33.3121L36.864 42.9662H43.4262L43.4669 42.9254V36.6816H38.2579C38.2463 36.6816 38.0688 36.6466 38.0484 36.6408C37.8738 36.5855 37.6875 36.3467 37.6875 36.1661V30.9008H32.3679C32.1904 30.9008 31.9314 30.627 31.9343 30.4407L31.9198 24.8404L25.6835 18.617C26.1404 17.4812 26.4867 16.293 26.6264 15.0699C27.5722 6.6419 20.134 -0.306679 11.7909 1.2601C5.06281 2.52401 0.578396 9.00955 1.75115 15.7834C3.04322 23.2358 10.621 27.8662 17.8787 25.6209C18.1814 25.5277 18.7634 25.2481 19.0457 25.2773C19.5287 25.3297 19.648 26.0141 19.1912 26.2587C18.6062 26.5732 17.3578 26.8703 16.6885 26.9955C6.40434 28.9263 -2.15997 19.0567 1.26808 9.14351C4.47497 -0.137771 16.2607 -3.05874 23.4573 3.68016C27.4179 7.38743 28.8002 13.2439 26.9087 18.3578L32.8685 24.2988C32.8947 24.3279 32.9645 24.4531 32.9645 24.4822V29.8174L33.0052 29.8582H38.3394C38.4878 29.8582 38.7439 30.1727 38.7439 30.3183V35.6128L38.7468 35.6157Z" fill="#4C4C4C"/>
<path d="M10.7025 6.28661C14.0636 6.05946 16.3306 9.72304 14.5845 12.6295C13.1062 15.0874 9.62288 15.3699 7.77499 13.1653C5.5808 10.5414 7.31228 6.51668 10.6996 6.28661H10.7025ZM10.6181 7.34958C8.66547 7.53305 7.41414 9.58908 7.99906 11.4354C8.74695 13.8002 11.9015 14.3943 13.4438 12.4402C15.1986 10.2152 13.4351 7.08748 10.6181 7.34958Z" fill="#4C4C4C"/>
</svg>
