<svg width="29" height="51" viewBox="0 0 29 51" fill="none" xmlns="http://www.w3.org/2000/svg">
<path d="M3.31141 0.976721L25.6315 0.966797C27.4215 1.10573 28.8657 2.51493 29 4.28138V47.6489C28.8657 49.4187 27.4215 50.8246 25.6315 50.9668H3.3685C1.55495 50.8246 0.110828 49.3757 0 47.586V4.31777C0.120903 2.57447 1.54152 1.12889 3.31477 0.976721H3.31141ZM3.27782 2.18413C2.19641 2.33961 1.34001 3.21622 1.22247 4.28469V47.6224C1.33665 48.8728 2.42814 49.7925 3.68755 49.7958C11.0425 49.766 18.4042 49.8487 25.7524 49.7528C26.9279 49.5675 27.7574 48.5884 27.8078 47.4306V4.53941C27.7372 3.30884 26.9413 2.36938 25.6953 2.17751L3.27782 2.18413Z" fill="#4C4C4C"/>
<path d="M13.5915 6.9443C17.3698 6.74913 20.8592 7.87384 23.7306 10.2688C24.2982 10.7419 25.5543 11.9129 25.8767 12.5381C26.2259 13.2129 25.3964 13.7786 24.8759 13.2063C24.7449 13.0607 24.6206 12.8556 24.4863 12.7002C19.1699 6.58042 9.88049 6.56719 4.54059 12.6671C4.2249 13.0277 3.84204 13.8083 3.25096 13.332C2.73712 12.9218 3.21737 12.3925 3.50955 12.032C5.86045 9.12095 9.80996 7.13947 13.5882 6.9443H13.5915Z" fill="#4C4C4C"/>
<path d="M14.2666 12.2801L15.2237 12.3032C16.9063 12.462 18.4982 13.1037 19.8315 14.1127C20.1707 14.3674 21.3025 15.3333 21.3831 15.6972C21.5174 16.3059 20.8054 16.6764 20.3487 16.2397C19.7912 15.7071 19.4285 15.2672 18.7635 14.8173C15.3379 12.4885 11.1567 13.2989 8.55055 16.3621C8.00313 16.6433 7.42548 16.114 7.70759 15.5616C7.82513 15.3333 8.41957 14.7643 8.63787 14.5725C10.1693 13.2063 12.1877 12.3462 14.2699 12.2801H14.2666Z" fill="#4C4C4C"/>
<path d="M14.2666 17.6456C16.3622 17.4537 17.6989 19.7991 16.4328 21.4597C15.3111 22.9284 12.9434 22.6076 12.2616 20.9039C11.6739 19.4319 12.6713 17.7911 14.2699 17.6456H14.2666ZM14.2666 18.8497C13.9072 18.8993 13.5445 19.207 13.4035 19.5245C12.9501 20.5434 14.008 21.5655 15.029 21.0925C16.238 20.5335 15.7611 18.6512 14.2666 18.8497Z" fill="#4C4C4C"/>
</svg>
