<svg width="25" height="44" viewBox="0 0 25 44" fill="none" xmlns="http://www.w3.org/2000/svg">
<path d="M2.85466 0.00873302L22.0961 0C23.6393 0.122263 24.8842 1.36236 25 2.91684V41.0803C24.8842 42.6376 23.6393 43.8748 22.0961 44H2.90388C1.34047 43.8748 0.0955414 42.5998 0 41.0249V2.94886C0.104227 1.41475 1.32889 0.14264 2.85756 0.00873302H2.85466ZM2.82571 1.07125C1.89346 1.20807 1.15518 1.97949 1.05385 2.91975V41.057C1.15229 42.1573 2.09323 42.9666 3.17892 42.9695C9.5194 42.9433 15.8657 43.0161 22.2003 42.9317C23.2137 42.7686 23.9288 41.907 23.9722 40.8881V3.1439C23.9114 2.061 23.2252 1.23427 22.1511 1.06543L2.82571 1.07125Z" fill="#4C4C4C"/>
<path d="M11.7169 5.2602C14.9739 5.08845 17.982 6.0782 20.4574 8.18578C20.9467 8.60205 22.0295 9.63255 22.3075 10.1827C22.6086 10.7766 21.8935 11.2744 21.4447 10.7708C21.3318 10.6427 21.2247 10.4622 21.1089 10.3254C16.5258 4.93999 8.51766 4.92835 3.9143 10.2963C3.64215 10.6136 3.3121 11.3006 2.80255 10.8814C2.35958 10.5204 2.7736 10.0546 3.02548 9.73735C5.05211 7.17565 8.45686 5.43195 11.714 5.2602H11.7169Z" fill="#4C4C4C"/>
<path d="M12.2988 9.95567L13.1239 9.97605C14.5744 10.1158 15.9467 10.6805 17.0961 11.5684C17.3885 11.7925 18.3642 12.6425 18.4337 12.9628C18.5495 13.4984 17.9357 13.8244 17.542 13.4402C17.0614 12.9715 16.7487 12.5843 16.1754 12.1884C13.2224 10.1391 9.61783 10.8523 7.37116 13.5479C6.89925 13.7953 6.40127 13.3295 6.64447 12.8434C6.7458 12.6425 7.25825 12.1418 7.44644 11.973C8.76665 10.7708 10.5067 10.0139 12.3017 9.95567H12.2988Z" fill="#4C4C4C"/>
<path d="M12.2988 14.6773C14.1054 14.5085 15.2577 16.5724 14.1662 18.0337C13.1992 19.3262 11.1581 19.0439 10.5704 17.5447C10.0637 16.2493 10.9236 14.8054 12.3017 14.6773H12.2988ZM12.2988 15.7369C11.989 15.7806 11.6763 16.0513 11.5547 16.3308C11.1639 17.2274 12.0759 18.1269 12.956 17.7106C13.9983 17.2187 13.5871 15.5623 12.2988 15.7369Z" fill="#4C4C4C"/>
</svg>
