<svg width="45" height="44" viewBox="0 0 45 44" fill="none" xmlns="http://www.w3.org/2000/svg">
<path d="M26.5028 6.31898L36.2284 6.31027C37.301 6.39743 38.1236 7.22836 38.1962 8.30335V17.9259C38.1206 19.0445 37.2312 19.8783 36.118 19.919H26.6598C25.6192 19.8551 24.8198 19.1956 24.6193 18.1671C24.5379 14.9014 24.6077 11.6271 24.5844 8.35855C24.6338 7.28938 25.4273 6.41777 26.5028 6.31608V6.31898ZM26.4737 7.37654C26.0319 7.48404 25.7035 7.82397 25.6453 8.2772C25.6686 11.5545 25.5959 14.8433 25.6802 18.1119C25.811 18.539 26.186 18.8382 26.6336 18.8615H36.2023C36.6877 18.815 37.0713 18.4373 37.1382 17.955V8.2772C37.083 7.80944 36.6993 7.42593 36.2313 7.37073L26.4737 7.37944V7.37654Z" fill="#4C4C4C"/>
<path d="M8.70832 6.31898L18.463 6.31027C19.4803 6.38871 20.2942 7.18188 20.4017 8.19004V18.0102C20.2855 19.1084 19.4426 19.8522 18.3526 19.9219H8.86819C7.76948 19.8522 6.92946 19.0852 6.81901 17.984V8.19585C6.93236 7.20222 7.71716 6.42648 8.71123 6.32189L8.70832 6.31898ZM8.70542 7.37654C8.20257 7.47242 7.87121 7.91113 7.84796 8.41376V17.8126C7.8683 18.3588 8.26651 18.8005 8.81006 18.8586H18.4078C18.9426 18.8034 19.3466 18.3792 19.3699 17.8417V8.35855C19.3263 7.85011 18.9601 7.41431 18.434 7.36782L8.70542 7.37654Z" fill="#4C4C4C"/>
<path d="M26.3894 24.1086L36.3389 24.1028C37.237 24.2132 37.9753 24.8843 38.1526 25.7733C38.2456 29.0709 38.1642 32.386 38.1933 35.6894C38.1265 36.7411 37.3329 37.575 36.2836 37.6825H26.5202C25.5698 37.6011 24.7704 36.8748 24.6193 35.9305C24.5379 32.6678 24.6077 29.3905 24.5844 26.122C24.6571 25.0848 25.3547 24.2713 26.3923 24.1086H26.3894ZM26.558 25.14C26.0697 25.2068 25.7122 25.5816 25.6453 26.0668V35.6894C25.6889 36.1281 26.0145 36.5174 26.4476 36.6133C29.735 36.6714 33.0456 36.6714 36.3331 36.6133C36.7603 36.5145 37.1149 36.1368 37.1382 35.6894V26.0668C37.0917 25.5438 36.6557 25.1748 36.147 25.1313L26.558 25.14Z" fill="#4C4C4C"/>
<path d="M8.59497 24.1086L18.5706 24.1028C19.5298 24.2277 20.2913 24.9947 20.3988 25.9564V35.8317C20.2884 36.8254 19.4745 37.5924 18.4892 37.6854H8.72576C7.71425 37.5924 6.90911 36.7876 6.8161 35.7736V25.9854C6.92364 25.0354 7.64449 24.2538 8.59497 24.1115V24.1086ZM8.79262 25.14C8.22001 25.2213 7.89156 25.6397 7.84796 26.2062V35.579C7.89446 36.2182 8.3043 36.6249 8.94957 36.654H18.2944C18.8932 36.6104 19.3147 36.2443 19.367 35.6342V26.122C19.3176 25.5845 18.9165 25.1836 18.3758 25.1313L8.7868 25.14H8.79262Z" fill="#4C4C4C"/>
<path d="M6.47602 0.0433841C8.66763 -0.0815469 10.9581 0.118924 13.1584 0.0375733C13.8298 0.188653 13.7339 1.06898 13.0508 1.09513C10.8738 1.18229 8.60368 0.976008 6.43824 1.09513C3.80191 1.23749 1.59577 3.57631 1.56961 6.21439C1.54926 8.32369 1.64809 10.4562 1.59867 12.5713C1.52891 13.2686 0.656922 13.2948 0.53775 12.6265C0.627856 10.4243 0.418577 8.12322 0.53775 5.93257C0.712148 2.75991 3.32813 0.223517 6.47602 0.0433841Z" fill="#4C4C4C"/>
<path d="M31.8859 0.0433841C34.0543 0.110208 36.304 -0.0728307 38.4607 0.034668C41.8121 0.200274 44.3263 2.8674 44.4717 6.18243C44.5618 8.28011 44.4019 10.4388 44.4717 12.5423C44.46 13.2163 43.588 13.3267 43.4165 12.673L43.4107 6.01392C43.2654 3.43105 41.1813 1.29269 38.6002 1.09222L31.8045 1.0806C31.2203 0.909184 31.2581 0.118924 31.883 0.0404787L31.8859 0.0433841Z" fill="#4C4C4C"/>
<path d="M43.931 30.8897C44.2275 30.8839 44.4484 31.1396 44.4717 31.4243C44.4077 33.5278 44.5589 35.6865 44.4717 37.7841C44.3438 40.9859 41.9342 43.775 38.6555 43.961C36.4377 44.0859 34.1037 43.8622 31.8772 43.961C31.2697 43.9058 31.2145 43.0806 31.7958 42.9296H38.4055C41.0535 42.8133 43.2422 40.6808 43.4107 38.034V31.3691C43.4456 31.1047 43.6578 30.8984 43.931 30.8926V30.8897Z" fill="#4C4C4C"/>
<path d="M0.9534 30.9129C1.31092 30.8519 1.56089 31.0756 1.60158 31.4214C1.61611 33.4755 1.58414 35.5296 1.60158 37.5866C1.62774 40.5297 3.62751 42.7 6.57775 42.9267H13.1875C13.699 43.0487 13.7775 43.7285 13.2805 43.9348L6.35685 43.9581C3.24674 43.7489 0.694708 41.1457 0.540656 38.0311C0.43311 35.8521 0.624949 33.583 0.540656 31.3923C0.555189 31.1657 0.720868 30.9507 0.950493 30.91L0.9534 30.9129Z" fill="#4C4C4C"/>
<path d="M11.9144 10.4998C13.0072 10.4998 14.1989 10.494 15.2541 10.494C15.7453 10.5376 16.1551 10.9066 16.2162 11.4005C16.2162 12.5074 16.2162 13.7276 16.2162 14.8027C16.1697 15.3402 15.7104 15.6917 15.196 15.7353C14.1699 15.7353 13.0799 15.7353 12.0422 15.7353C11.5278 15.7237 11.0482 15.3198 10.9988 14.7998C10.9988 13.7422 10.9988 12.4929 10.9988 11.4005C11.0772 10.9269 11.4318 10.5637 11.9114 10.4998C11.9114 10.4998 10.8215 10.4998 11.9144 10.4998Z" fill="#4C4C4C"/>
<path d="M29.6245 28.2923C30.7232 28.2923 32.0312 28.2865 33.1038 28.2865C33.6008 28.3359 33.9612 28.7659 34.0107 29.2482C34.0107 30.3028 34.0107 31.4359 34.0107 32.5109C33.97 33.031 33.5747 33.4551 33.0486 33.5016C32.0021 33.5016 30.7813 33.5016 29.7001 33.5016C29.1653 33.4174 28.8107 33.0251 28.7671 32.4847C28.7671 31.4504 28.77 30.3028 28.77 29.283C28.8165 28.7949 29.1362 28.3911 29.6245 28.2952V28.2923Z" fill="#4C4C4C"/>
</svg>
