<svg width="49" height="49" viewBox="0 0 49 49" fill="none" xmlns="http://www.w3.org/2000/svg">
<path d="M27.472 0.380354C29.5187 0.195653 31.2832 1.72456 31.4479 3.79731V44.9855C31.1723 47.8894 27.882 49.3909 25.5798 47.5747L17.9102 40.3817L3.56255 40.3748C1.61659 40.2722 0.137797 38.8322 0 36.845V11.8728C0.107549 10.0566 1.49224 8.5619 3.27687 8.38062L17.9069 8.36693L25.5327 1.1944C26.0873 0.753175 26.7695 0.445341 27.4753 0.383774L27.472 0.380354ZM27.7308 1.59459C27.2165 1.61169 26.7023 1.82375 26.3024 2.14527L18.3942 9.58801L3.49869 9.59485C2.30894 9.68378 1.3578 10.6004 1.22337 11.8078V36.886C1.32419 38.0592 2.22491 38.9896 3.37434 39.1298L18.3606 39.1435L26.3696 46.6512C28.0131 47.8347 30.1271 46.7607 30.2548 44.7324C30.2279 31.0509 30.3086 17.3625 30.2145 3.68444C30.0296 2.46336 28.9508 1.56038 27.7341 1.60143L27.7308 1.59459Z" fill="#4C4C4C"/>
<path d="M43.4362 5.30228C43.574 5.27833 43.6648 5.29886 43.7891 5.35358C44.1891 5.53144 45.0763 7.05693 45.3217 7.505C48.8002 13.819 49.5026 22.6333 48.6994 29.7238C48.2356 33.8111 47.0828 38.3739 44.9419 41.8832C44.7503 42.1979 44.1487 43.1659 43.8799 43.33C43.3992 43.6208 42.8447 43.2035 42.9825 42.646C43.0329 42.4373 43.6177 41.7122 43.779 41.4557C45.7115 38.4184 46.8274 34.3686 47.3416 30.8046C48.4003 23.4782 47.7382 13.1418 43.5169 6.87907C43.4026 6.71147 43.0127 6.25998 42.9758 6.11633C42.885 5.76061 43.0598 5.36384 43.4362 5.30228Z" fill="#4C4C4C"/>
<path d="M37.0707 32.785C36.6674 32.3438 37.074 31.9675 37.269 31.581C39.1578 27.8733 39.2116 21.0976 37.3732 17.3625C37.269 17.1505 36.9228 16.6442 36.9026 16.463C36.8455 15.9944 37.2555 15.6523 37.6958 15.7857C38.0353 15.8883 38.4318 16.7537 38.5797 17.0821C40.3307 20.9505 40.3543 27.3261 38.7511 31.2493C38.6032 31.6152 38.1193 32.7029 37.8134 32.8876C37.5916 33.0176 37.2454 32.9731 37.0707 32.7816V32.785Z" fill="#4C4C4C"/>
</svg>
