<svg width="45" height="46" viewBox="0 0 45 46" fill="none" xmlns="http://www.w3.org/2000/svg">
<path d="M0.779141 0.50402C1.27452 0.455936 1.70257 0.845416 1.73142 1.34068V42.2072C1.818 43.0294 2.46728 43.6786 3.28971 43.7651H44.1658C45.1661 43.8421 45.3056 45.174 44.3726 45.4721C30.651 45.5298 16.9199 45.4769 3.19833 45.4961C1.50057 45.3663 0.115428 43.9815 0 42.2793V1.27336C0.0384761 0.874266 0.384761 0.547295 0.779141 0.508828V0.50402Z" fill="#EFECE9"/>
<path d="M41.5446 9.22163V14.4484C41.5446 14.5638 41.4195 14.8042 41.3474 14.8955C40.9626 15.3716 40.2027 15.3042 39.9094 14.7657C39.8901 14.7321 39.8132 14.5397 39.8132 14.5157V12.2413L22.8163 29.2245C22.1767 29.7727 21.2917 29.8016 20.6136 29.3015L14.7412 23.4785L5.19428 33.0088V30.5757L13.7793 21.9927C14.3612 21.5984 15.15 21.6032 15.7319 22.0023L21.6621 27.907L38.6396 10.9478H36.3551V10.8805C35.5375 10.8901 35.1624 9.84673 35.8165 9.33704C36.105 9.11585 36.3984 9.12547 36.7351 9.21683H41.5494L41.5446 9.22163Z" fill="#EFECE9"/>
</svg>
