<svg width="83" height="27" viewBox="0 0 83 27" fill="none" xmlns="http://www.w3.org/2000/svg">
<g clip-path="url(#clip0_12_1644)">
<path d="M44.9284 2.13086V21.1564H41.1179L41.0637 21.1029V20.4436C40.7927 20.564 40.551 20.7402 40.2822 20.8658C35.2204 23.2406 30.7586 17.5612 32.5137 12.8816C33.7439 9.60075 37.6094 7.51215 41.0637 8.61517V2.13086H44.9284ZM38.5994 9.8713C37.0402 10.0794 36.3332 12.5434 36.2609 13.8352C36.1645 15.5469 36.8474 18.9809 38.8328 19.4922C39.646 19.7018 40.5706 19.2744 41.0562 18.6375L41.063 12.1613C40.9109 10.9654 39.9449 9.69217 38.5987 9.87205L38.5994 9.8713Z" fill="#EFECE9"/>
<path d="M29.0375 13.7096H20.2255C20.2751 15.3708 20.94 17.7649 22.5128 18.6323C24.0856 19.4997 26.3812 18.3 27.2019 16.8685C27.3314 16.6433 27.4105 16.3958 27.5415 16.172L29.4697 16.508C28.8033 18.7066 26.7758 20.6183 24.5313 21.2159C21.3955 22.0521 17.9547 20.2801 16.8035 17.3167C15.8608 14.8906 16.7018 11.621 18.6541 9.89583C22.2425 6.72354 29.0759 8.47692 29.0383 13.7088H29.0375V13.7096ZM24.5953 12.3917C24.5502 11.1958 23.725 9.94043 22.4119 9.89657C21.1229 9.85346 20.3354 11.2791 20.2608 12.3917H24.5953Z" fill="#EFECE9"/>
<path d="M4.06351 8.54382L8.12621 16.0613L11.6837 8.54382H14.4107L5.79671 26.9993H3.07042L6.19876 20.2474L6.10352e-05 8.54382H4.06351Z" fill="#EFECE9"/>
<path d="M53.5966 8.29408H49.732V21.1557H53.5966V8.29408Z" fill="#EFECE9"/>
<path d="M51.2754 2.29735C52.1375 2.20073 53.041 2.44749 53.4694 3.28442C54.266 5.21395 52.2685 6.60908 50.5797 5.74614C48.9821 4.93002 49.3864 2.40736 51.2762 2.29735H51.2754Z" fill="#EFECE9"/>
</g>
<g clip-path="url(#clip1_12_1644)">
<path d="M66.8057 26.7698V21.1674C64.4985 20.2863 62.1529 18.5134 61.8899 15.9291C61.8597 12.9056 61.8871 9.87941 61.8762 6.85591C62.0132 4.20465 64.367 2.3809 66.6879 1.44627C69.9459 0.136704 74.0233 0.0911776 77.3252 1.27487C79.7858 2.15862 82.3671 3.97969 82.5808 6.75146V15.8273C82.4246 18.0849 80.5915 19.7614 78.6514 20.7362L66.8085 26.7698H66.8057ZM71.7983 1.88011C69.2445 1.95242 65.8193 2.76386 64.1724 4.8206C62.331 7.11835 63.8929 9.45628 66.1536 10.6186L72.2285 13.7599L78.3829 10.5784C80.4983 9.46432 82.0465 7.25493 80.4407 5.01609C78.9145 2.88705 75.4811 2.00598 72.9519 1.88814L71.7983 1.88011ZM67.3072 19.7025V16.3147L71.1982 14.2982C69.5377 13.4251 67.8662 12.5735 66.2029 11.7005C66.0741 11.6335 65.9371 11.5773 65.8083 11.5077C64.8849 11.0149 64.019 10.3909 63.3696 9.57412L63.3613 15.6479C63.5203 17.7046 65.5041 19.0249 67.3044 19.7025H67.3072ZM68.2909 16.8611V24.3783L78.5007 19.0972C79.8818 18.2804 81.1943 16.9896 81.1093 15.2864L81.1011 9.57412C80.5284 10.2784 79.805 10.8542 79.0131 11.3122C78.7446 11.4675 78.4651 11.596 78.1883 11.7407C74.8974 13.4626 71.59 15.1578 68.2909 16.8611Z" fill="#EFECE9"/>
<path d="M71.9298 5.01609C72.9355 4.95718 74.6563 5.30532 74.9193 6.44349C75.207 7.6861 73.4999 8.33151 72.5053 8.37971C71.5078 8.42792 69.7952 8.07174 69.5486 6.93893C69.2801 5.70971 70.9406 5.07501 71.9298 5.01609Z" fill="#EFECE9"/>
</g>
<defs>
<clipPath id="clip0_12_1644">
<rect width="53.6493" height="24.8684" fill="white" transform="translate(6.10352e-05 2.13086)"/>
</clipPath>
<clipPath id="clip1_12_1644">
<rect width="21.4116" height="27" fill="white" transform="translate(61.5885)"/>
</clipPath>
</defs>
</svg>
