<svg width="43" height="51" viewBox="0 0 43 51" fill="none" xmlns="http://www.w3.org/2000/svg">
<path d="M10.6505 14.7372C20.5847 14.2726 26.1214 26.2237 19.3245 33.5381C12.5718 40.8081 0.365164 36.1981 0.00510178 26.2976C-0.0480221 24.8685 0.314991 22.4718 1.03511 21.2231C1.35976 20.655 2.13301 20.9331 2.03857 21.5486C2.0002 21.7912 1.71687 22.3238 1.61948 22.6049C-0.892101 29.9193 5.38242 37.2042 12.9526 35.8638C19.9059 34.6329 23.4888 26.6675 19.7613 20.6047C17.6599 17.1842 13.894 15.4414 9.90975 15.8645C9.52608 15.906 9.03911 16.1308 8.80005 15.6929C8.65839 15.4325 8.72627 15.1455 8.97713 14.9857C9.228 14.8259 10.3111 14.749 10.6535 14.7342L10.6505 14.7372Z" fill="#4C4C4C"/>
<path d="M34.3822 0.910163C34.8101 0.83619 35.0226 1.19718 35.2676 1.48715C35.6601 1.95466 36.0467 2.49318 36.395 2.99619C45.2637 15.7964 45.2607 36.7307 36.026 49.3445C35.8017 49.6522 35.0757 50.6583 34.8042 50.818C34.2818 51.1258 33.7565 50.5103 34.1608 49.9748C34.7953 49.1344 35.4181 48.4036 36.0024 47.5041C42.3271 37.7574 43.4781 24.1198 40.0605 13.1157C38.9213 9.44957 37.1564 5.68584 34.8249 2.63521C34.6655 2.42512 34.0959 1.81855 34.028 1.64397C33.9129 1.35104 34.0516 0.963423 34.3822 0.907204V0.910163Z" fill="#4C4C4C"/>
<path d="M29.3974 6.39305C29.5391 6.39305 29.6689 6.45222 29.7752 6.53803C30.1647 6.85759 30.8081 7.81628 31.1121 8.26307C37.8146 18.0511 38.0507 33.7097 31.2538 43.5066C30.935 43.9682 30.1765 45.0571 29.7604 45.3589C29.241 45.7347 28.6094 45.1281 29.0964 44.5215C29.7988 43.6457 30.4067 42.9207 31.0059 41.9502C36.9292 32.3663 36.5662 17.4889 29.8844 8.35776C29.6128 7.9879 29.2469 7.61507 28.999 7.25705C28.7511 6.89902 28.9517 6.39896 29.3974 6.39009V6.39305Z" fill="#4C4C4C"/>
<path d="M24.1027 11.8108C24.5484 11.7191 24.8524 12.1955 25.1003 12.5002C30.6458 19.3028 30.5897 31.8219 25.4633 38.8404C25.2862 39.083 24.6871 39.8938 24.4421 39.9737C24.0142 40.1127 23.6453 39.7488 23.7545 39.3138C23.7958 39.1541 24.268 38.6658 24.4038 38.4883C29.4741 31.8781 29.5302 19.9567 24.4185 13.3524C24.265 13.1541 23.8341 12.7221 23.7545 12.5417C23.6305 12.2576 23.7899 11.8729 24.0998 11.8108H24.1027Z" fill="#4C4C4C"/>
</svg>
